<svg width="13" height="13" viewBox="0 0 13 13" fill="none" xmlns="http://www.w3.org/2000/svg">
<path d="M7.28 0.78C7.28 0.573131 7.19782 0.374735 7.05154 0.228457C6.90527 0.0821784 6.70687 0 6.5 0C6.29313 0 6.09474 0.0821784 5.94846 0.228457C5.80218 0.374735 5.72 0.573131 5.72 0.78V5.72H0.78C0.573131 5.72 0.374735 5.80218 0.228457 5.94846C0.0821784 6.09474 0 6.29313 0 6.5C0 6.70687 0.0821784 6.90527 0.228457 7.05154C0.374735 7.19782 0.573131 7.28 0.78 7.28H5.72V12.22C5.72 12.4269 5.80218 12.6253 5.94846 12.7715C6.09474 12.9178 6.29313 13 6.5 13C6.70687 13 6.90527 12.9178 7.05154 12.7715C7.19782 12.6253 7.28 12.4269 7.28 12.22V7.28H12.22C12.4269 7.28 12.6253 7.19782 12.7715 7.05154C12.9178 6.90527 13 6.70687 13 6.5C13 6.29313 12.9178 6.09474 12.7715 5.94846C12.6253 5.80218 12.4269 5.72 12.22 5.72H7.28V0.78Z" fill="#0D1619"/>
</svg>
