<svg width="54" height="54" viewBox="0 0 54 54" fill="none" xmlns="http://www.w3.org/2000/svg">
<g clip-path="url(#clip0_2_154)">
<g clip-path="url(#clip1_2_154)">
<path d="M40.5 34.7143C46.3581 34.7143 51.1071 29.9653 51.1071 24.1071C51.1071 18.249 46.3581 13.5 40.5 13.5C34.6418 13.5 29.8928 18.249 29.8928 24.1071C29.8928 29.9653 34.6418 34.7143 40.5 34.7143Z" fill="#FBD74C"/>
<path d="M36.2359 8.76927C36.3828 8.70089 36.5446 8.67063 36.7062 8.68129C36.8679 8.69194 37.0243 8.74317 37.161 8.83024C37.2976 8.9173 37.4101 9.0374 37.4881 9.17944C37.5661 9.32148 37.607 9.48088 37.6071 9.64291V39.5358C37.607 39.6978 37.5661 39.8572 37.4881 39.9992C37.4101 40.1413 37.2976 40.2614 37.161 40.3484C37.0243 40.4355 36.8679 40.4867 36.7062 40.4974C36.5446 40.508 36.3828 40.4778 36.2359 40.4094L21.843 33.7057H21.0966L24.7696 43.1634C25.6317 45.4006 24.5864 47.9434 22.409 48.8566C20.275 49.7456 17.8624 48.7322 16.9222 46.6127L16.8412 46.4169L11.8404 33.6565C7.43365 33.1869 3.98826 29.4397 3.86097 24.8401L3.85712 24.5749L3.86097 24.3116C4.00562 19.3996 7.94665 15.472 12.7768 15.472H21.843L36.2359 8.76927ZM19.0282 33.7057H13.931L18.6377 45.7159C19.1256 46.9723 20.4795 47.5712 21.6655 47.0774C22.8179 46.5934 23.4109 45.2492 23.0262 44.0187L22.9712 43.8587L19.0282 33.7057ZM35.6785 11.1549L22.4649 17.3109C22.3375 17.3701 22.1986 17.4007 22.058 17.4006H12.7768C9.00062 17.4006 5.90237 20.4873 5.78955 24.3541L5.78569 24.5893C5.78569 28.5641 8.92058 31.7781 12.7768 31.7781H22.058C22.1986 31.778 22.3375 31.8086 22.4649 31.8678L35.6785 38.0228V11.1549ZM40.5 19.2858C41.7787 19.2858 43.005 19.7937 43.9092 20.6979C44.8134 21.6021 45.3214 22.8285 45.3214 24.1072C45.3214 25.3859 44.8134 26.6123 43.9092 27.5165C43.005 28.4207 41.7787 28.9286 40.5 28.9286C40.2542 28.9284 40.0178 28.8342 39.8391 28.6655C39.6604 28.4968 39.5528 28.2662 39.5384 28.0209C39.524 27.7755 39.6038 27.5339 39.7616 27.3454C39.9193 27.157 40.1431 27.0358 40.3872 27.0068L40.5 27.0001C41.2672 27.0001 42.003 26.6953 42.5455 26.1528C43.088 25.6102 43.3928 24.8744 43.3928 24.1072C43.3928 23.34 43.088 22.6042 42.5455 22.0616C42.003 21.5191 41.2672 21.2143 40.5 21.2143C40.2442 21.2143 39.999 21.1127 39.8181 20.9319C39.6373 20.7511 39.5357 20.5058 39.5357 20.2501C39.5357 19.9943 39.6373 19.749 39.8181 19.5682C39.999 19.3874 40.2442 19.2858 40.5 19.2858Z" fill="#101928"/>
</g>
</g>
<defs>
<clipPath id="clip0_2_154">
<rect width="54" height="54" fill="white"/>
</clipPath>
<clipPath id="clip1_2_154">
<rect width="54" height="54" fill="white"/>
</clipPath>
</defs>
</svg>
