<svg width="16" height="16" viewBox="0 0 16 16" fill="none" xmlns="http://www.w3.org/2000/svg">
<g clip-path="url(#clip0_1_1052)">
<path d="M14.95 5.58133C14.8896 5.39467 14.7755 5.22992 14.6222 5.10758C14.4688 4.98525 14.2828 4.91074 14.0873 4.89333L10.376 4.57333L8.92134 1.11333C8.84566 0.931702 8.71791 0.776537 8.55419 0.66739C8.39047 0.558243 8.19811 0.5 8.00134 0.5C7.80457 0.5 7.61221 0.558243 7.44849 0.66739C7.28477 0.776537 7.15702 0.931702 7.08134 1.11333L5.63201 4.57333L1.91667 4.89533C1.72039 4.91178 1.53334 4.98583 1.37898 5.10819C1.22463 5.23054 1.10985 5.39576 1.04903 5.58311C0.988224 5.77045 0.984094 5.97159 1.03716 6.16127C1.09023 6.35096 1.19814 6.52074 1.34734 6.64933L4.16601 9.11333L3.32134 12.7727C3.27693 12.9641 3.28985 13.1643 3.35851 13.3485C3.42717 13.5326 3.54852 13.6924 3.70742 13.808C3.86632 13.9236 4.05574 13.9899 4.25206 13.9985C4.44837 14.0072 4.64289 13.9578 4.81134 13.8567L7.99801 11.9187L11.1913 13.8567C11.3598 13.9582 11.5544 14.0078 11.7508 13.9993C11.9473 13.9908 12.1369 13.9245 12.2959 13.8089C12.4549 13.6932 12.5763 13.5332 12.6448 13.3489C12.7134 13.1646 12.7261 12.9641 12.6813 12.7727L11.8373 9.11L14.6553 6.64933C14.8044 6.52025 14.9119 6.35 14.9645 6.15998C15.017 5.96996 15.0122 5.76864 14.9507 5.58133H14.95ZM14 5.89333L11.1813 8.35333C11.044 8.47276 10.9419 8.62738 10.886 8.80054C10.8301 8.9737 10.8225 9.15883 10.864 9.336L11.7107 13.0013L8.51934 11.064C8.36368 10.9692 8.18493 10.9191 8.00267 10.9191C7.82042 10.9191 7.64167 10.9692 7.48601 11.064L4.29934 13.0013L5.14067 9.33867C5.18198 9.16154 5.1742 8.9765 5.11817 8.80347C5.06213 8.63043 4.95997 8.47596 4.82267 8.35667L2.00267 5.89733V5.892L5.71734 5.57067C5.89853 5.5545 6.07188 5.48922 6.21872 5.38185C6.36556 5.27448 6.48033 5.12909 6.55067 4.96133L8.00134 1.50467L9.45134 4.96133C9.52174 5.12918 9.63661 5.27464 9.78358 5.38201C9.93055 5.48939 10.104 5.55462 10.2853 5.57067L14 5.892V5.896V5.89333Z" fill="#0D1619"/>
</g>
<defs>
<clipPath id="clip0_1_1052">
<rect width="16" height="16" fill="white"/>
</clipPath>
</defs>
</svg>
