<svg width="54" height="54" viewBox="0 0 54 54" fill="none" xmlns="http://www.w3.org/2000/svg">
<g clip-path="url(#clip0_2_176)">
<g clip-path="url(#clip1_2_176)">
<path d="M37.125 25.0714C43.2494 25.0714 48.2143 20.1066 48.2143 13.9821C48.2143 7.85766 43.2494 2.89282 37.125 2.89282C31.0005 2.89282 26.0357 7.85766 26.0357 13.9821C26.0357 20.1066 31.0005 25.0714 37.125 25.0714Z" fill="#FBD74C"/>
<path d="M30.8571 32.7857C31.1129 32.7857 31.3582 32.8873 31.539 33.0681C31.7198 33.249 31.8214 33.4942 31.8214 33.75V50.1428C31.8214 50.3986 31.7198 50.6438 31.539 50.8247C31.3582 51.0055 31.1129 51.1071 30.8571 51.1071H22.1786C21.9228 51.1071 21.6775 51.0055 21.4967 50.8247C21.3159 50.6438 21.2143 50.3986 21.2143 50.1428V33.75C21.2143 33.4942 21.3159 33.249 21.4967 33.0681C21.6775 32.8873 21.9228 32.7857 22.1786 32.7857H30.8571ZM15.4286 39.5357C15.6843 39.5357 15.9296 39.6373 16.1104 39.8181C16.2913 39.999 16.3928 40.2442 16.3928 40.5V50.1428C16.3928 50.3986 16.2913 50.6438 16.1104 50.8247C15.9296 51.0055 15.6843 51.1071 15.4286 51.1071H6.74999C6.49425 51.1071 6.24898 51.0055 6.06814 50.8247C5.8873 50.6438 5.78571 50.3986 5.78571 50.1428V40.5C5.78571 40.2442 5.8873 39.999 6.06814 39.8181C6.24898 39.6373 6.49425 39.5357 6.74999 39.5357H15.4286ZM46.2857 24.1071C46.5415 24.1071 46.7867 24.2087 46.9676 24.3895C47.1484 24.5704 47.25 24.8156 47.25 25.0714V50.1428C47.25 50.3986 47.1484 50.6438 46.9676 50.8247C46.7867 51.0055 46.5415 51.1071 46.2857 51.1071H37.6071C37.3514 51.1071 37.1061 51.0055 36.9253 50.8247C36.7444 50.6438 36.6428 50.3986 36.6428 50.1428V25.0714C36.6428 24.8156 36.7444 24.5704 36.9253 24.3895C37.1061 24.2087 37.3514 24.1071 37.6071 24.1071H46.2857ZM29.8928 34.7143H23.1428V49.1785H29.8928V34.7143ZM14.4643 41.4643H7.71428V49.1785H14.4643V41.4643ZM45.3214 26.0357H38.5714V49.1785H45.3214V26.0357ZM40.5 9.64282H40.5096C40.5337 9.64282 40.5559 9.64379 40.5791 9.64572L40.5 9.64282C40.7127 9.64358 40.9193 9.71403 41.0882 9.84339C41.1412 9.88389 41.1895 9.93018 41.2319 9.97839L41.2512 10.0025C41.3644 10.144 41.4358 10.3144 41.4575 10.4943L41.4595 10.5116L41.4633 10.5695L41.4643 10.6071V19.2857C41.464 19.5315 41.3699 19.7679 41.2012 19.9466C41.0325 20.1253 40.8019 20.2328 40.5565 20.2472C40.3111 20.2616 40.0696 20.1818 39.8811 20.0241C39.6926 19.8663 39.5715 19.6426 39.5425 19.3985L39.5357 19.2857V12.9956L28.1764 24.7763C28.0096 24.9495 27.7841 25.0541 27.5442 25.0696C27.3043 25.0851 27.0672 25.0104 26.8795 24.8602L26.7878 24.7763L20.9732 18.7457L15.1586 24.7763C14.9956 24.9453 14.7766 25.049 14.5426 25.068C14.3086 25.087 14.0757 25.02 13.8876 24.8795L13.7951 24.8014C13.6261 24.6384 13.5224 24.4194 13.5034 24.1854C13.4844 23.9514 13.5514 23.7186 13.6919 23.5305L13.77 23.4379L20.2789 16.6879C20.4457 16.5147 20.6712 16.4101 20.9111 16.3946C21.1511 16.3791 21.3882 16.4538 21.5759 16.604L21.6675 16.6879L27.4821 22.7176L38.2291 11.5714H31.8214C31.5852 11.5714 31.3573 11.4847 31.1808 11.3277C31.0043 11.1708 30.8915 10.9545 30.8639 10.7199L30.8571 10.6071C30.8572 10.3709 30.9439 10.143 31.1008 9.96646C31.2578 9.78997 31.474 9.67721 31.7086 9.64957L31.8214 9.64282H40.5Z" fill="#101928"/>
</g>
</g>
<defs>
<clipPath id="clip0_2_176">
<rect width="54" height="54" fill="white"/>
</clipPath>
<clipPath id="clip1_2_176">
<rect width="54" height="54" fill="white"/>
</clipPath>
</defs>
</svg>
