<svg width="24" height="24" viewBox="0 0 24 24" fill="none" xmlns="http://www.w3.org/2000/svg">
<path fill-rule="evenodd" clip-rule="evenodd" d="M6.78202 9.22C6.92265 9.07955 7.11327 9.00066 7.31202 9.00066C7.51077 9.00066 7.7014 9.07955 7.84202 9.22L12 13.377L16.157 9.22C16.2257 9.14631 16.3085 9.08721 16.4005 9.04622C16.4925 9.00523 16.5918 8.98319 16.6925 8.98141C16.7932 8.97963 16.8932 8.99816 16.9866 9.03588C17.08 9.0736 17.1648 9.12974 17.2361 9.20096C17.3073 9.27218 17.3634 9.35702 17.4011 9.4504C17.4389 9.54379 17.4574 9.64382 17.4556 9.74452C17.4538 9.84523 17.4318 9.94454 17.3908 10.0365C17.3498 10.1285 17.2907 10.2113 17.217 10.28L12.53 14.968C12.3894 15.1085 12.1988 15.1873 12 15.1873C11.8013 15.1873 11.6106 15.1085 11.47 14.968L6.78202 10.28C6.64157 10.1394 6.56268 9.94875 6.56268 9.75C6.56268 9.55125 6.64157 9.36063 6.78202 9.22Z" fill="#0D1619"/>
</svg>
