<svg width="56" height="56" viewBox="0 0 56 56" fill="none" xmlns="http://www.w3.org/2000/svg">
<g clip-path="url(#clip0_2_280)">
<g clip-path="url(#clip1_2_280)">
<path fill-rule="evenodd" clip-rule="evenodd" d="M40.1206 24.6089C40.5707 24.8088 40.9469 25.1447 41.1964 25.5694C41.4459 25.994 41.5562 26.4861 41.5117 26.9766L40.6442 36.3326L40.8004 36.6253C41.9676 38.829 42.8714 40.8695 43.4649 42.7686C43.5241 42.86 43.5562 42.9663 43.5572 43.0752C44.2508 45.4075 44.464 47.5257 44.1133 49.4719C43.9757 50.1842 43.2016 50.7943 42.4588 50.8641L42.3193 50.871H31.6656C30.8825 50.871 30.018 50.2284 29.8706 49.4651C29.2212 45.8673 30.5082 41.6761 33.1854 36.6244L33.3465 36.3227L32.482 26.9776C32.4368 26.487 32.5466 25.9946 32.796 25.5696C33.0454 25.1447 33.4218 24.8087 33.8722 24.6089C34.8568 24.1761 35.9207 23.9525 36.9964 23.9525C38.072 23.9525 39.1359 24.1761 40.1206 24.6089ZM17.6646 21.5505C17.7601 21.6741 17.8026 21.8305 17.7829 21.9854C17.7632 22.1403 17.6828 22.2811 17.5594 22.3768C17.2651 22.6037 17.022 22.8902 16.8463 23.2177C16.6705 23.5452 16.566 23.9061 16.5397 24.2768L16.5338 24.4674V32.9067C16.5338 33.2339 16.7745 33.5041 17.0879 33.5503L17.1841 33.5581H21.167C21.323 33.5581 21.4739 33.5021 21.592 33.4002C21.7101 33.2983 21.7877 33.1573 21.8105 33.003L21.8184 32.9067V28.6399C21.8186 28.492 21.8743 28.3495 21.9747 28.2408C22.075 28.1321 22.2126 28.065 22.3601 28.053C22.5075 28.041 22.6541 28.0849 22.7707 28.176C22.8873 28.2671 22.9654 28.3987 22.9895 28.5446L22.9973 28.6399V32.9077C22.9973 33.8705 22.2536 34.6594 21.3105 34.7321L21.167 34.738H17.1841C16.2213 34.738 15.4324 33.9943 15.3597 33.0512L15.3548 32.9077L15.3529 27.7164C15.0778 27.9522 14.8253 28.2126 14.5983 28.4955C13.8152 29.4654 13.3628 30.6603 13.3074 31.9056L13.3015 32.1768V50.2825C13.3013 50.4304 13.2455 50.5729 13.1452 50.6816C13.0448 50.7903 12.9073 50.8574 12.7598 50.8694C12.6124 50.8814 12.4658 50.8375 12.3492 50.7464C12.2326 50.6553 12.1545 50.5237 12.1304 50.3778L12.1225 50.2825V32.1758C12.1203 30.5676 12.67 29.0074 13.6797 27.7557C14.1538 27.167 14.719 26.6579 15.3538 26.2477V24.4684C15.3532 23.8847 15.4867 23.3087 15.7439 22.7848C16.0011 22.2608 16.3752 21.8029 16.8373 21.4464C16.8986 21.399 16.9685 21.364 17.0432 21.3437C17.1179 21.3233 17.1959 21.3178 17.2727 21.3276C17.3496 21.3373 17.4237 21.3621 17.4909 21.4006C17.5582 21.439 17.6172 21.4893 17.6646 21.5505ZM22.7016 26.0659C23.4563 26.5028 24.1238 27.0753 24.6705 27.7547C25.6157 28.9251 26.1599 30.3682 26.2227 31.8712L26.2286 32.1758V50.2815C26.2285 50.4294 26.1727 50.5719 26.0723 50.6806C25.972 50.7894 25.8344 50.8564 25.687 50.8684C25.5395 50.8804 25.3929 50.8365 25.2763 50.7454C25.1597 50.6543 25.0816 50.5228 25.0576 50.3768L25.0497 50.2815V32.1748C25.0497 30.8171 24.5879 29.53 23.7529 28.4945C23.2973 27.9282 22.7411 27.4509 22.1121 27.0867C21.9798 27.007 21.884 26.8786 21.8454 26.729C21.8068 26.5794 21.8285 26.4207 21.9057 26.2869C21.983 26.1531 22.1097 26.055 22.2585 26.0137C22.4073 25.9724 22.5665 25.9911 22.7016 26.0659ZM42.5011 43.6735H31.4848C30.9376 45.607 30.7519 47.3577 30.9798 48.9414L31.0289 49.2479C31.0594 49.4051 31.3472 49.634 31.5811 49.6822L31.6656 49.692H42.3193C42.561 49.692 42.9216 49.4238 42.954 49.2548C43.2546 47.5896 43.0817 45.7337 42.5001 43.6745L42.5011 43.6735ZM34.3486 25.6877C34.124 25.7879 33.9365 25.956 33.8124 26.1684C33.6884 26.3807 33.634 26.6266 33.657 26.8715L34.4881 35.8541H37.014C37.162 35.8543 37.3045 35.9101 37.4132 36.0104C37.5219 36.1108 37.5889 36.2483 37.6009 36.3958C37.6129 36.5432 37.569 36.6898 37.478 36.8064C37.3869 36.923 37.2553 37.0011 37.1093 37.0252L37.014 37.0331H34.3044L34.2258 37.1804C33.2198 39.0795 32.4201 40.8489 31.8552 42.4945H42.1317C41.5225 40.7183 40.6383 38.7976 39.5164 36.7246C39.4457 36.5945 39.4268 36.4426 39.4633 36.2992L40.263 27.7066L40.3387 26.8715C40.3611 26.6266 40.3064 26.3808 40.1822 26.1685C40.058 25.9562 39.8706 25.7881 39.646 25.6877C38.8112 25.3208 37.9092 25.1314 36.9973 25.1314C36.0855 25.1314 35.1835 25.3208 34.3486 25.6877ZM30.1771 8.51531C30.9173 7.77518 31.9211 7.35938 32.9678 7.35938C34.0145 7.35938 35.0183 7.77518 35.7585 8.51531C36.4986 9.25544 36.9144 10.2593 36.9144 11.306C36.9144 12.3527 36.4986 13.3565 35.7585 14.0966L30.3461 19.51L27.9725 17.1354L23.2656 21.8433C23.54 22.2948 23.6641 22.8217 23.62 23.3482C23.5758 23.8746 23.3657 24.3735 23.0199 24.773L22.8981 24.9027L21.4539 26.3469C21.35 26.4517 21.2105 26.5138 21.0631 26.5207C20.9156 26.5277 20.7709 26.4791 20.6576 26.3845C20.5442 26.2899 20.4705 26.1563 20.451 26.01C20.4314 25.8637 20.4675 25.7153 20.552 25.5943L20.6208 25.5128L22.065 24.0686C22.3022 23.8307 22.4393 23.511 22.4482 23.1751C22.4571 22.8393 22.3371 22.5128 22.1127 22.2627C21.8884 22.0126 21.5768 21.8579 21.242 21.8303C20.9072 21.8027 20.5745 21.9044 20.3123 22.1145L20.2042 22.2107L18.761 23.655C18.6571 23.7598 18.5176 23.8218 18.3702 23.8288C18.2227 23.8358 18.078 23.7872 17.9647 23.6926C17.8513 23.598 17.7776 23.4644 17.758 23.318C17.7385 23.1717 17.7746 23.0234 17.8591 22.9024L17.9279 22.8208L19.3721 21.3766C19.7672 20.9816 20.2835 20.7307 20.8382 20.6641C21.393 20.5974 21.954 20.719 22.4314 21.0092L27.1374 16.3013L24.7648 13.9286L30.1771 8.51531ZM21.502 22.7717C21.5999 22.8692 21.6603 22.998 21.6729 23.1355C21.6855 23.2731 21.6493 23.4107 21.5708 23.5243L21.502 23.6058L20.107 25.0009C20.0028 25.1044 19.8637 25.1653 19.7169 25.1717C19.5702 25.178 19.4263 25.1293 19.3136 25.0351C19.2009 24.941 19.1274 24.8081 19.1075 24.6626C19.0876 24.517 19.1227 24.3693 19.206 24.2484L19.2748 24.1668L20.6699 22.7717C20.7804 22.6613 20.9303 22.5993 21.0865 22.5993C21.2427 22.5993 21.3915 22.6613 21.502 22.7717ZM34.9263 9.34941C34.6693 9.0924 34.3642 8.88852 34.0284 8.74942C33.6926 8.61032 33.3327 8.53873 32.9693 8.53873C32.6058 8.53873 32.2459 8.61032 31.9101 8.74942C31.5743 8.88852 31.2692 9.0924 31.0122 9.34941L26.432 13.9277L28.3841 15.8798C28.3861 15.8814 28.3881 15.8831 28.39 15.8847L28.395 15.8906L30.3461 17.8418L34.9263 13.2635C35.4221 12.7676 35.7112 12.1019 35.7351 11.4011C35.7589 10.7003 35.5159 10.0165 35.055 9.48794L34.9263 9.34941Z" fill="#101928"/>
</g>
</g>
<defs>
<clipPath id="clip0_2_280">
<rect width="56" height="55.02" fill="white"/>
</clipPath>
<clipPath id="clip1_2_280">
<rect width="56" height="55.02" fill="white"/>
</clipPath>
</defs>
</svg>
