<svg width="130" height="40" viewBox="0 0 130 40" fill="none" xmlns="http://www.w3.org/2000/svg">
<g clip-path="url(#clip0_2_451)">
<g clip-path="url(#clip1_2_451)">
<g clip-path="url(#clip2_2_451)">
<path fill-rule="evenodd" clip-rule="evenodd" d="M4 0H126C127.061 0 128.078 0.421427 128.828 1.17157C129.579 1.92172 130 2.93913 130 4V36C130 37.0609 129.579 38.0783 128.828 38.8284C128.078 39.5786 127.061 40 126 40H4C2.93913 40 1.92172 39.5786 1.17157 38.8284C0.421427 38.0783 0 37.0609 0 36V4C0 2.93913 0.421427 1.92172 1.17157 1.17157C1.92172 0.421427 2.93913 0 4 0Z" fill="#020000"/>
<path fill-rule="evenodd" clip-rule="evenodd" d="M25.105 7.2002C25.527 9.8262 23.125 13.0722 20.253 12.9672C19.833 9.6272 22.925 7.3772 25.105 7.2012M25.597 12.6612C28.457 12.6612 30.285 15.4042 30.285 15.4042C30.285 15.4042 27.497 16.9042 27.497 20.1622C27.497 24.0292 31 25.1542 31 25.1542C31 25.1542 28.235 31.6582 25.128 31.6582C23.383 31.6582 23.265 30.6622 20.945 30.6622C18.93 30.6622 18.25 31.6582 16.715 31.6582C13.785 31.6582 10.001 25.3182 10.001 20.1622C10.001 14.8062 13.833 12.6622 16.235 12.6622C18.343 12.6622 19.223 13.8922 20.922 13.8922C22.352 13.8922 23.477 12.6612 25.597 12.6612ZM41.396 8.0902C41.625 8.0402 41.966 8.0002 42.416 8.0002C44.254 8.0002 45.154 9.0092 45.144 10.5982C45.144 12.4182 44.134 13.4572 42.275 13.4572C41.936 13.4572 41.616 13.4472 41.396 13.4072V8.0902ZM40.526 14.0762C40.966 14.1262 41.486 14.1562 42.105 14.1562C43.415 14.1562 44.454 13.8162 45.084 13.1862C45.713 12.5682 46.053 11.6682 46.053 10.5692C46.053 9.4792 45.704 8.6992 45.104 8.1492C44.514 7.5992 43.625 7.3092 42.375 7.3092C41.686 7.3092 41.056 7.3692 40.526 7.4492V14.0762ZM49.065 9.8082C50.105 9.8082 50.514 10.8482 50.514 11.6682C50.514 12.7582 49.884 13.5462 49.044 13.5462C48.186 13.5462 47.576 12.7462 47.576 11.6872C47.576 10.7672 48.026 9.8082 49.065 9.8082ZM49.085 9.1482C47.745 9.1482 46.687 10.0982 46.687 11.7182C46.687 13.2462 47.696 14.2052 49.005 14.2052C50.174 14.2052 51.414 13.4262 51.414 11.6372C51.414 10.1582 50.475 9.1482 49.085 9.1482ZM51.897 9.2582L53.356 14.0962H54.156L54.935 11.7972C55.105 11.2772 55.255 10.7782 55.375 10.1982H55.395C55.515 10.7682 55.655 11.2482 55.825 11.7882L56.563 14.0952H57.363L58.923 9.2582H58.053L57.363 11.6882C57.203 12.2582 57.073 12.7672 56.993 13.2572H56.963C56.855 12.7672 56.713 12.2572 56.533 11.6772L55.785 9.2592H55.045L54.255 11.7272C54.095 12.2472 53.935 12.7672 53.825 13.2572H53.795C53.705 12.7572 53.575 12.2572 53.435 11.7172L52.795 9.2582H51.897ZM59.456 14.0962H60.336V11.1882C60.336 11.0382 60.356 10.8882 60.396 10.7782C60.546 10.2882 60.996 9.8782 61.576 9.8782C62.404 9.8782 62.694 10.5282 62.694 11.3082V14.0962H63.574V11.2082C63.574 9.5482 62.534 9.1482 61.865 9.1482C61.065 9.1482 60.505 9.5982 60.266 10.0582H60.246L60.196 9.2582H59.416C59.446 9.6582 59.456 10.0682 59.456 10.5682V14.0962Z" fill="white"/>
<mask id="mask0_2_451" style="mask-type:luminance" maskUnits="userSpaceOnUse" x="10" y="7" width="107" height="28">
<path d="M10 34.661H116.301V7.00098H10V34.661Z" fill="white"/>
</mask>
<g mask="url(#mask0_2_451)">
<path fill-rule="evenodd" clip-rule="evenodd" d="M64.586 14.096H65.465V7H64.586V14.096ZM69.005 9.808C70.045 9.808 70.454 10.848 70.454 11.668C70.454 12.758 69.824 13.546 68.984 13.546C68.126 13.546 67.516 12.746 67.516 11.687C67.516 10.767 67.965 9.808 69.005 9.808ZM69.025 9.148C67.685 9.148 66.625 10.098 66.625 11.718C66.625 13.246 67.635 14.205 68.945 14.205C70.114 14.205 71.354 13.426 71.354 11.637C71.354 10.158 70.415 9.148 69.025 9.148ZM75.475 12.467C75.475 12.557 75.455 12.657 75.425 12.747C75.285 13.156 74.885 13.556 74.255 13.556C73.805 13.556 73.425 13.286 73.425 12.717C73.425 11.778 74.515 11.608 75.475 11.628V12.467ZM76.404 14.096C76.3449 13.7126 76.3181 13.3249 76.324 12.937V11.128C76.324 10.158 75.964 9.149 74.484 9.149C73.876 9.149 73.296 9.319 72.896 9.578L73.096 10.158C73.436 9.938 73.906 9.799 74.355 9.799C75.345 9.799 75.455 10.518 75.455 10.918V11.018C73.585 11.008 72.545 11.647 72.545 12.817C72.545 13.516 73.045 14.206 74.025 14.206C74.715 14.206 75.235 13.866 75.505 13.487H75.535L75.605 14.096H76.404ZM81.474 12.067C81.474 12.207 81.464 12.327 81.434 12.447C81.274 13.107 80.734 13.497 80.145 13.497C79.195 13.497 78.716 12.687 78.716 11.707C78.716 10.638 79.256 9.838 80.166 9.838C80.824 9.838 81.304 10.298 81.434 10.858C81.464 10.968 81.474 11.118 81.474 11.228V12.067ZM81.474 7V9.888H81.454C81.234 9.499 80.734 9.149 79.995 9.149C78.815 9.149 77.816 10.139 77.826 11.747C77.826 13.217 78.726 14.207 79.896 14.207C80.684 14.207 81.274 13.797 81.544 13.257H81.564L81.604 14.097H82.394C82.364 13.767 82.354 13.277 82.354 12.847V7H81.474ZM87.965 9.808C89.004 9.808 89.414 10.848 89.414 11.668C89.414 12.758 88.784 13.546 87.944 13.546C87.084 13.546 86.476 12.746 86.476 11.687C86.476 10.767 86.925 9.808 87.965 9.808ZM87.985 9.148C86.645 9.148 85.585 10.098 85.585 11.718C85.585 13.246 86.595 14.205 87.905 14.205C89.074 14.205 90.314 13.426 90.314 11.637C90.314 10.158 89.375 9.148 87.985 9.148ZM91.446 14.096H92.325V11.188C92.325 11.038 92.345 10.888 92.385 10.778C92.535 10.288 92.985 9.878 93.565 9.878C94.394 9.878 94.684 10.528 94.684 11.308V14.096H95.564V11.208C95.564 9.548 94.524 9.148 93.854 9.148C93.054 9.148 92.494 9.598 92.256 10.058H92.236L92.185 9.258H91.405C91.435 9.658 91.445 10.068 91.445 10.568L91.446 14.096ZM99.715 8.1V9.258H98.965V9.928H99.715V12.568C99.715 13.136 99.805 13.566 100.055 13.826C100.265 14.066 100.595 14.196 101.005 14.196C101.345 14.196 101.615 14.146 101.785 14.076L101.745 13.416C101.635 13.446 101.465 13.476 101.235 13.476C100.745 13.476 100.575 13.136 100.575 12.536V9.928H101.835V9.258H100.575V7.87L99.715 8.1ZM102.585 14.096H103.465V11.178C103.465 11.008 103.475 10.878 103.525 10.758C103.685 10.278 104.135 9.878 104.705 9.878C105.533 9.878 105.823 10.538 105.823 11.318V14.096H106.703V11.218C106.703 9.548 105.663 9.148 105.014 9.148C104.684 9.148 104.374 9.248 104.114 9.398C103.844 9.548 103.625 9.768 103.484 10.018H103.464V7H102.585V14.096ZM109.275 11.208C109.345 10.598 109.735 9.778 110.625 9.778C111.614 9.778 111.854 10.648 111.844 11.208H109.275ZM112.663 11.837C112.673 11.747 112.693 11.607 112.693 11.427C112.693 10.537 112.273 9.149 110.693 9.149C109.285 9.149 108.426 10.298 108.426 11.758C108.426 13.217 109.315 14.196 110.804 14.196C111.574 14.196 112.104 14.036 112.414 13.896L112.263 13.266C111.933 13.406 111.553 13.516 110.923 13.516C110.045 13.516 109.285 13.026 109.265 11.836L112.663 11.837ZM43.156 25.982L44.093 22.994C44.308 22.274 44.489 21.427 44.669 20.725H44.704C44.885 21.427 45.084 22.255 45.317 22.995L46.271 25.982H43.156ZM46.649 27.657L47.747 31.097H50.124L46.181 18.96H43.354L39.465 31.096H41.752L42.796 27.657H46.649ZM53.74 26.073C53.74 25.892 53.776 25.693 53.83 25.513C54.046 24.542 54.892 23.876 55.81 23.876C57.233 23.876 57.99 25.136 57.99 26.685C57.99 28.414 57.16 29.584 55.757 29.584C55.3056 29.5824 54.868 29.4285 54.515 29.1472C54.162 28.8659 53.9143 28.4737 53.812 28.034C53.7605 27.8345 53.7363 27.629 53.74 27.423V26.073ZM51.526 34.661H53.74V30.124H53.776C54.226 30.826 55.145 31.294 56.243 31.294C58.241 31.294 60.24 29.763 60.24 26.594C60.24 23.858 58.566 22.13 56.549 22.13C55.217 22.13 54.189 22.687 53.542 23.677H53.506L53.398 22.327H51.453C51.49 23.156 51.526 24.093 51.526 25.244V34.661ZM64.702 26.073C64.702 25.892 64.738 25.693 64.792 25.513C65.008 24.542 65.854 23.876 66.772 23.876C68.195 23.876 68.952 25.136 68.952 26.685C68.952 28.414 68.122 29.584 66.719 29.584C66.2676 29.5824 65.83 29.4285 65.477 29.1472C65.1239 28.8659 64.8763 28.4737 64.774 28.034C64.7225 27.8345 64.6983 27.629 64.702 27.423V26.073ZM62.487 34.661H64.702V30.124H64.738C65.188 30.826 66.106 31.294 67.205 31.294C69.203 31.294 71.202 29.763 71.202 26.594C71.202 23.858 69.528 22.13 67.511 22.13C66.179 22.13 65.151 22.687 64.504 23.677H64.468L64.36 22.327H62.415C62.452 23.156 62.487 24.093 62.487 25.244V34.661ZM76.293 30.52C76.958 30.916 78.291 31.276 79.569 31.276C82.702 31.276 84.179 29.583 84.179 27.639C84.179 25.892 83.153 24.83 81.046 24.039C79.426 23.409 78.723 22.975 78.723 22.04C78.723 21.337 79.335 20.581 80.74 20.581C81.875 20.581 82.72 20.923 83.153 21.157L83.693 19.374C83.063 19.05 82.091 18.762 80.775 18.762C78.146 18.762 76.49 20.274 76.49 22.255C76.49 24.001 77.77 25.065 79.768 25.785C81.315 26.342 81.928 26.882 81.928 27.801C81.928 28.791 81.135 29.458 79.713 29.458C78.6855 29.4493 77.6767 29.1828 76.779 28.683L76.293 30.52ZM86.553 20.347V22.327H85.293V23.984H86.553V28.107C86.553 29.26 86.769 30.052 87.237 30.556C87.651 31.006 88.335 31.276 89.146 31.276C89.848 31.276 90.424 31.186 90.748 31.06L90.712 29.368C90.43 29.4419 90.1395 29.4779 89.848 29.475C89.002 29.475 88.714 28.918 88.714 27.855V23.984H90.82V22.328H88.714V19.825L86.553 20.347ZM96.159 23.75C97.671 23.75 98.284 25.316 98.284 26.686C98.284 28.449 97.401 29.691 96.141 29.691C94.79 29.691 93.961 28.414 93.961 26.721C93.961 25.263 94.591 23.75 96.159 23.75ZM96.213 22.13C93.566 22.13 91.676 23.895 91.676 26.775C91.676 29.584 93.584 31.294 96.069 31.294C98.302 31.294 100.569 29.854 100.569 26.631C100.569 23.966 98.824 22.13 96.213 22.13ZM102.385 31.096H104.6V26.558C104.6 26.306 104.635 26.073 104.672 25.874C104.87 24.884 105.59 24.2 106.652 24.2C106.922 24.2 107.12 24.236 107.302 24.272V22.183C107.13 22.1454 106.955 22.1273 106.779 22.129C105.842 22.129 104.816 22.759 104.384 24.001H104.312L104.239 22.327H102.313C102.367 23.119 102.385 23.965 102.385 25.154V31.096ZM110.36 25.785C110.45 24.885 111.026 23.642 112.394 23.642C113.87 23.642 114.23 24.974 114.212 25.785H110.359H110.36ZM116.23 27.333C116.265 27.135 116.301 26.811 116.301 26.397C116.301 24.471 115.365 22.13 112.521 22.13C109.711 22.13 108.234 24.416 108.234 26.847C108.234 29.53 109.909 31.276 112.754 31.276C114.014 31.276 115.059 31.042 115.815 30.736L115.491 29.206C114.824 29.458 114.086 29.601 113.061 29.601C111.655 29.601 110.413 28.918 110.359 27.333H116.229H116.23Z" fill="white"/>
</g>
</g>
</g>
</g>
<defs>
<clipPath id="clip0_2_451">
<rect width="130" height="40" fill="white"/>
</clipPath>
<clipPath id="clip1_2_451">
<rect width="130" height="40" fill="white"/>
</clipPath>
<clipPath id="clip2_2_451">
<rect width="130" height="40" fill="white"/>
</clipPath>
</defs>
</svg>
