<svg width="56" height="56" viewBox="0 0 56 56" fill="none" xmlns="http://www.w3.org/2000/svg">
<g clip-path="url(#clip0_2_329)">
<g clip-path="url(#clip1_2_329)">
<path fill-rule="evenodd" clip-rule="evenodd" d="M38.9799 39.217C39.1196 39.217 39.2547 39.2665 39.3612 39.3569C39.4678 39.4472 39.5387 39.5724 39.5616 39.7102L40.1618 43.3109C40.176 43.3954 40.1715 43.4819 40.1488 43.5645C40.1261 43.6471 40.0856 43.7237 40.0303 43.7891C39.9749 43.8545 39.906 43.907 39.8282 43.943C39.7505 43.979 39.6659 43.9977 39.5802 43.9976H29.9777C29.892 43.9977 29.8074 43.979 29.7297 43.943C29.6519 43.907 29.583 43.8545 29.5276 43.7891C29.4723 43.7237 29.4318 43.6471 29.4091 43.5645C29.3864 43.4819 29.3819 43.3954 29.3961 43.3109L29.9954 39.7102C30.0182 39.5722 30.0893 39.4469 30.1961 39.3566C30.3028 39.2662 30.4381 39.2167 30.578 39.217H38.9799ZM24.0977 33.1208L24.194 33.1218C24.3331 33.1345 24.4632 33.1962 24.5611 33.2959C24.659 33.3956 24.7183 33.5268 24.7284 33.6661V33.7624L24.6037 35.1182C24.599 35.1727 24.5867 35.2262 24.5673 35.2773L24.5319 35.352L21.7123 40.4274C21.5595 40.6991 21.5174 41.0192 21.5946 41.3212C21.6718 41.6232 21.8625 41.8838 22.127 42.0488C22.3914 42.2138 22.7093 42.2705 23.0145 42.2071C23.3197 42.1438 23.5887 41.9652 23.7656 41.7085L23.8344 41.5955L26.8348 36.193C26.8957 36.083 26.9399 35.9641 26.9635 35.8452L26.9812 35.7273L27.105 33.9746C27.1154 33.8269 27.1809 33.6885 27.2887 33.5869C27.3965 33.4853 27.5385 33.428 27.6866 33.4264C27.8347 33.4248 27.9779 33.479 28.0879 33.5782C28.1978 33.6774 28.2664 33.8144 28.28 33.9618L28.281 34.0581L28.1562 35.8206C28.1326 36.0859 28.0639 36.3463 27.9548 36.5879L27.8654 36.7658L24.8689 42.1594C24.5754 42.711 24.0776 43.1258 23.4821 43.3148C22.8865 43.5039 22.2406 43.4523 21.6827 43.171C21.1248 42.8897 20.6992 42.4012 20.497 41.8099C20.2949 41.2187 20.3322 40.5719 20.6011 40.0079L20.6866 39.8467L23.4394 34.8893L23.5534 33.6553C23.5661 33.5162 23.6278 33.3861 23.7274 33.2882C23.8271 33.1903 23.9583 33.131 24.0977 33.1208ZM38.4808 40.3959H31.0761L30.6733 42.8177H38.8837L38.4808 40.3959ZM40.8171 17.2817L40.937 17.4094C41.2908 17.8218 41.4771 18.3519 41.4593 18.8949C41.4415 19.438 41.2208 19.9547 40.8407 20.343L40.7012 20.4737L36.3342 24.2168C35.9714 24.5275 35.5239 24.7224 35.0493 24.7763C34.5748 24.8302 34.095 24.7408 33.6717 24.5194L33.5126 24.4281L31.1665 22.9623V24.2021C31.1665 24.3418 31.1169 24.4769 31.0266 24.5834C30.9363 24.6899 30.8111 24.7609 30.6733 24.7837L30.578 24.7916C30.438 24.7918 30.3025 24.7422 30.1958 24.6516C30.089 24.5611 30.018 24.4355 29.9954 24.2974L29.9885 24.2021V21.8992C29.9884 21.8017 30.0126 21.7057 30.0588 21.6197C30.105 21.5338 30.1718 21.4607 30.2532 21.407C30.3346 21.3532 30.428 21.3205 30.5252 21.3118C30.6223 21.303 30.7201 21.3186 30.8098 21.3569L30.8904 21.3992L34.1374 23.4279C34.5481 23.6853 35.0698 23.6706 35.4637 23.4004L35.5669 23.3218L39.9339 19.5787C40.1189 19.4198 40.2391 19.1984 40.2714 18.9567C40.3037 18.7149 40.2459 18.4697 40.1091 18.2679C39.9723 18.066 39.766 17.9215 39.5295 17.8619C39.293 17.8023 39.0428 17.8319 38.8267 17.9448L38.7186 18.0107L34.9528 20.6554C34.872 20.7123 34.7782 20.748 34.68 20.7592C34.5818 20.7703 34.4824 20.7566 34.3909 20.7193L34.3025 20.6731L30.6192 18.3742C30.4659 18.2782 30.293 18.2178 30.1133 18.1973L29.9777 18.1895H23.9749C23.746 18.1895 23.523 18.2543 23.3265 18.3781L23.2125 18.4597L17.8168 22.6557C17.5672 22.8558 17.4069 23.1464 17.3708 23.4643L17.363 23.6018V29.8385C17.361 30.0814 17.4498 30.3162 17.6119 30.4971C17.774 30.678 17.9977 30.792 18.2393 30.8167C18.481 30.8414 18.7231 30.775 18.9184 30.6306C19.1138 30.4863 19.2482 30.2742 19.2954 30.0359L19.3121 29.922L19.7867 24.4163C19.7987 24.2768 19.86 24.1462 19.9596 24.0479L20.0401 23.9811L23.0415 21.9159C23.1236 21.8594 23.2186 21.8246 23.3177 21.8148C23.4168 21.8049 23.5167 21.8203 23.6083 21.8596C23.6998 21.8988 23.7799 21.9606 23.8411 22.0392C23.9023 22.1178 23.9426 22.2106 23.9582 22.3089L23.9651 22.4013V28.4041C23.9651 29.3531 24.697 30.1332 25.6274 30.2088L25.7757 30.2147H31.0387C31.1491 30.2147 31.2572 30.2456 31.3508 30.304C31.4444 30.3623 31.5197 30.4458 31.5683 30.5448L31.6037 30.6343L33.0184 35.353C33.21 35.9877 33.8751 36.3521 34.4852 36.1783C34.7849 36.0765 35.0372 35.8688 35.1946 35.5942C35.352 35.3196 35.4037 34.9969 35.3399 34.6869L35.3075 34.5592L33.5361 28.6546C33.4672 28.4256 33.3319 28.2221 33.1475 28.0698C32.963 27.9175 32.7376 27.8233 32.4997 27.7989L32.3778 27.792H28.1768C28.0289 27.7918 27.8864 27.7361 27.7777 27.6357C27.669 27.5354 27.602 27.3978 27.59 27.2503C27.578 27.1029 27.6218 26.9563 27.7129 26.8397C27.804 26.7231 27.9356 26.645 28.0816 26.6209L28.1768 26.6131H32.3788C32.8625 26.6136 33.3345 26.7609 33.7327 27.0354C34.1309 27.3099 34.4364 27.6988 34.609 28.1506L34.665 28.3157L36.4354 34.2163C36.6258 34.8374 36.5652 35.5084 36.2665 36.0853C35.9679 36.6622 35.455 37.0991 34.8379 37.3022C34.2605 37.4678 33.6419 37.41 33.1052 37.1402C32.5686 36.8704 32.1531 36.4084 31.9416 35.8462L31.8896 35.6919L30.5986 31.3927H25.7757C25.0133 31.3925 24.2797 31.1012 23.725 30.5782C23.1702 30.0552 22.8361 29.34 22.791 28.579L22.7861 28.4031V23.5223L20.9371 24.7945L20.4862 30.0232C20.4393 30.5631 20.1906 31.0656 19.7898 31.4305C19.389 31.7954 18.8655 31.9959 18.3235 31.992C17.7815 31.9882 17.2608 31.7803 16.8652 31.4098C16.4697 31.0392 16.2282 30.5333 16.1889 29.9927L16.184 29.8385V23.6018C16.184 22.9357 16.4611 22.303 16.9493 21.8491L17.0869 21.7303L22.4825 17.5332C22.8521 17.2377 23.301 17.0585 23.7725 17.0184L23.9759 17.0105H29.9777C30.3608 17.0105 30.7391 17.1029 31.078 17.2787L31.2441 17.3731L34.5943 19.4657L38.0427 17.0459C38.4596 16.7542 38.9656 16.618 39.4726 16.6611C39.9796 16.7042 40.4554 16.9238 40.8171 17.2817ZM26.9763 7.52197C27.5265 7.52197 28.0714 7.63035 28.5798 7.84093C29.0882 8.05151 29.5501 8.36015 29.9392 8.74925C30.3283 9.13834 30.6369 9.60026 30.8475 10.1086C31.0581 10.617 31.1665 11.1619 31.1665 11.7121C31.1665 12.2624 31.0581 12.8073 30.8475 13.3157C30.6369 13.824 30.3283 14.286 29.9392 14.675C29.5501 15.0641 29.0882 15.3728 28.5798 15.5834C28.0714 15.7939 27.5265 15.9023 26.9763 15.9023C25.865 15.9023 24.7992 15.4609 24.0134 14.675C23.2276 13.8892 22.7861 12.8235 22.7861 11.7121C22.7861 10.6008 23.2276 9.53506 24.0134 8.74925C24.7992 7.96344 25.865 7.52197 26.9763 7.52197ZM26.9763 8.70092C26.1777 8.70092 25.4117 9.01817 24.847 9.58289C24.2823 10.1476 23.9651 10.9135 23.9651 11.7121C23.9651 12.5108 24.2823 13.2767 24.847 13.8414C25.4117 14.4061 26.1777 14.7234 26.9763 14.7234C27.7749 14.7234 28.5408 14.4061 29.1055 13.8414C29.6703 13.2767 29.9875 12.5108 29.9875 11.7121C29.9875 10.9135 29.6703 10.1476 29.1055 9.58289C28.5408 9.01817 27.7749 8.70092 26.9763 8.70092Z" fill="#101928"/>
</g>
</g>
<defs>
<clipPath id="clip0_2_329">
<rect width="56" height="55.02" fill="white"/>
</clipPath>
<clipPath id="clip1_2_329">
<rect width="56" height="55.02" fill="white"/>
</clipPath>
</defs>
</svg>
