<svg width="21" height="18" viewBox="0 0 21 18" fill="none" xmlns="http://www.w3.org/2000/svg">
<path fill-rule="evenodd" clip-rule="evenodd" d="M8.24152 16.9531C8.69155 17.2561 9.06757 17.4931 9.33259 17.6531C9.46459 17.7331 9.68161 17.8601 9.75461 17.9031C9.86745 17.9663 9.99455 17.9996 10.1239 18C10.2532 18.0003 10.3805 17.9677 10.4937 17.9051C10.5697 17.8601 10.7887 17.7331 10.9187 17.6541C12.4796 16.6998 13.951 15.6063 15.315 14.3869C17.6801 12.2578 20.2513 9.15857 20.2513 5.62535C20.2513 4.44469 19.8798 3.29396 19.1894 2.33615C18.4991 1.37835 17.5249 0.662033 16.4048 0.288675C15.2847 -0.0846838 14.0756 -0.0961581 12.9486 0.255877C11.8217 0.607913 10.834 1.30561 10.1256 2.25014C9.41724 1.30561 8.42961 0.607913 7.30265 0.255877C6.17569 -0.0961581 4.96654 -0.0846838 3.84646 0.288675C2.72638 0.662033 1.75218 1.37835 1.06183 2.33615C0.371484 3.29396 0 4.44469 0 5.62535C0 9.15857 2.57116 12.2578 4.93631 14.3859C5.97765 15.3167 7.08201 16.1744 8.24152 16.9531ZM7.56547 1.98412C6.93688 1.64936 6.23234 1.48303 5.5204 1.50132C4.80846 1.51961 4.11338 1.7219 3.50281 2.08851C2.89224 2.45511 2.38698 2.97354 2.0362 3.59333C1.68542 4.21313 1.50107 4.91318 1.50109 5.62535C1.50109 8.46753 3.61723 11.1807 5.94137 13.2718C7.23952 14.432 8.63998 15.4723 10.1256 16.38C11.612 15.4724 13.0131 14.4321 14.3119 13.2718C16.635 11.1817 18.7512 8.46753 18.7512 5.62535C18.7515 4.67152 18.4212 3.74707 17.8166 3.00933C17.212 2.27158 16.3704 1.76615 15.4351 1.57904C14.4998 1.39194 13.5286 1.53472 12.6867 1.98309C11.8449 2.43147 11.1844 3.15772 10.8177 4.03825C10.7606 4.17475 10.6645 4.29134 10.5414 4.37333C10.4182 4.45533 10.2736 4.49908 10.1256 4.49908C9.97769 4.49908 9.83306 4.45533 9.70992 4.37333C9.58678 4.29134 9.49064 4.17475 9.43359 4.03825C9.06644 3.15794 8.40557 2.43205 7.56347 1.98412H7.56547Z" fill="#0D1619"/>
</svg>
