<svg width="56" height="56" viewBox="0 0 56 56" fill="none" xmlns="http://www.w3.org/2000/svg">
<g clip-path="url(#clip0_2_335)">
<g clip-path="url(#clip1_2_335)">
<path fill-rule="evenodd" clip-rule="evenodd" d="M23.875 6.3999L23.778 6.4079C23.6376 6.43091 23.5099 6.50307 23.4178 6.61151C23.3256 6.71995 23.275 6.85761 23.275 6.9999V20.2749H10C9.84087 20.2749 9.68826 20.3381 9.57574 20.4506C9.46321 20.5632 9.4 20.7158 9.4 20.8749V29.8749L9.408 29.9719C9.431 30.1123 9.50317 30.24 9.61161 30.3321C9.72005 30.4243 9.8577 30.4749 10 30.4749H23.275V43.7499C23.275 43.909 23.3382 44.0616 23.4507 44.1742C23.5633 44.2867 23.7159 44.3499 23.875 44.3499H32.875L32.972 44.3419C33.1124 44.3189 33.2401 44.2467 33.3322 44.1383C33.4244 44.0299 33.475 43.8922 33.475 43.7499V30.4749H46.75C46.9091 30.4749 47.0617 30.4117 47.1743 30.2992C47.2868 30.1866 47.35 30.034 47.35 29.8749V20.8749L47.342 20.7779C47.319 20.6375 47.2468 20.5098 47.1384 20.4177C47.03 20.3255 46.8923 20.2749 46.75 20.2749L33.475 20.2739V6.9999C33.475 6.84077 33.4118 6.68816 33.2993 6.57564C33.1867 6.46312 33.0341 6.3999 32.875 6.3999H23.875ZM32.275 7.5999V20.8739L32.283 20.9709C32.306 21.1113 32.3782 21.239 32.4866 21.3311C32.595 21.4233 32.7327 21.4739 32.875 21.4739H46.15V29.2749H32.875L32.778 29.2829C32.6376 29.3059 32.5099 29.3781 32.4178 29.4865C32.3256 29.595 32.275 29.7326 32.275 29.8749V43.1499H24.475V29.8749L24.467 29.7779C24.444 29.6375 24.3718 29.5098 24.2634 29.4177C24.155 29.3255 24.0173 29.2749 23.875 29.2749H10.6V21.4749H23.875L23.972 21.4669C24.1124 21.4439 24.2401 21.3717 24.3322 21.2633C24.4244 21.1549 24.475 21.0172 24.475 20.8749V7.5999H32.275Z" fill="#101928"/>
</g>
</g>
<defs>
<clipPath id="clip0_2_335">
<rect width="56" height="56" fill="white"/>
</clipPath>
<clipPath id="clip1_2_335">
<rect width="56" height="56" fill="white"/>
</clipPath>
</defs>
</svg>
