<svg width="130" height="40" viewBox="0 0 130 40" fill="none" xmlns="http://www.w3.org/2000/svg">
<g clip-path="url(#clip0_2_390)">
<path fill-rule="evenodd" clip-rule="evenodd" d="M4 0H126C127.061 0 128.078 0.421427 128.828 1.17157C129.579 1.92172 130 2.93913 130 4V36C130 37.0609 129.579 38.0783 128.828 38.8284C128.078 39.5786 127.061 40 126 40H4C2.93913 40 1.92172 39.5786 1.17157 38.8284C0.421427 38.0783 0 37.0609 0 36V4C0 2.93913 0.421427 1.92172 1.17157 1.17157C1.92172 0.421427 2.93913 0 4 0Z" fill="white"/>
<path fill-rule="evenodd" clip-rule="evenodd" d="M7.463 7.39822C7.172 7.70522 7 8.18322 7 8.80322V30.9182C7 31.5382 7.172 32.0152 7.463 32.3232L7.536 32.3962L19.926 20.0062V19.7142L7.536 7.32422L7.463 7.39822Z" fill="#00D5FF"/>
<path fill-rule="evenodd" clip-rule="evenodd" d="M19.926 19.714V20.007L24.055 24.137L24.15 24.086L29.042 21.304C30.44 20.511 30.44 19.211 29.042 18.417L24.15 15.637L24.056 15.584L19.926 19.714Z" fill="#FFCD00"/>
<path fill-rule="evenodd" clip-rule="evenodd" d="M7.46301 32.3228C7.70301 32.5778 8.02601 32.7158 8.40101 32.7208H8.44301C8.77601 32.7158 9.14801 32.6078 9.54101 32.3848L24.15 24.0848L19.926 19.8608L7.46301 32.3228Z" fill="#F83547"/>
<path fill-rule="evenodd" clip-rule="evenodd" d="M7.46301 7.398L19.926 19.86L24.15 15.635L9.54101 7.335C9.13901 7.108 8.75801 7 8.42001 7C8.03701 7 7.70701 7.139 7.46301 7.398Z" fill="#00F076"/>
<path fill-rule="evenodd" clip-rule="evenodd" d="M24.056 23.9908L9.541 32.2398C8.729 32.6998 8.003 32.6698 7.537 32.2498L7.463 32.3248L7.536 32.3968H7.537C8.003 32.8168 8.729 32.8468 9.541 32.3868L24.149 24.0848L24.056 23.9918V23.9908ZM7.463 32.1778C7.172 31.8698 7 31.3918 7 30.7728V30.9188C7 31.5378 7.172 32.0168 7.463 32.3248L7.537 32.2498L7.463 32.1778ZM29.042 21.1578L24.056 23.9908L24.149 24.0848L29.042 21.3038C29.742 20.9068 30.09 20.3838 30.09 19.8608C30.031 20.3338 29.676 20.7978 29.042 21.1578Z" fill="black"/>
<path fill-rule="evenodd" clip-rule="evenodd" d="M9.541 7.48198L29.042 18.562C29.676 18.922 30.032 19.386 30.09 19.86C30.091 19.338 29.741 18.814 29.042 18.417L9.542 7.33698C8.142 6.54298 7 7.20298 7 8.80298V8.94798C7 7.34798 8.143 6.68798 9.541 7.48198Z" fill="white"/>
<path fill-rule="evenodd" clip-rule="evenodd" d="M43.377 10.4781C43.377 11.3151 43.129 11.9821 42.632 12.4801C42.067 13.0721 41.332 13.3681 40.428 13.3681C39.562 13.3681 38.825 13.0681 38.22 12.4681C37.613 11.8681 37.31 11.1221 37.31 10.2351C37.31 9.3451 37.613 8.6021 38.22 8.0011C38.825 7.4001 39.562 7.1001 40.428 7.1001C40.857 7.1001 41.268 7.1831 41.658 7.3501C42.05 7.5181 42.363 7.7421 42.598 8.0201L42.07 8.5491C41.673 8.0741 41.126 7.8361 40.428 7.8361C39.796 7.8361 39.25 8.0591 38.788 8.5031C38.328 8.9471 38.098 9.5231 38.098 10.2331C38.098 10.9431 38.328 11.5201 38.788 11.9631C39.0031 12.1779 39.259 12.3475 39.5407 12.4619C39.8223 12.5763 40.124 12.6331 40.428 12.6291C41.098 12.6291 41.656 12.4061 42.104 11.9591C42.394 11.6691 42.562 11.2651 42.606 10.7441H40.428V10.0241H43.335C43.363 10.1811 43.377 10.3321 43.377 10.4781Z" fill="#101928"/>
<path fill-rule="evenodd" clip-rule="evenodd" d="M43.377 10.4781C43.377 11.3151 43.129 11.9821 42.632 12.4801C42.067 13.0721 41.332 13.3681 40.428 13.3681C39.562 13.3681 38.825 13.0681 38.22 12.4681C37.613 11.8681 37.31 11.1221 37.31 10.2351C37.31 9.3451 37.613 8.6021 38.22 8.0011C38.825 7.4001 39.562 7.1001 40.428 7.1001C40.857 7.1001 41.268 7.1831 41.658 7.3501C42.05 7.5181 42.363 7.7421 42.598 8.0201L42.07 8.5491C41.673 8.0741 41.126 7.8361 40.428 7.8361C39.796 7.8361 39.25 8.0591 38.788 8.5031C38.328 8.9471 38.098 9.5231 38.098 10.2331C38.098 10.9431 38.328 11.5201 38.788 11.9631C39.0031 12.1779 39.259 12.3475 39.5407 12.4619C39.8223 12.5763 40.124 12.6331 40.428 12.6291C41.098 12.6291 41.656 12.4061 42.104 11.9591C42.394 11.6691 42.562 11.2651 42.606 10.7441H40.428V10.0241H43.335C43.363 10.1811 43.377 10.3321 43.377 10.4781Z" stroke="#101928" stroke-width="0.2"/>
<path fill-rule="evenodd" clip-rule="evenodd" d="M47.986 7.97186H45.254V9.87386H47.717V10.5939H45.254V12.4969H47.986V13.2349H44.483V7.23486H47.986V7.97186Z" fill="#101928"/>
<path fill-rule="evenodd" clip-rule="evenodd" d="M47.986 7.97186H45.254V9.87386H47.717V10.5939H45.254V12.4969H47.986V13.2349H44.483V7.23486H47.986V7.97186Z" stroke="#101928" stroke-width="0.2"/>
<path fill-rule="evenodd" clip-rule="evenodd" d="M51.237 13.2339H50.467V7.97089H48.79V7.23389H52.913V7.97089H51.237V13.2339Z" fill="#101928"/>
<path fill-rule="evenodd" clip-rule="evenodd" d="M51.237 13.2339H50.467V7.97089H48.79V7.23389H52.913V7.97089H51.237V13.2339Z" stroke="#101928" stroke-width="0.2"/>
<mask id="mask0_2_390" style="mask-type:luminance" maskUnits="userSpaceOnUse" x="37" y="7" width="85" height="28">
<path d="M37 34.31H121.776V7H37V34.31Z" fill="white"/>
</mask>
<g mask="url(#mask0_2_390)">
<path fill-rule="evenodd" clip-rule="evenodd" d="M55.896 13.2339H56.667V7.23389H55.896V13.2339Z" fill="#101928"/>
</g>
<mask id="mask1_2_390" style="mask-type:luminance" maskUnits="userSpaceOnUse" x="37" y="7" width="85" height="28">
<path d="M37 34.31H121.776V7H37V34.31Z" fill="white"/>
</mask>
<g mask="url(#mask1_2_390)">
<path fill-rule="evenodd" clip-rule="evenodd" d="M55.896 13.2339H56.667V7.23389H55.896V13.2339Z" stroke="#101928" stroke-width="0.2"/>
</g>
<mask id="mask2_2_390" style="mask-type:luminance" maskUnits="userSpaceOnUse" x="37" y="7" width="85" height="28">
<path d="M37 34.31H121.776V7H37V34.31Z" fill="white"/>
</mask>
<g mask="url(#mask2_2_390)">
<path fill-rule="evenodd" clip-rule="evenodd" d="M60.087 13.2339H59.316V7.97089H57.64V7.23389H61.763V7.97089H60.087V13.2339Z" fill="#101928"/>
</g>
<mask id="mask3_2_390" style="mask-type:luminance" maskUnits="userSpaceOnUse" x="37" y="7" width="85" height="28">
<path d="M37 34.31H121.776V7H37V34.31Z" fill="white"/>
</mask>
<g mask="url(#mask3_2_390)">
<path fill-rule="evenodd" clip-rule="evenodd" d="M60.087 13.2339H59.316V7.97089H57.64V7.23389H61.763V7.97089H60.087V13.2339Z" stroke="#101928" stroke-width="0.2"/>
</g>
<mask id="mask4_2_390" style="mask-type:luminance" maskUnits="userSpaceOnUse" x="37" y="7" width="85" height="28">
<path d="M37 34.31H121.776V7H37V34.31Z" fill="white"/>
</mask>
<g mask="url(#mask4_2_390)">
<path fill-rule="evenodd" clip-rule="evenodd" d="M65.738 11.9571C65.9486 12.1756 66.2021 12.3482 66.4826 12.4641C66.7631 12.5799 67.0646 12.6364 67.368 12.6301C68.01 12.6301 68.554 12.4071 68.998 11.9571C69.442 11.5071 69.665 10.9331 69.665 10.2351C69.665 9.5371 69.442 8.9621 68.998 8.5131C68.7875 8.29434 68.534 8.12146 68.2535 8.0053C67.973 7.88915 67.6715 7.83222 67.368 7.8381C66.725 7.8381 66.182 8.0631 65.738 8.5121C65.295 8.9621 65.072 9.5371 65.072 10.2351C65.072 10.9331 65.295 11.5071 65.738 11.9571ZM69.568 12.4591C68.978 13.0661 68.245 13.3691 67.368 13.3691C66.491 13.3691 65.758 13.0661 65.168 12.4591C64.578 11.8531 64.285 11.1121 64.285 10.2351C64.285 9.3581 64.579 8.6151 65.169 8.0101C65.758 7.4031 66.49 7.1001 67.368 7.1001C68.24 7.1001 68.971 7.4041 69.564 8.0141C70.156 8.6231 70.452 9.3621 70.452 10.2341C70.452 11.1121 70.157 11.8541 69.568 12.4591Z" fill="#101928"/>
</g>
<mask id="mask5_2_390" style="mask-type:luminance" maskUnits="userSpaceOnUse" x="37" y="7" width="85" height="28">
<path d="M37 34.31H121.776V7H37V34.31Z" fill="white"/>
</mask>
<g mask="url(#mask5_2_390)">
<path fill-rule="evenodd" clip-rule="evenodd" d="M65.738 11.9571C65.9486 12.1756 66.2021 12.3482 66.4826 12.4641C66.7631 12.5799 67.0646 12.6364 67.368 12.6301C68.01 12.6301 68.554 12.4071 68.998 11.9571C69.442 11.5071 69.665 10.9331 69.665 10.2351C69.665 9.5371 69.442 8.9621 68.998 8.5131C68.7875 8.29434 68.534 8.12146 68.2535 8.0053C67.973 7.88915 67.6715 7.83222 67.368 7.8381C66.725 7.8381 66.182 8.0631 65.738 8.5121C65.295 8.9621 65.072 9.5371 65.072 10.2351C65.072 10.9331 65.295 11.5071 65.738 11.9571ZM69.568 12.4591C68.978 13.0661 68.245 13.3691 67.368 13.3691C66.491 13.3691 65.758 13.0661 65.168 12.4591C64.578 11.8531 64.285 11.1121 64.285 10.2351C64.285 9.3581 64.579 8.6151 65.169 8.0101C65.758 7.4031 66.49 7.1001 67.368 7.1001C68.24 7.1001 68.971 7.4041 69.564 8.0141C70.156 8.6231 70.452 9.3621 70.452 10.2341C70.452 11.1121 70.157 11.8541 69.568 12.4591Z" stroke="#101928" stroke-width="0.2"/>
</g>
<mask id="mask6_2_390" style="mask-type:luminance" maskUnits="userSpaceOnUse" x="37" y="7" width="85" height="28">
<path d="M37 34.31H121.776V7H37V34.31Z" fill="white"/>
</mask>
<g mask="url(#mask6_2_390)">
<path fill-rule="evenodd" clip-rule="evenodd" d="M71.533 13.2339V7.23389H72.471L75.388 11.9009H75.422L75.388 10.7449V7.23489H76.16V13.2349H75.355L72.305 8.33989H72.27L72.304 9.49689V13.2339H71.533Z" fill="#101928"/>
</g>
<mask id="mask7_2_390" style="mask-type:luminance" maskUnits="userSpaceOnUse" x="37" y="7" width="85" height="28">
<path d="M37 34.31H121.776V7H37V34.31Z" fill="white"/>
</mask>
<g mask="url(#mask7_2_390)">
<path fill-rule="evenodd" clip-rule="evenodd" d="M71.533 13.2339V7.23389H72.471L75.388 11.9009H75.422L75.388 10.7449V7.23489H76.16V13.2349H75.355L72.305 8.33989H72.27L72.304 9.49689V13.2339H71.533Z" stroke="#101928" stroke-width="0.2"/>
</g>
<mask id="mask8_2_390" style="mask-type:luminance" maskUnits="userSpaceOnUse" x="37" y="7" width="85" height="28">
<path d="M37 34.31H121.776V7H37V34.31Z" fill="white"/>
</mask>
<g mask="url(#mask8_2_390)">
<path fill-rule="evenodd" clip-rule="evenodd" d="M102.895 30.2342H104.76V17.7342H102.895V30.2342ZM119.701 22.2362L117.563 27.6562H117.498L115.279 22.2362H113.269L116.598 29.8112L114.7 34.0252H116.646L121.777 22.2362H119.701ZM109.118 28.8142C108.508 28.8142 107.656 28.5082 107.656 27.7522C107.656 26.7882 108.717 26.4172 109.634 26.4172C110.453 26.4172 110.84 26.5952 111.338 26.8352C111.27 27.378 111.008 27.8779 110.6 28.242C110.191 28.6061 109.665 28.8098 109.118 28.8152V28.8142ZM109.344 21.9622C107.993 21.9622 106.594 22.5582 106.015 23.8762L107.671 24.5682C108.026 23.8762 108.685 23.6512 109.376 23.6512C110.341 23.6512 111.323 24.2312 111.338 25.2592V25.3892C111 25.1952 110.277 24.9062 109.392 24.9062C107.607 24.9062 105.789 25.8872 105.789 27.7202C105.789 29.3932 107.253 30.4712 108.894 30.4712C110.148 30.4712 110.84 29.9082 111.274 29.2482H111.338V30.2132H113.14V25.4202C113.14 23.2012 111.483 21.9622 109.344 21.9622ZM97.813 23.7582H95.158V19.4732H97.813C99.207 19.4732 99.999 20.6272 99.999 21.6152C99.999 22.5852 99.207 23.7582 97.813 23.7582ZM97.764 17.7322H93.293V30.2342H95.158V25.4982H97.764C99.832 25.4982 101.866 24.0012 101.866 21.6152C101.866 19.2302 99.832 17.7322 97.764 17.7322ZM73.383 28.8162C72.094 28.8162 71.015 27.7372 71.015 26.2562C71.015 24.7562 72.094 23.6612 73.383 23.6612C74.656 23.6612 75.655 24.7562 75.655 26.2552C75.655 27.7372 74.656 28.8162 73.383 28.8162ZM75.526 22.9362H75.461C75.042 22.4372 74.237 21.9862 73.222 21.9862C71.095 21.9862 69.146 23.8562 69.146 26.2562C69.146 28.6392 71.095 30.4922 73.222 30.4922C74.237 30.4922 75.042 30.0422 75.461 29.5252H75.526V30.1372C75.526 31.7652 74.656 32.6342 73.254 32.6342C72.111 32.6342 71.402 31.8142 71.112 31.1202L69.485 31.7972C69.951 32.9242 71.192 34.3102 73.254 34.3102C75.446 34.3102 77.298 33.0212 77.298 29.8802V22.2432H75.526V22.9362ZM78.587 30.2342H80.455V17.7342H78.587V30.2342ZM83.21 26.1102C83.162 24.4662 84.484 23.6302 85.434 23.6302C86.175 23.6302 86.803 24.0002 87.013 24.5312L83.21 26.1102ZM89.01 24.6922C88.656 23.7422 87.576 21.9852 85.369 21.9852C83.178 21.9852 81.358 23.7092 81.358 26.2392C81.358 28.6232 83.162 30.4922 85.578 30.4922C87.528 30.4922 88.656 29.3002 89.123 28.6072L87.673 27.6402C87.19 28.3502 86.53 28.8162 85.578 28.8162C84.628 28.8162 83.951 28.3812 83.517 27.5272L89.203 25.1752L89.01 24.6922ZM43.702 23.2922V25.0952H48.02C47.891 26.1102 47.553 26.8512 47.037 27.3662C46.408 27.9962 45.426 28.6882 43.702 28.6882C41.044 28.6882 38.966 26.5452 38.966 23.8882C38.966 21.2292 41.044 19.0852 43.702 19.0852C45.136 19.0852 46.183 19.6492 46.956 20.3752L48.229 19.1022C47.15 18.0722 45.716 17.2822 43.702 17.2822C40.061 17.2812 37 20.2452 37 23.8862C37 27.5262 40.061 30.4912 43.702 30.4912C45.667 30.4912 47.15 29.8462 48.309 28.6382C49.502 27.4462 49.872 25.7712 49.872 24.4182C49.872 23.9992 49.84 23.6122 49.776 23.2902H43.702V23.2922ZM54.781 28.8162C53.492 28.8162 52.38 27.7532 52.38 26.2392C52.38 24.7092 53.492 23.6612 54.781 23.6612C56.07 23.6612 57.181 24.7082 57.181 26.2392C57.181 27.7532 56.07 28.8162 54.781 28.8162ZM54.781 21.9862C52.429 21.9862 50.512 23.7742 50.512 26.2392C50.512 28.6892 52.429 30.4922 54.781 30.4922C57.133 30.4922 59.05 28.6882 59.05 26.2392C59.05 23.7742 57.133 21.9852 54.781 21.9852V21.9862ZM64.094 28.8162C62.805 28.8162 61.694 27.7532 61.694 26.2392C61.694 24.7092 62.805 23.6612 64.094 23.6612C65.383 23.6612 66.494 24.7082 66.494 26.2392C66.494 27.7532 65.383 28.8162 64.094 28.8162ZM64.094 21.9862C61.742 21.9862 59.825 23.7742 59.825 26.2392C59.825 28.6892 61.742 30.4922 64.094 30.4922C66.447 30.4922 68.364 28.6882 68.364 26.2392C68.364 23.7742 66.447 21.9852 64.094 21.9852V21.9862Z" fill="#101928"/>
</g>
</g>
<defs>
<clipPath id="clip0_2_390">
<rect width="130" height="40" fill="white"/>
</clipPath>
</defs>
</svg>
