<svg width="16" height="16" viewBox="0 0 16 16" fill="none" xmlns="http://www.w3.org/2000/svg">
<g clip-path="url(#clip0_2_585)">
<path fill-rule="evenodd" clip-rule="evenodd" d="M15 15C15.125 14.9998 15.2455 15.0463 15.3378 15.1305C15.4301 15.2147 15.4876 15.3304 15.4989 15.4548C15.5102 15.5793 15.4745 15.7034 15.3988 15.8028C15.3231 15.9023 15.213 15.9697 15.09 15.992L15 16H1.00001C0.87506 16.0002 0.754556 15.9537 0.662223 15.8695C0.56989 15.7853 0.51242 15.6696 0.501131 15.5452C0.489841 15.4207 0.52555 15.2966 0.601226 15.1972C0.676901 15.0977 0.787059 15.0303 0.910006 15.008L1.00001 15H15ZM8.00001 2.78103e-08C8.11703 -3.89861e-05 8.23036 0.0409714 8.32027 0.115889C8.41017 0.190807 8.47094 0.294886 8.49201 0.41L8.50001 0.5V10.293L12.646 6.146C12.7289 6.06332 12.8381 6.01234 12.9547 6.00192C13.0713 5.99151 13.1878 6.02232 13.284 6.089L13.354 6.146C13.4367 6.22886 13.4877 6.33809 13.4981 6.45467C13.5085 6.57126 13.4777 6.6878 13.411 6.784L13.354 6.854L8.35401 11.854L8.34101 11.865C8.32857 11.8767 8.31556 11.8877 8.30201 11.898L8.35401 11.854C8.25993 11.9475 8.13266 12 8.00001 12H7.98001C7.9626 11.9992 7.94524 11.9976 7.92801 11.995L8.00001 12C7.89852 11.9997 7.7995 11.9687 7.71601 11.911L7.69801 11.898C7.68411 11.8877 7.67076 11.8767 7.65801 11.865L7.64601 11.854L2.64601 6.854C2.55742 6.76581 2.50508 6.64764 2.4993 6.52278C2.49352 6.39791 2.53472 6.27541 2.61478 6.17942C2.69484 6.08342 2.80795 6.0209 2.93182 6.00416C3.0557 5.98742 3.18134 6.01769 3.28401 6.089L3.35401 6.146L7.50001 10.293V0.5C7.50001 0.367392 7.55268 0.240215 7.64645 0.146447C7.74022 0.0526785 7.8674 2.78103e-08 8.00001 2.78103e-08Z" fill="white"/>
</g>
<defs>
<clipPath id="clip0_2_585">
<rect width="16" height="16" fill="white"/>
</clipPath>
</defs>
</svg>
