<svg width="56" height="58" viewBox="0 0 56 58" fill="none" xmlns="http://www.w3.org/2000/svg">
<g clip-path="url(#clip0_2_298)">
<g clip-path="url(#clip1_2_298)">
<path fill-rule="evenodd" clip-rule="evenodd" d="M37.6727 14.7952C38.0484 15.1363 38.08 15.569 37.9374 16.4508L37.9038 16.6463L38.1502 16.462C38.3052 16.3453 38.4678 16.2391 38.6369 16.1443C39.0849 15.903 39.5207 15.8388 39.9555 16.0323C40.0298 16.0649 40.1021 16.1056 40.1724 16.1524L40.8953 16.6412L41.3097 16.9314L41.6762 17.1961L41.9959 17.4384L42.1415 17.5524L42.4032 17.7693L42.5203 17.8742L42.7321 18.0748C42.897 18.2387 43.0324 18.3965 43.1495 18.5584L43.2177 18.6551C43.6983 19.3618 43.8286 19.8749 43.5884 20.9664L43.5059 21.3126L43.4 21.6975L43.2727 22.1261L43.0385 22.8633L42.8023 23.5689L42.0845 25.534L41.8737 26.1408L41.6854 26.7161C41.5428 27.1712 41.4359 27.5602 41.3697 27.8799C41.3352 28.0359 41.3107 28.1941 41.2964 28.3533V28.3696C41.4634 28.2708 41.6222 28.1965 41.7852 28.1415C42.4979 27.9043 43.1699 28.1161 43.7686 28.7891C43.9254 28.9652 43.9875 29.5079 43.9773 30.2634L43.9651 30.6585L43.9427 31.0841L43.9091 31.5372L43.8653 32.0137L43.7828 32.761L43.7156 33.2762L43.6372 33.826L43.5507 34.3789L43.5049 34.6416L43.4112 35.1405C43.0406 36.9773 42.5437 37.9945 41.6935 38.0301L41.5805 38.0291C41.4383 38.0238 41.296 38.0249 41.1539 38.0322L40.8046 38.0525C40.7105 38.0589 40.6165 38.067 40.5226 38.0769L40.5206 41.9165C41.9409 42.0845 41.8035 43.5151 40.5185 44.3683C40.5192 44.3771 40.5195 44.3859 40.5196 44.3948C40.5196 48.4431 36.7299 51.7491 32.0931 51.8723L31.8253 51.8754H25.5889C20.8218 51.8754 16.8865 48.552 16.8865 44.4304L16.8906 44.3652C15.6118 43.512 15.4753 42.0886 16.8855 41.9175L16.8865 38.0759C16.853 38.0723 16.8194 38.0689 16.7857 38.0657L16.4457 38.0413C16.2846 38.0314 16.1234 38.0263 15.962 38.026L15.8449 38.0291C15.0406 38.0749 14.5386 37.297 14.167 35.8166L14.0641 35.3747L13.9674 34.8961L13.8758 34.3789L13.7882 33.826L13.7098 33.2762L13.6436 32.761L13.5856 32.2591L13.5164 31.5372L13.4828 31.0841L13.4604 30.6575L13.4492 30.2634C13.439 29.5079 13.5001 28.9652 13.6569 28.7881C14.2556 28.1161 14.9265 27.9043 15.6393 28.1415C15.8103 28.1986 15.9773 28.278 16.1534 28.3839L16.1239 28.2841L15.9091 27.494L15.6525 26.5155L15.4896 25.9504L15.3338 25.4546C15.2931 25.3314 15.2524 25.2173 15.2147 25.1124L15.1068 24.8324C15.061 24.7112 15.0037 24.5946 14.9357 24.4842L14.0641 23.2278L13.7424 22.7492L13.5642 22.4754L13.4115 22.231L13.2832 22.0131L13.1742 21.8156L13.0836 21.6333L13.0083 21.4633L12.9462 21.2994L12.8932 21.1364L12.8484 20.9715L12.8077 20.7984C12.6682 20.161 12.7059 19.5908 12.9553 18.6134L13.0857 18.1318C13.1345 17.9607 13.1885 17.7775 13.2486 17.582C15.3308 10.7031 31.0576 8.79506 37.6727 14.7952ZM30.6126 42.9021L30.018 42.9337L29.7126 42.9459L29.0956 42.9601L28.4724 42.9622C28.1619 42.9601 27.8513 42.954 27.5479 42.9439L26.9482 42.9164L26.374 42.8777C26.2819 42.8705 26.19 42.8627 26.098 42.8543L25.5737 42.7983C24.8854 42.7137 24.3233 42.5967 23.9812 42.448L23.6218 42.6262L23.0007 42.9245L22.3796 43.2096C22.2778 43.2564 22.174 43.3023 22.0721 43.3471L21.4643 43.6087C21.3645 43.6515 21.2657 43.6922 21.167 43.7319L20.5846 43.962C19.6122 44.3327 18.7457 44.5923 18.1134 44.6646C18.259 47.8841 21.4083 50.5354 25.3262 50.6495L25.5889 50.6535H31.8253C35.839 50.6535 39.1206 47.9472 39.2906 44.6615C38.699 44.5943 37.9018 44.3622 37.0058 44.0282L36.456 43.8164L36.174 43.7024L35.5977 43.4601L35.0102 43.1994L34.4166 42.9265L33.822 42.6415L33.4096 42.4368C32.8618 42.6689 31.8192 42.8237 30.6126 42.9021ZM30.521 37.744L30.3133 37.7511L28.9897 37.8407C28.9017 37.8869 28.8038 37.911 28.7044 37.9108C28.6051 37.9106 28.5073 37.8862 28.4195 37.8397L27.0062 37.746L26.8942 37.744C24.025 37.9201 22.9468 38.4404 21.7993 40.2202L21.6425 40.4595C20.3901 42.3258 19.2151 43.122 17.1828 43.122L17.247 43.121L17.3437 43.2035C17.4017 43.2483 17.471 43.2972 17.5514 43.346L17.6817 43.4214L17.8294 43.4967C17.9566 43.5578 18.2092 43.5436 18.5665 43.4591L18.8526 43.3827L19.1764 43.2809L19.3516 43.2198L19.7273 43.0823L19.9268 43.0049L20.3484 42.8319L20.7994 42.6364L21.2759 42.4205L21.7779 42.1823L22.3022 41.9247L22.847 41.6487L23.41 41.3535C23.8051 41.1427 24.2246 40.9116 24.6441 40.6743L25.0646 40.4361L26.0023 39.8924L27.0042 39.2957L27.8595 38.7703L28.171 38.5667L28.2087 38.5361C28.2652 38.4567 28.3399 38.3919 28.4265 38.3473C28.5131 38.3026 28.6091 38.2792 28.7066 38.2792C28.8041 38.2792 28.9001 38.3026 28.9867 38.3473C29.0734 38.3919 29.148 38.4567 29.2045 38.5361C29.2082 38.54 29.2123 38.5434 29.2167 38.5463L29.3318 38.6278L29.8684 38.9668L30.8865 39.5828L32.1572 40.3261L33.1876 40.9085C33.4656 41.0633 33.7405 41.2129 34.0032 41.3524L34.5662 41.6477L35.111 41.9247L35.6353 42.1823L36.1373 42.4205L36.6148 42.6364L36.8429 42.7372L37.2797 42.9204L37.4874 43.0049L37.8784 43.1546C38.0036 43.2004 38.1228 43.2422 38.2368 43.2809L38.5606 43.3827L38.8477 43.458C39.2041 43.5436 39.4576 43.5588 39.5849 43.4967C39.8455 43.3705 40.0329 43.2422 40.1489 43.1383L40.1662 43.12L39.982 43.118C38.1004 43.0538 36.9722 42.2474 35.7708 40.4595L35.4958 40.041C34.3901 38.4048 33.2894 37.913 30.521 37.744ZM18.1073 36.1281V41.8157C19.1774 41.5948 19.8932 40.9228 20.7729 39.5584L20.6915 39.6796L20.5724 39.537L20.3168 39.2153L20.0317 38.8436L19.5674 38.2134L19.0766 37.5302L18.5859 36.8276L18.1073 36.1281ZM39.3038 35.7911L39.2173 35.9235L38.6003 36.8276L38.1085 37.5302L37.6188 38.2134L37.1534 38.8436L36.8684 39.2153L36.6199 39.5279L36.6403 39.5584L36.7838 39.7763C37.5984 40.992 38.2908 41.6039 39.2988 41.8137L39.3038 35.7911ZM28.7056 39.7009L28.502 39.8537C28.2881 40.0064 28.0346 40.1764 27.7505 40.3567L27.3005 40.6356L27.0602 40.7802L26.5511 41.0775L26.0084 41.384L25.5971 41.608L25.6724 41.6161L25.7742 41.6263C26.5786 41.6996 27.6457 41.7404 28.7494 41.7404C29.8541 41.7404 30.913 41.7007 31.7031 41.6273L31.8263 41.6141L31.529 41.4532L31.0026 41.158L30.5057 40.8708L30.0425 40.5929L29.6179 40.3281C29.5521 40.2861 29.4866 40.2437 29.4214 40.2009L29.065 39.9606C28.9619 39.8895 28.86 39.8165 28.7596 39.7417L28.7056 39.7009ZM33.6438 19.2263L33.3251 19.3567L32.9667 19.5165L32.7722 19.6071L32.3476 19.8128L31.1889 20.3891L30.9191 20.5164L30.6615 20.6335C30.07 20.8941 29.5517 21.0733 29.0497 21.1731L27.7444 21.4297L27.1692 21.5376L26.3953 21.6761L25.7193 21.785L25.1328 21.8665L24.9546 21.8868L24.6247 21.9204L24.3254 21.9408L24.0545 21.951C23.9728 21.9529 23.8909 21.9529 23.8092 21.951L23.5852 21.9388C23.5505 21.9359 23.5159 21.9325 23.4813 21.9286L23.2858 21.9001L23.1066 21.8614C22.1424 21.617 21.8848 21.1426 21.8268 19.8332L21.8156 19.4361L21.8105 19.1062C19.6794 19.8474 18.2132 21.561 18.1134 23.4925L18.1073 23.7023V33.9268L19.8382 36.4855L20.8361 37.9324L21.3054 38.5932L21.39 38.7062C22.6148 37.2247 24.0657 36.6943 26.8209 36.5252C26.8444 36.5232 26.8718 36.5232 26.9044 36.5232L27.1488 36.5283L27.4665 36.5456L28.0081 36.5904L28.1884 36.6098L28.5244 36.6535L28.7076 36.6841L28.9245 36.6484C29.2452 36.6026 29.6556 36.5649 29.9966 36.5425L30.3632 36.5252L30.5017 36.5232L30.5933 36.5252C33.2558 36.6882 34.7006 37.1891 35.9001 38.5616L36.0793 38.3142L36.6545 37.4946L37.5994 36.1149L39.1053 33.8871C39.1409 33.7705 39.2108 33.6672 39.3059 33.5908L39.3171 23.8916C39.3201 21.6761 37.5689 19.6927 35.0092 18.986L34.9684 18.9698C34.5958 18.9392 34.2048 19.0115 33.6448 19.2274L33.6438 19.2263ZM42.2464 29.2799L42.1721 29.3002L42.0519 29.345L41.9745 29.3817L41.834 29.4682L41.4369 29.7594L41.0378 30.0659C40.8732 30.194 40.7045 30.3166 40.5318 30.4335L40.5236 36.85C40.7782 36.8266 41.0673 36.8093 41.3117 36.8052H41.5764C41.5632 36.8022 41.5612 36.7971 41.5683 36.7828L41.5866 36.7533C41.6884 36.6047 41.8004 36.3542 41.9114 36.0202C42.1252 35.3665 42.3166 34.44 42.4704 33.3648C42.6028 32.4281 42.7005 31.4211 42.7422 30.5882L42.7524 30.3683L42.7636 29.9743V29.8042L42.7585 29.5588L42.7534 29.4927L42.6801 29.4234C42.5172 29.2839 42.391 29.2493 42.2464 29.2799ZM14.7453 29.4234L14.67 29.4947L14.6628 29.6556V29.9743L14.673 30.3683L14.6832 30.5882C14.726 31.4211 14.8227 32.4271 14.9561 33.3648C15.1088 34.44 15.3002 35.3665 15.515 36.0192C15.6067 36.2982 15.6993 36.5191 15.7869 36.6708L15.8388 36.7533C15.8643 36.791 15.8694 36.8012 15.849 36.8042L15.7747 36.8093C16.1461 36.7992 16.5178 36.8125 16.8876 36.849L16.8855 30.4273L16.8173 30.3826L16.5404 30.182L15.7187 29.5578L15.5914 29.4682L15.4509 29.3817L15.3735 29.345L15.2534 29.3002C15.0762 29.2412 14.9347 29.2605 14.7453 29.4234ZM18.4515 16.9212L18.2122 17.1818L17.7683 17.6746L17.3692 18.1338L17.0128 18.5655C15.8419 20.0297 15.4265 21.057 15.3501 22.5629C15.3455 22.6565 15.3194 22.7478 15.2737 22.8297L15.3511 22.9417L15.9376 23.7837C16.1178 24.0423 16.294 24.4669 16.4935 25.0727L16.6585 25.5951L16.8285 26.1856L16.8855 26.3933V23.7023C16.8855 21.0143 18.9066 18.6826 21.7718 17.8365C21.7683 17.7754 21.7639 17.7143 21.7585 17.6532L21.7198 17.2562C21.6252 16.4111 19.4462 15.849 18.4515 16.9212ZM39.3741 17.1452L39.3069 17.1706L39.2142 17.2215L39.088 17.303L38.8202 17.4934L38.4333 17.7795C37.9975 18.1053 37.6656 18.313 37.2828 18.4637C37.2143 18.4908 37.1415 18.5052 37.0679 18.5065C39.0972 19.6092 40.4401 21.5071 40.5338 23.6452L40.5389 23.8916L40.5369 26.2905L40.5542 26.2375L40.7171 25.7488L40.9329 25.1247L41.6945 23.0374L42.0102 22.0701L42.1894 21.4857L42.283 21.1538L42.3564 20.8636L42.4103 20.6111L42.4307 20.496L42.4551 20.2893L42.4633 20.106C42.4644 19.8566 42.3899 19.6127 42.2494 19.4066L42.2077 19.3424C42.1361 19.2382 42.0568 19.1395 41.9705 19.0471L41.8167 18.8893L41.6334 18.7213C41.5623 18.6592 41.49 18.5985 41.4166 18.5391L41.1651 18.3405L40.8739 18.1236L40.5399 17.8834L39.9494 17.4761L39.4759 17.1574L39.4617 17.1492C39.434 17.1372 39.4028 17.1357 39.3741 17.1452ZM14.4174 17.9363L14.2749 18.4189L14.1598 18.8354C13.9572 19.6092 13.9134 20.0388 13.9817 20.439L14.0163 20.605L14.0509 20.7343C14.057 20.7556 14.0631 20.777 14.0713 20.7984L14.1171 20.9308L14.1741 21.0682L14.2454 21.2179L14.2749 21.2729C14.6119 19.5766 15.5374 18.2692 17.5555 16.0903C19.2294 14.2861 22.7177 15.1842 22.9345 17.1197L22.9569 17.3396L22.9926 17.7571L23.0078 18.0218C23.0458 18.0992 23.0669 18.1838 23.0699 18.2699C23.0729 18.3561 23.0576 18.4419 23.0252 18.5218L23.0282 18.649L23.0384 19.5827L23.0486 19.8841C23.0781 20.5092 23.1606 20.6151 23.406 20.6772L23.5424 20.7037L23.6188 20.7139L23.7888 20.7271C23.8193 20.7292 23.8499 20.7302 23.8825 20.7302L24.0922 20.7292L24.3305 20.717L24.5993 20.6956L24.9027 20.662L25.425 20.5917L25.8221 20.5306L26.4961 20.4166L27.554 20.2221L28.8094 19.9757C29.2126 19.8943 29.6515 19.7436 30.1687 19.5155L30.5332 19.3485L30.9598 19.1408L31.5891 18.8252L32.087 18.5798L32.535 18.369L32.7417 18.2754L33.1265 18.1124C34.0429 17.7439 34.6436 17.6644 35.3665 17.7897C35.4503 17.8042 35.5301 17.8361 35.6007 17.8834L35.334 17.807C35.7636 17.9251 36.176 18.0758 36.566 18.254C36.4735 18.131 36.4326 17.9769 36.4519 17.8243L36.4855 17.584L36.6657 16.633L36.7238 16.2991C36.7472 16.1463 36.7635 16.018 36.7726 15.906L36.7818 15.7146C36.7849 15.6607 36.7961 15.6505 36.851 15.7004C30.8377 10.247 16.2084 12.0207 14.4174 17.9363Z" fill="#101928"/>
</g>
</g>
<defs>
<clipPath id="clip0_2_298">
<rect width="56" height="57.02" fill="white"/>
</clipPath>
<clipPath id="clip1_2_298">
<rect width="56" height="57.02" fill="white"/>
</clipPath>
</defs>
</svg>
