<svg width="29" height="29" viewBox="0 0 29 29" fill="none" xmlns="http://www.w3.org/2000/svg">
<path fill-rule="evenodd" clip-rule="evenodd" d="M10.6877 9.51558C10.6878 9.34577 10.7553 9.18294 10.8754 9.06286C10.9955 8.94278 11.1583 8.87527 11.3281 8.87517L19.4844 8.87517C19.6542 8.87527 19.817 8.94278 19.9371 9.06286C20.0572 9.18294 20.1247 9.34577 20.1248 9.51558L20.1248 17.6718C20.1278 17.7578 20.1135 17.8436 20.0827 17.9239C20.0519 18.0043 20.0052 18.0776 19.9454 18.1395C19.8856 18.2014 19.814 18.2507 19.7348 18.2843C19.6556 18.3179 19.5704 18.3353 19.4844 18.3353C19.3983 18.3353 19.3131 18.3179 19.2339 18.2843C19.1547 18.2507 19.0831 18.2014 19.0233 18.1395C18.9636 18.0776 18.9169 18.0043 18.886 17.9239C18.8552 17.8436 18.8409 17.7578 18.844 17.6718L18.844 11.0622L9.96874 19.9375C9.84857 20.0576 9.68557 20.1251 9.51562 20.1251C9.34566 20.1251 9.18267 20.0576 9.06249 19.9375C8.94232 19.8173 8.8748 19.6543 8.8748 19.4843C8.8748 19.3144 8.94232 19.1514 9.06249 19.0312L17.9377 10.156L11.3281 10.156C11.1583 10.1559 10.9955 10.0884 10.8754 9.96831C10.7553 9.84823 10.6878 9.6854 10.6877 9.51558Z" fill="#0D1619"/>
</svg>
