<svg width="54" height="54" viewBox="0 0 54 54" fill="none" xmlns="http://www.w3.org/2000/svg">
<g clip-path="url(#clip0_2_134)">
<g clip-path="url(#clip1_2_134)">
<path fill-rule="evenodd" clip-rule="evenodd" d="M17.3571 3.85718H50.1429V28.9286H17.3571V3.85718Z" fill="#FBD74C"/>
<path d="M46.2857 6.75C46.5415 6.75 46.7867 6.85159 46.9676 7.03243C47.1484 7.21327 47.25 7.45854 47.25 7.71429V25.0714C47.25 25.3272 47.1484 25.5724 46.9676 25.7533C46.7867 25.9341 46.5415 26.0357 46.2857 26.0357H21.2143C20.9585 26.0357 20.7133 25.9341 20.5324 25.7533C20.3516 25.5724 20.25 25.3272 20.25 25.0714V17.8393H8.67857V36.1607H30.8571V30.2371C30.8577 29.9914 30.9519 29.7552 31.1207 29.5766C31.2895 29.3981 31.5201 29.2907 31.7654 29.2765C32.0107 29.2622 32.2522 29.3421 32.4405 29.4998C32.6289 29.6576 32.7499 29.8813 32.779 30.1252L32.7857 30.2371V44.6329C32.7857 46.5461 31.2477 48.1101 29.3355 48.2095L29.1426 48.2143H10.3931C8.45679 48.2143 6.85607 46.7119 6.75482 44.8229L6.75 44.6329V13.2242C6.75 11.3111 8.28804 9.747 10.2002 9.64768L10.3931 9.64286H20.25V7.71429C20.25 7.4781 20.3367 7.25014 20.4937 7.07364C20.6506 6.89714 20.8669 6.78438 21.1015 6.75675L21.2143 6.75H46.2857ZM30.8571 38.0893H8.67857V44.6329C8.67857 45.4892 9.37286 46.2105 10.2523 46.2799L10.3931 46.2857H29.1426C30.0414 46.2857 30.78 45.6078 30.8514 44.767L30.8571 44.632V38.0893ZM19.7679 39.5357C20.4072 39.5357 21.0204 39.7897 21.4725 40.2418C21.9246 40.6939 22.1786 41.3071 22.1786 41.9464C22.1786 42.5858 21.9246 43.199 21.4725 43.6511C21.0204 44.1032 20.4072 44.3571 19.7679 44.3571C19.1285 44.3571 18.5153 44.1032 18.0632 43.6511C17.6111 43.199 17.3571 42.5858 17.3571 41.9464C17.3571 41.3071 17.6111 40.6939 18.0632 40.2418C18.5153 39.7897 19.1285 39.5357 19.7679 39.5357ZM19.7679 41.4643C19.64 41.4643 19.5174 41.5151 19.4269 41.6055C19.3365 41.6959 19.2857 41.8186 19.2857 41.9464C19.2857 42.0743 19.3365 42.1969 19.4269 42.2874C19.5174 42.3778 19.64 42.4286 19.7679 42.4286C19.8957 42.4286 20.0184 42.3778 20.1088 42.2874C20.1992 42.1969 20.25 42.0743 20.25 41.9464C20.25 41.8186 20.1992 41.6959 20.1088 41.6055C20.0184 41.5151 19.8957 41.4643 19.7679 41.4643ZM45.3214 13.9821H22.1786V24.1071H45.3214V13.9821ZM29.8929 18.8036C30.1386 18.8038 30.375 18.898 30.5537 19.0667C30.7325 19.2354 30.84 19.466 30.8544 19.7113C30.8688 19.9567 30.789 20.1983 30.6312 20.3868C30.4735 20.5752 30.2497 20.6964 30.0057 20.7254L29.8929 20.7321H26.0357C25.7899 20.7319 25.5535 20.6378 25.3748 20.469C25.1961 20.3003 25.0886 20.0697 25.0742 19.8244C25.0598 19.579 25.1396 19.3374 25.2973 19.1489C25.4551 18.9605 25.6788 18.8393 25.9229 18.8103L26.0357 18.8036H29.8929ZM40.5 18.8036C40.7458 18.8038 40.9822 18.898 41.1609 19.0667C41.3396 19.2354 41.4472 19.466 41.4616 19.7113C41.476 19.9567 41.3961 20.1983 41.2384 20.3868C41.0806 20.5752 40.8569 20.6964 40.6128 20.7254L40.5 20.7321H39.5357C39.2899 20.7319 39.0535 20.6378 38.8748 20.469C38.6961 20.3003 38.5886 20.0697 38.5742 19.8244C38.5598 19.579 38.6396 19.3374 38.7973 19.1489C38.9551 18.9605 39.1788 18.8393 39.4229 18.8103L39.5357 18.8036H40.5ZM20.25 11.5714H10.3931C9.49436 11.5714 8.75571 12.2493 8.68436 13.0902L8.67857 13.2252V15.9107H20.25V11.5714ZM45.3214 8.67857H22.1786V12.0536H45.3214V8.67857Z" fill="#101928"/>
</g>
</g>
<defs>
<clipPath id="clip0_2_134">
<rect width="54" height="54" fill="white"/>
</clipPath>
<clipPath id="clip1_2_134">
<rect width="54" height="54" fill="white"/>
</clipPath>
</defs>
</svg>
