<svg width="24" height="24" viewBox="0 0 24 24" fill="none" xmlns="http://www.w3.org/2000/svg">
<path fill-rule="evenodd" clip-rule="evenodd" d="M12 3.75C9.81196 3.75 7.71354 4.61919 6.16637 6.16637C4.61919 7.71354 3.75 9.81196 3.75 12C3.75 14.188 4.61919 16.2865 6.16637 17.8336C7.71354 19.3808 9.81196 20.25 12 20.25C14.188 20.25 16.2865 19.3808 17.8336 17.8336C19.3808 16.2865 20.25 14.188 20.25 12C20.25 9.81196 19.3808 7.71354 17.8336 6.16637C16.2865 4.61919 14.188 3.75 12 3.75ZM2.25 12C2.25 6.615 6.615 2.25 12 2.25C17.385 2.25 21.75 6.615 21.75 12C21.75 17.385 17.385 21.75 12 21.75C6.615 21.75 2.25 17.385 2.25 12ZM12 6C12.1989 6 12.3897 6.07902 12.5303 6.21967C12.671 6.36032 12.75 6.55109 12.75 6.75V11.25H17.25C17.4489 11.25 17.6397 11.329 17.7803 11.4697C17.921 11.6103 18 11.8011 18 12C18 12.1989 17.921 12.3897 17.7803 12.5303C17.6397 12.671 17.4489 12.75 17.25 12.75H12C11.8011 12.75 11.6103 12.671 11.4697 12.5303C11.329 12.3897 11.25 12.1989 11.25 12V6.75C11.25 6.55109 11.329 6.36032 11.4697 6.21967C11.6103 6.07902 11.8011 6 12 6Z" fill="#0D1619"/>
</svg>
