<svg width="24" height="24" viewBox="0 0 24 24" fill="none" xmlns="http://www.w3.org/2000/svg">
<path d="M12 2.162C15.204 2.162 15.584 2.174 16.849 2.232C18.215 2.294 19.482 2.568 20.457 3.543C21.432 4.518 21.706 5.785 21.768 7.151C21.826 8.416 21.838 8.796 21.838 12C21.838 15.204 21.826 15.584 21.768 16.849C21.706 18.215 21.432 19.482 20.457 20.457C19.482 21.432 18.215 21.706 16.849 21.768C15.584 21.826 15.204 21.838 12 21.838C8.796 21.838 8.416 21.826 7.151 21.768C5.785 21.706 4.518 21.432 3.543 20.457C2.568 19.482 2.294 18.215 2.232 16.849C2.174 15.584 2.162 15.204 2.162 12C2.162 8.796 2.174 8.416 2.232 7.151C2.294 5.785 2.568 4.518 3.543 3.543C4.518 2.568 5.785 2.294 7.151 2.232C8.416 2.174 8.796 2.162 12 2.162ZM12 0C8.741 0 8.332 0.014 7.052 0.072C5.102 0.161 3.389 0.639 2.014 2.014C0.639 3.389 0.161 5.102 0.072 7.052C0.014 8.332 0 8.741 0 12C0 15.259 0.014 15.668 0.072 16.948C0.161 18.898 0.639 20.611 2.014 21.986C3.389 23.361 5.102 23.839 7.052 23.928C8.332 23.986 8.741 24 12 24C15.259 24 15.668 23.986 16.948 23.928C18.898 23.839 20.611 23.361 21.986 21.986C23.361 20.611 23.839 18.898 23.928 16.948C23.986 15.668 24 15.259 24 12C24 8.741 23.986 8.332 23.928 7.052C23.839 5.102 23.361 3.389 21.986 2.014C20.611 0.639 18.898 0.161 16.948 0.072C15.668 0.014 15.259 0 12 0Z" fill="#DBDCE1"/>
<path d="M12 5.83789C11.1908 5.83789 10.3895 5.99728 9.64192 6.30695C8.89431 6.61661 8.21502 7.0705 7.64282 7.6427C7.07063 8.21489 6.61674 8.89419 6.30707 9.6418C5.9974 10.3894 5.83801 11.1907 5.83801 11.9999C5.83801 12.8091 5.9974 13.6104 6.30707 14.358C6.61674 15.1056 7.07063 15.7849 7.64282 16.3571C8.21502 16.9293 8.89431 17.3832 9.64192 17.6928C10.3895 18.0025 11.1908 18.1619 12 18.1619C13.6343 18.1619 15.2016 17.5127 16.3572 16.3571C17.5128 15.2015 18.162 13.6342 18.162 11.9999C18.162 10.3656 17.5128 8.7983 16.3572 7.6427C15.2016 6.4871 13.6343 5.83789 12 5.83789ZM12 15.9999C10.9391 15.9999 9.92173 15.5785 9.17159 14.8283C8.42144 14.0782 8.00001 13.0608 8.00001 11.9999C8.00001 10.939 8.42144 9.92161 9.17159 9.17146C9.92173 8.42132 10.9391 7.99989 12 7.99989C13.0609 7.99989 14.0783 8.42132 14.8284 9.17146C15.5786 9.92161 16 10.939 16 11.9999C16 13.0608 15.5786 14.0782 14.8284 14.8283C14.0783 15.5785 13.0609 15.9999 12 15.9999Z" fill="#DBDCE1"/>
<path d="M18.406 7.03381C19.2013 7.03381 19.846 6.3891 19.846 5.59381C19.846 4.79852 19.2013 4.15381 18.406 4.15381C17.6107 4.15381 16.966 4.79852 16.966 5.59381C16.966 6.3891 17.6107 7.03381 18.406 7.03381Z" fill="#DBDCE1"/>
</svg>
