<svg width="24" height="24" viewBox="0 0 24 24" fill="none" xmlns="http://www.w3.org/2000/svg">
<g clip-path="url(#clip0_2_630)">
<path d="M1.63636 0.545456H22.3636C23.2674 0.545456 24 1.27808 24 2.18182C24 3.08556 23.2674 3.81818 22.3636 3.81818H1.63636C0.732625 3.81818 0 3.08556 0 2.18182C0 1.27808 0.732625 0.545456 1.63636 0.545456ZM1.63636 10.3636H22.3636C23.2674 10.3636 24 11.0963 24 12C24 12.9037 23.2674 13.6364 22.3636 13.6364H1.63636C0.732625 13.6364 0 12.9037 0 12C0 11.0963 0.732625 10.3636 1.63636 10.3636ZM1.63636 20.1818H22.3636C23.2674 20.1818 24 20.9144 24 21.8182C24 22.7219 23.2674 23.4545 22.3636 23.4545H1.63636C0.732625 23.4545 0 22.7219 0 21.8182C0 20.9144 0.732625 20.1818 1.63636 20.1818Z" fill="white"/>
</g>
<defs>
<clipPath id="clip0_2_630">
<rect width="24" height="24" fill="white"/>
</clipPath>
</defs>
</svg>
