<svg width="56" height="56" viewBox="0 0 56 56" fill="none" xmlns="http://www.w3.org/2000/svg">
<g clip-path="url(#clip0_2_274)">
<g clip-path="url(#clip1_2_274)">
<path fill-rule="evenodd" clip-rule="evenodd" d="M39.262 40.5401L39.917 40.5451L40.557 40.5591L41.181 40.5821L41.787 40.6151L42.375 40.6571L42.942 40.7071L43.218 40.7371L43.753 40.8011L44.265 40.8751L44.512 40.9151L44.986 41.0031C45.139 41.0331 45.289 41.0651 45.433 41.0991L45.853 41.2041C47.336 41.6041 48.226 42.1841 48.226 42.9271C48.226 43.4991 47.7 43.9731 46.783 44.3441L44.67 49.0871V50.5201C44.67 51.2081 44.148 51.7741 43.477 51.8421L43.342 51.8491H35.182C34.8532 51.8488 34.5363 51.7267 34.2923 51.5064C34.0483 51.2861 33.8946 50.9831 33.861 50.6561L33.854 50.5201V49.0871L31.741 44.3441C30.824 43.9731 30.298 43.4991 30.298 42.9271C30.298 42.1831 31.188 41.6051 32.672 41.2041L33.092 41.0991C33.236 41.0651 33.385 41.0331 33.538 41.0031L34.012 40.9151C34.256 40.8741 34.509 40.8361 34.771 40.8011L35.306 40.7371L35.582 40.7071L36.149 40.6571L36.737 40.6151L37.344 40.5821L37.967 40.5591L38.607 40.5451L39.262 40.5401ZM45.27 44.7921C44.807 44.8941 44.3 44.9811 43.753 45.0521L43.218 45.1181L42.661 45.1731L42.083 45.2201L41.486 45.2571L40.871 45.2851L40.239 45.3041L39.917 45.3101L39.262 45.3151L38.607 45.3101C38.5 45.3085 38.393 45.3065 38.286 45.3041L37.654 45.2851L37.038 45.2571L36.441 45.2201L35.863 45.1731L35.306 45.1181L34.771 45.0531C34.6846 45.0416 34.5983 45.0296 34.512 45.0171L34.012 44.9391C33.7582 44.8961 33.5055 44.8471 33.254 44.7921L34.842 48.3591H39.262C39.4137 48.3576 39.5603 48.4137 39.6724 48.516C39.7844 48.6183 39.8535 48.7592 39.8658 48.9104C39.8781 49.0617 39.8327 49.2119 39.7386 49.331C39.6446 49.45 39.509 49.529 39.359 49.5521L39.262 49.5601L35.053 49.5591V50.5191C35.0531 50.5463 35.0617 50.5729 35.0777 50.5949C35.0936 50.617 35.1161 50.6335 35.142 50.6421L35.182 50.6491H43.342C43.3691 50.649 43.3955 50.6403 43.4174 50.6243C43.4393 50.6083 43.4556 50.5859 43.464 50.5601L43.47 50.5201V48.8321L45.27 44.7921ZM29.854 23.3741L30.081 23.5501L31.735 24.9551L32.538 25.6131L32.745 25.7751C34.298 26.9611 35.759 27.7511 37.223 28.0821L37.253 28.0891L37.298 28.1041L37.223 28.0821C37.3557 28.1126 37.4742 28.1871 37.5592 28.2935C37.6442 28.3999 37.6906 28.5319 37.691 28.6681C37.691 33.4611 37.216 36.6891 35.861 39.8011C35.8295 39.8733 35.784 39.9386 35.7273 39.9933C35.6705 40.048 35.6036 40.0909 35.5302 40.1197C35.4568 40.1485 35.3785 40.1625 35.2997 40.1611C35.221 40.1596 35.1432 40.1426 35.071 40.1111C34.9988 40.0796 34.9335 40.0341 34.8788 39.9774C34.8241 39.9206 34.7812 39.8537 34.7524 39.7803C34.7236 39.7069 34.7095 39.6286 34.711 39.5498C34.7125 39.471 34.7295 39.3933 34.761 39.3211C35.995 36.4871 36.46 33.5181 36.489 29.1311C34.995 28.7101 33.537 27.8891 32.017 26.7291L31.679 26.4631L31.127 26.0101L29.319 24.4761C24.049 20.3111 17.555 23.0981 17.782 28.6941C17.988 33.7401 18.924 38.7941 20.966 42.0541C22.419 44.2861 24.704 45.5941 27.124 45.5941C28.3298 45.5905 29.5136 45.2705 30.557 44.6661C30.6952 44.5871 30.8591 44.5662 31.0127 44.608C31.1663 44.6498 31.297 44.7509 31.376 44.8891C31.455 45.0273 31.4759 45.1912 31.4341 45.3448C31.3923 45.4984 31.2912 45.6291 31.153 45.7081C29.9281 46.4162 28.5389 46.7906 27.124 46.7941C24.288 46.7941 21.629 45.2721 19.954 42.6991C17.763 39.2011 16.797 33.9871 16.584 28.7431C16.314 22.1481 23.847 18.8381 29.854 23.3731V23.3741ZM39.559 41.7411H38.965L38.671 41.7451L38.09 41.7601L37.52 41.7841L36.964 41.8161L36.424 41.8561L35.9 41.9021L35.397 41.9551L34.915 42.0131L34.683 42.0431L34.237 42.1081L33.817 42.1761L33.426 42.2481L33.066 42.3211L32.736 42.3961L32.585 42.4331L32.308 42.5091L32.068 42.5841L31.868 42.6581L31.709 42.7301C31.571 42.8001 31.498 42.8671 31.498 42.9271C31.498 43.0171 31.663 43.1231 31.964 43.2331L32.126 43.2871C32.286 43.2691 32.446 43.3171 32.57 43.4161L32.585 43.4211L32.897 43.4961L33.242 43.5701L33.618 43.6421L34.238 43.7461L34.683 43.8111L35.397 43.9001L35.901 43.9521L36.424 43.9991L36.692 44.0191L37.24 44.0561L37.803 44.0841L38.379 44.1041L38.965 44.1141H39.559L40.145 44.1041L40.435 44.0941L41.005 44.0711L41.56 44.0391L42.1 43.9991L42.623 43.9521L43.127 43.9001L43.609 43.8421L44.067 43.7791L44.5 43.7121L44.906 43.6421L45.282 43.5701L45.627 43.4961L45.939 43.4211L45.954 43.4171C46.0159 43.3668 46.0873 43.3293 46.1639 43.307C46.2405 43.2847 46.3207 43.2779 46.4 43.2871L46.56 43.2331C46.861 43.1231 47.026 43.0171 47.026 42.9271C47.026 42.8671 46.953 42.8001 46.815 42.7301L46.655 42.6581L46.455 42.5841L46.216 42.5091C46.1714 42.496 46.1268 42.4834 46.082 42.4711L45.788 42.3961C45.7347 42.3831 45.6814 42.3704 45.628 42.3581L45.282 42.2841L44.906 42.2121L44.5 42.1421L44.067 42.0751L43.609 42.0131L43.127 41.9551L42.624 41.9021L42.101 41.8551L41.561 41.8151L41.004 41.7841L40.434 41.7601C40.3377 41.7567 40.2413 41.7537 40.145 41.7511L39.559 41.7411ZM34.193 12.7161C34.3338 12.7904 34.4394 12.9175 34.4865 13.0696C34.5335 13.2217 34.5183 13.3863 34.444 13.5271C34.3697 13.6679 34.2426 13.7735 34.0905 13.8206C33.9384 13.8676 33.7738 13.8524 33.633 13.7781C27.109 10.3431 18.407 12.6811 15.495 19.1891L15.421 19.3571L15.281 19.6971L15.215 19.8691L15.089 20.2201C15.049 20.3401 15.009 20.4601 14.971 20.5851L14.86 20.9671C14.841 21.0331 14.824 21.0991 14.806 21.1671L14.703 21.5841L14.603 22.0301L14.506 22.5091L14.41 23.0251L14.315 23.5831L14.17 24.5071L13.966 25.9261L13.743 27.5431L13.633 28.2971L13.523 28.9991L13.413 29.6511L13.303 30.2591L13.188 30.8271L13.07 31.3591L13.01 31.6131L12.883 32.0991C12.8405 32.2535 12.7955 32.4072 12.748 32.5601L12.605 33.0001C12.482 33.3591 12.348 33.7001 12.201 34.0351L12.016 34.4351C10.985 36.5771 9.436 37.9651 7.216 38.5341L7.026 38.5801L7.195 38.7841C7.452 39.0821 7.739 39.3771 8.057 39.6641L8.385 39.9461C10.429 41.6321 12.997 42.4411 16.148 41.9011C16.3049 41.8743 16.466 41.9109 16.5958 42.0029C16.7257 42.0949 16.8137 42.2347 16.8405 42.3916C16.8673 42.5485 16.8307 42.7096 16.7387 42.8394C16.6467 42.9693 16.5069 43.0573 16.35 43.0841C12.835 43.6871 9.921 42.7681 7.622 40.8721C7.02796 40.3836 6.48698 39.8339 6.008 39.2321L5.798 38.9581L5.631 38.7231L5.507 38.5331L5.46 38.4561L5 37.6681L5.907 37.5581C9.074 37.1781 10.649 35.6141 11.676 31.8641L11.819 31.3141C11.889 31.0301 11.956 30.7361 12.021 30.4301L12.148 29.8021L12.21 29.4761L12.33 28.7991L12.445 28.0901L12.557 27.3471L12.886 24.9901L12.989 24.2871L13.089 23.6371L13.239 22.7531L13.339 22.2161L13.441 21.7181L13.547 21.2511L13.601 21.0291L13.714 20.6031L13.772 20.3981L13.895 20.0031L14.026 19.6211L14.167 19.2491L14.319 18.8821L14.399 18.6991C17.611 11.5201 27.086 8.97509 34.193 12.7161ZM41.469 25.8601L41.656 27.2121L41.769 27.9621L41.886 28.6801L41.946 29.0271L42.07 29.6961C42.113 29.9131 42.156 30.1261 42.2 30.3331L42.338 30.9401L42.483 31.5161C43.496 35.3491 45.066 37.0881 48.133 37.5281L48.361 37.5581L49.268 37.6681L48.808 38.4561L48.7 38.6301L48.542 38.8591C48.0756 39.5017 47.54 40.0913 46.945 40.6171C46.8859 40.6693 46.8171 40.7093 46.7425 40.735C46.668 40.7606 46.5891 40.7712 46.5104 40.7664C46.4317 40.7615 46.3547 40.7412 46.2839 40.7065C46.213 40.6719 46.1497 40.6237 46.0975 40.5646C46.0453 40.5055 46.0052 40.4367 45.9796 40.3621C45.954 40.2876 45.9434 40.2087 45.9482 40.13C45.9531 40.0513 45.9734 39.9743 46.008 39.9035C46.0427 39.8326 46.0909 39.7693 46.15 39.7171C46.5168 39.3932 46.8587 39.0422 47.173 38.6671L47.235 38.5871L47.005 38.5361C43.585 37.7141 41.985 35.2311 40.971 30.3121L40.836 29.6271C40.8138 29.5088 40.7922 29.3905 40.771 29.2721L40.646 28.5401L40.526 27.7771L40.28 26.0221C40.2585 25.8643 40.3006 25.7044 40.397 25.5776C40.4934 25.4509 40.6362 25.3676 40.794 25.3461C40.9518 25.3246 41.1117 25.3667 41.2385 25.4631C41.3652 25.5595 41.4475 25.7023 41.469 25.8601ZM40.728 15.0601C40.8279 14.9606 40.9473 14.8828 41.0787 14.8315C41.21 14.7801 41.3505 14.7564 41.4914 14.7618C41.6323 14.7671 41.7706 14.8014 41.8977 14.8626C42.0248 14.9237 42.1379 15.0103 42.23 15.1171L42.4 15.3221C44.196 17.5841 44.272 20.6921 42.588 22.7951L48.432 28.6391C48.5387 28.7449 48.6019 28.8868 48.609 29.0369C48.6161 29.187 48.5666 29.3343 48.4703 29.4496C48.374 29.565 48.238 29.6401 48.0891 29.66C47.9401 29.6798 47.7892 29.6431 47.666 29.5571L47.583 29.4871L41.739 23.6441C39.573 25.3801 36.337 25.2451 34.062 23.2871C33.955 23.195 33.8681 23.0819 33.8067 22.9547C33.7454 22.8276 33.711 22.6891 33.7057 22.548C33.7003 22.4069 33.7241 22.2663 33.7756 22.1348C33.8272 22.0034 33.9052 21.884 34.005 21.7841L40.728 15.0601ZM41.439 16.0441L34.989 22.4961L35.039 22.5361C36.937 24.0261 39.526 24.0291 41.171 22.5521L41.338 22.3941C43.026 20.7061 43.023 17.8771 41.321 15.9001L41.439 16.0441ZM31.894 17.9201L31.977 17.9901L34.337 20.3491C34.4437 20.4549 34.5069 20.5968 34.514 20.7469C34.521 20.897 34.4716 21.0443 34.3753 21.1596C34.279 21.275 34.143 21.3501 33.9941 21.37C33.8451 21.3898 33.6942 21.3531 33.571 21.2671L33.488 21.1971L31.128 18.8381C31.0213 18.7323 30.9581 18.5904 30.951 18.4403C30.944 18.2902 30.9934 18.1429 31.0897 18.0275C31.186 17.9122 31.322 17.8371 31.4709 17.8172C31.6199 17.7973 31.7708 17.834 31.894 17.9201ZM33.345 16.4691L33.428 16.5391L35.788 18.8981C35.8947 19.0039 35.9579 19.1458 35.965 19.2959C35.972 19.446 35.9226 19.5933 35.8263 19.7086C35.73 19.824 35.594 19.8991 35.4451 19.919C35.2961 19.9388 35.1452 19.9021 35.022 19.8161L34.939 19.7461L32.579 17.3861C32.4736 17.28 32.4116 17.1384 32.4052 16.9891C32.3988 16.8397 32.4483 16.6933 32.5442 16.5786C32.64 16.4638 32.7753 16.389 32.9234 16.3688C33.0715 16.3485 33.2219 16.3843 33.345 16.4691ZM34.796 15.0181L34.88 15.0871L37.24 17.4471C37.3454 17.5532 37.4073 17.6947 37.4138 17.8441C37.4202 17.9935 37.3707 18.1399 37.2748 18.2546C37.179 18.3694 37.0437 18.4442 36.8956 18.4644C36.7475 18.4847 36.5971 18.4489 36.474 18.3641L36.391 18.2951L34.031 15.9351C33.9266 15.8289 33.8653 15.6877 33.8592 15.5389C33.8531 15.3901 33.9026 15.2443 33.998 15.13C34.0934 15.0156 34.2279 14.9408 34.3754 14.9201C34.5229 14.8995 34.6728 14.9344 34.796 15.0181ZM36.248 13.5661L36.331 13.6361L38.691 15.9961C38.7964 16.1022 38.8583 16.2437 38.8648 16.3931C38.8712 16.5425 38.8217 16.6889 38.7258 16.8036C38.63 16.9184 38.4947 16.9932 38.3466 17.0134C38.1985 17.0337 38.0481 16.9979 37.925 16.9131L37.842 16.8431L35.482 14.4841C35.3753 14.3783 35.3121 14.2364 35.305 14.0863C35.298 13.9362 35.3474 13.7889 35.4437 13.6735C35.54 13.5582 35.676 13.4831 35.8249 13.4632C35.9739 13.4433 36.1248 13.48 36.248 13.5661ZM37.699 12.1161L37.782 12.1841L40.142 14.5441C40.2487 14.6499 40.3119 14.7918 40.319 14.9419C40.326 15.092 40.2766 15.2393 40.1803 15.3546C40.084 15.47 39.948 15.5451 39.7991 15.565C39.6501 15.5848 39.4992 15.5481 39.376 15.4621L39.293 15.3921L36.933 13.0331C36.8263 12.9273 36.7631 12.7854 36.756 12.6353C36.749 12.4852 36.7984 12.3379 36.8947 12.2225C36.991 12.1072 37.127 12.0321 37.2759 12.0122C37.4249 11.9923 37.5758 12.029 37.699 12.1151V12.1161Z" fill="#101928"/>
</g>
</g>
<defs>
<clipPath id="clip0_2_274">
<rect width="56" height="56" fill="white"/>
</clipPath>
<clipPath id="clip1_2_274">
<rect width="56" height="56" fill="white"/>
</clipPath>
</defs>
</svg>
