<svg width="48" height="32" viewBox="0 0 48 32" fill="none" xmlns="http://www.w3.org/2000/svg">
<path d="M28 15.9259C28.0119 17.5164 27.7066 19.0932 27.1019 20.5642C26.4971 22.0352 25.6051 23.3708 24.478 24.4929C19.859 29.1029 12.314 29.1549 7.63599 24.6049C5.91953 22.9363 4.74139 20.7924 4.25302 18.4488C3.76464 16.1053 3.98837 13.6692 4.89542 11.4539C5.80248 9.23848 7.35141 7.34502 9.34308 6.0169C11.3348 4.68878 13.6781 3.98671 16.072 4.00094C16.222 4.00106 16.37 4.03488 16.5052 4.0999C16.6404 4.16493 16.7592 4.2595 16.8529 4.37662C16.9466 4.49375 17.0128 4.63044 17.0465 4.77658C17.0803 4.92272 17.0808 5.07458 17.048 5.22094C16.9169 5.80254 16.9176 6.40607 17.0498 6.98739C17.182 7.56872 17.4425 8.11313 17.8122 8.58082C18.182 9.04851 18.6515 9.42763 19.1867 9.69047C19.7218 9.95331 20.3089 10.0932 20.905 10.0999C21.1682 10.102 21.4201 10.2075 21.6062 10.3937C21.7924 10.5798 21.8979 10.8317 21.9 11.0949C21.9065 11.6912 22.0463 12.2785 22.3091 12.8138C22.572 13.3491 22.9512 13.8189 23.4191 14.1886C23.8869 14.5584 24.4315 14.8189 25.0131 14.9509C25.5946 15.083 26.1983 15.0834 26.78 14.9519C26.9262 14.9194 27.0778 14.92 27.2237 14.9537C27.3696 14.9874 27.5061 15.0534 27.6232 15.1469C27.7402 15.2403 27.8348 15.3588 27.9 15.4936C27.9652 15.6285 27.9994 15.7762 28 15.9259Z" stroke="black" stroke-width="2" stroke-linecap="round" stroke-linejoin="round"/>
<path d="M19.5 23C19.8978 23 20.2794 22.842 20.5607 22.5607C20.842 22.2794 21 21.8978 21 21.5C21 21.1022 20.842 20.7206 20.5607 20.4393C20.2794 20.158 19.8978 20 19.5 20C19.1022 20 18.7206 20.158 18.4393 20.4393C18.158 20.7206 18 21.1022 18 21.5C18 21.8978 18.158 22.2794 18.4393 22.5607C18.7206 22.842 19.1022 23 19.5 23ZM11.5 22C11.8978 22 12.2794 21.842 12.5607 21.5607C12.842 21.2794 13 20.8978 13 20.5C13 20.1022 12.842 19.7206 12.5607 19.4393C12.2794 19.158 11.8978 19 11.5 19C11.1022 19 10.7206 19.158 10.4393 19.4393C10.158 19.7206 10 20.1022 10 20.5C10 20.8978 10.158 21.2794 10.4393 21.5607C10.7206 21.842 11.1022 22 11.5 22ZM10.5 15C10.8978 15 11.2794 14.842 11.5607 14.5607C11.842 14.2794 12 13.8978 12 13.5C12 13.1022 11.842 12.7206 11.5607 12.4393C11.2794 12.158 10.8978 12 10.5 12C10.1022 12 9.72064 12.158 9.43934 12.4393C9.15804 12.7206 9 13.1022 9 13.5C9 13.8978 9.15804 14.2794 9.43934 14.5607C9.72064 14.842 10.1022 15 10.5 15ZM17 17C17.3978 17 17.7794 16.842 18.0607 16.5607C18.342 16.2794 18.5 15.8978 18.5 15.5C18.5 15.1022 18.342 14.7206 18.0607 14.4393C17.7794 14.158 17.3978 14 17 14C16.6022 14 16.2206 14.158 15.9393 14.4393C15.658 14.7206 15.5 15.1022 15.5 15.5C15.5 15.8978 15.658 16.2794 15.9393 16.5607C16.2206 16.842 16.6022 17 17 17Z" fill="black"/>
</svg>
