<svg width="56" height="56" viewBox="0 0 56 56" fill="none" xmlns="http://www.w3.org/2000/svg">
<g clip-path="url(#clip0_2_348)">
<g clip-path="url(#clip1_2_348)">
<path fill-rule="evenodd" clip-rule="evenodd" d="M10.575 32.559L10.663 32.603L27.92 43.048L34.094 39.918L34.241 39.868C34.496 39.813 34.754 39.788 35.012 39.793L35.269 39.808L35.406 39.837L47.252 43.845C47.3942 43.8937 47.513 43.994 47.5849 44.126C47.6567 44.2581 47.6763 44.4124 47.6399 44.5582C47.6034 44.7041 47.5135 44.8309 47.388 44.9137C47.2624 44.9964 47.1104 45.029 46.962 45.005L46.867 44.982L35.096 40.998L34.991 40.993C34.879 40.9912 34.767 40.9979 34.656 41.013L34.558 41.028L28.166 44.27C28.0906 44.3081 28.0079 44.3299 27.9235 44.3339C27.839 44.3378 27.7547 44.3239 27.676 44.293L27.584 44.248L14.004 36.027C14.0484 36.1053 14.0746 36.1927 14.0807 36.2825C14.0867 36.3724 14.0725 36.4624 14.039 36.546L13.995 36.633L9.105 44.723C9.02733 44.8525 8.90371 44.9479 8.75879 44.9902C8.61388 45.0326 8.45832 45.0188 8.32315 44.9515C8.18799 44.8842 8.08315 44.7685 8.02956 44.6273C7.97596 44.4862 7.97755 44.33 8.034 44.19L8.078 44.103L12.968 36.013C13.023 35.9218 13.1012 35.8469 13.1947 35.7959C13.2882 35.7449 13.3936 35.7198 13.5 35.723L10.04 33.629C9.91139 33.5508 9.81685 33.4272 9.77513 33.2826C9.73341 33.138 9.74755 32.983 9.81475 32.8483C9.88196 32.7137 9.99731 32.6092 10.1379 32.5556C10.2786 32.502 10.4352 32.5032 10.575 32.559ZM35.346 29.6C35.9957 29.4287 36.6815 29.4538 37.317 29.672L37.465 29.747L44.147 34.386C45.694 35.459 46.431 37.129 46.077 38.569C45.7 40.109 44.215 40.892 42.321 40.422C42.2461 40.4034 42.1754 40.3704 42.113 40.325L36.193 36.025L29.568 39.636L29.474 39.678C28.559 39.988 27.496 39.835 26.607 39.294L20.19 35.386C18.65 34.448 18.191 32.476 19.177 30.99C20.151 29.521 22.17 29.09 23.695 30.018L28.819 33.138L35.141 29.7L35.178 29.672C35.2036 29.656 35.2303 29.642 35.258 29.63L35.346 29.6ZM36.751 30.755C36.3897 30.6638 36.0112 30.6659 35.651 30.761L35.737 30.741L29.09 34.358C29.0134 34.3996 28.9286 34.4241 28.8415 34.4296C28.7545 34.4351 28.6673 34.4216 28.586 34.39L28.492 34.343L23.072 31.043C22.093 30.448 20.792 30.726 20.176 31.653C19.571 32.567 19.852 33.774 20.815 34.361L27.23 38.269C27.828 38.632 28.525 38.733 29.088 38.542L29.048 38.552L35.952 34.79C36.037 34.7436 36.1319 34.7184 36.2288 34.7167C36.3256 34.715 36.4214 34.7367 36.508 34.78L36.592 34.831L42.718 39.281L42.798 39.299C43.907 39.519 44.631 39.146 44.876 38.409L44.912 38.283C45.141 37.353 44.621 36.175 43.463 35.372L36.858 30.786L36.751 30.755ZM14.859 23.705C17.205 23.203 19.539 24.625 20.069 26.895L20.109 27.097C20.507 29.307 19.034 31.441 16.749 31.927C14.401 32.429 12.068 31.009 11.541 28.737C11.011 26.46 12.504 24.208 14.859 23.705ZM18.854 26.996C18.4 25.472 16.764 24.525 15.109 24.878C13.401 25.243 12.335 26.852 12.71 28.466C13.086 30.09 14.781 31.121 16.498 30.754C18.208 30.39 19.273 28.784 18.899 27.167L18.854 26.996ZM38.867 18.977C39.0093 18.977 39.147 19.0276 39.2554 19.1198C39.3638 19.2119 39.436 19.3396 39.459 19.48L39.467 19.577V21.878C39.4671 22.0287 39.4105 22.1739 39.3084 22.2847C39.2064 22.3956 39.0663 22.464 38.9162 22.4763C38.766 22.4887 38.6167 22.4441 38.4979 22.3514C38.3791 22.2587 38.2995 22.1247 38.275 21.976L38.267 21.878V19.578C38.267 19.4189 38.3302 19.2663 38.4427 19.1537C38.5553 19.0412 38.7079 18.978 38.867 18.978V18.977ZM43.352 17.411L43.435 17.48L45.063 19.109C45.1684 19.2151 45.2303 19.3566 45.2368 19.506C45.2432 19.6554 45.1937 19.8018 45.0978 19.9165C45.002 20.0313 44.8667 20.1061 44.7186 20.1263C44.5705 20.1466 44.4201 20.1108 44.297 20.026L44.214 19.956L42.587 18.328C42.4826 18.2218 42.4213 18.0806 42.4152 17.9318C42.4091 17.783 42.4586 17.6372 42.554 17.5229C42.6494 17.4085 42.7839 17.3337 42.9314 17.3131C43.0789 17.2924 43.2288 17.3273 43.352 17.411ZM35.18 17.404C35.2796 17.5033 35.3411 17.6343 35.3539 17.7743C35.3667 17.9143 35.3299 18.0543 35.25 18.17L35.18 18.253L33.552 19.88C33.4461 19.9857 33.3045 20.048 33.155 20.0547C33.0056 20.0614 32.859 20.0121 32.744 19.9163C32.6291 19.8205 32.5541 19.6852 32.5337 19.537C32.5134 19.3887 32.5491 19.2382 32.634 19.115L32.704 19.032L34.331 17.404C34.3867 17.3482 34.4529 17.304 34.5257 17.2738C34.5986 17.2436 34.6766 17.228 34.7555 17.228C34.8343 17.228 34.9124 17.2436 34.9853 17.2738C35.0581 17.304 35.1243 17.3482 35.18 17.404ZM38.921 9.861C39.9495 9.861 40.9359 10.2696 41.6632 10.9968C42.3904 11.7241 42.799 12.7105 42.799 13.739C42.799 14.7675 42.3904 15.7539 41.6632 16.4812C40.9359 17.2084 39.9495 17.617 38.921 17.617C37.8925 17.617 36.9061 17.2084 36.1788 16.4812C35.4516 15.7539 35.043 14.7675 35.043 13.739C35.043 12.7105 35.4516 11.7241 36.1788 10.9968C36.9061 10.2696 37.8925 9.861 38.921 9.861ZM38.921 11.061C38.563 11.0514 38.2067 11.1135 37.8732 11.2439C37.5397 11.3743 37.2357 11.5701 36.9791 11.82C36.7225 12.0698 36.5187 12.3685 36.3795 12.6985C36.2403 13.0284 36.1687 13.3829 36.1688 13.741C36.1689 14.0991 36.2408 14.4536 36.3803 14.7834C36.5197 15.1133 36.7238 15.4118 36.9805 15.6615C37.2373 15.9111 37.5414 16.1068 37.8751 16.2369C38.2087 16.367 38.565 16.4289 38.923 16.419C39.6208 16.3997 40.2836 16.1088 40.7702 15.6083C41.2569 15.1078 41.5291 14.4371 41.5288 13.739C41.5285 13.0409 41.2559 12.3705 40.7689 11.8703C40.2818 11.3702 39.6189 11.0798 38.921 11.061ZM47.061 13.194C47.2116 13.1942 47.3566 13.251 47.4673 13.3531C47.5779 13.4552 47.6462 13.5952 47.6584 13.7453C47.6706 13.8954 47.6259 14.0446 47.5332 14.1633C47.4405 14.282 47.3066 14.3615 47.158 14.386L47.061 14.394H44.759C44.6073 14.3955 44.4607 14.3394 44.3486 14.2371C44.2366 14.1348 44.1675 13.9939 44.1552 13.8427C44.1429 13.6914 44.1883 13.5412 44.2824 13.4221C44.3764 13.3031 44.512 13.2241 44.662 13.201L44.759 13.194H47.061ZM33.084 13.085C33.2346 13.0852 33.3796 13.142 33.4903 13.2441C33.6009 13.3462 33.6692 13.4862 33.6814 13.6363C33.6936 13.7864 33.6489 13.9356 33.5562 14.0543C33.4635 14.173 33.3296 14.2525 33.181 14.277L33.084 14.285H30.78C30.6294 14.2848 30.4844 14.2281 30.3737 14.1259C30.2631 14.0238 30.1948 13.8838 30.1826 13.7337C30.1704 13.5836 30.2151 13.4344 30.3078 13.3157C30.4005 13.197 30.5344 13.1175 30.683 13.093L30.78 13.085H33.084ZM45.139 7.597C45.2383 7.69619 45.2997 7.82706 45.3125 7.96683C45.3253 8.1066 45.2886 8.24644 45.209 8.362L45.139 8.446L43.511 10.074C43.4051 10.1797 43.2635 10.242 43.114 10.2487C42.9646 10.2554 42.818 10.2061 42.703 10.1103C42.5881 10.0145 42.5131 9.8792 42.4927 9.73096C42.4724 9.58272 42.5081 9.43223 42.593 9.309L42.663 9.226L44.291 7.597C44.4035 7.48464 44.556 7.42153 44.715 7.42153C44.874 7.42153 45.0265 7.48464 45.139 7.597ZM33.544 7.452L33.628 7.522L35.256 9.149C35.3617 9.2549 35.424 9.39648 35.4307 9.54596C35.4374 9.69543 35.3881 9.84203 35.2923 9.95697C35.1965 10.0719 35.0612 10.1469 34.913 10.1673C34.7647 10.1876 34.6142 10.1519 34.491 10.067L34.408 9.997L32.779 8.37C32.6733 8.2641 32.611 8.12252 32.6043 7.97304C32.5976 7.82357 32.6469 7.67698 32.7427 7.56203C32.8385 7.44708 32.9738 7.37207 33.122 7.35172C33.2703 7.33136 33.4208 7.36713 33.544 7.452ZM38.974 5C39.1165 4.99979 39.2544 5.05028 39.363 5.14244C39.4717 5.23459 39.544 5.36241 39.567 5.503L39.575 5.6V7.903C39.5748 8.05359 39.518 8.19862 39.4159 8.30928C39.3138 8.41995 39.1738 8.48816 39.0237 8.50037C38.8736 8.51259 38.7244 8.46791 38.6057 8.37522C38.487 8.28252 38.4075 8.14859 38.383 8L38.375 7.903V5.6C38.375 5.44087 38.4382 5.28826 38.5507 5.17574C38.6633 5.06321 38.8149 5 38.974 5Z" fill="#101928"/>
</g>
</g>
<defs>
<clipPath id="clip0_2_348">
<rect width="56" height="56" fill="white"/>
</clipPath>
<clipPath id="clip1_2_348">
<rect width="56" height="56" fill="white"/>
</clipPath>
</defs>
</svg>
