<svg width="56" height="56" viewBox="0 0 56 56" fill="none" xmlns="http://www.w3.org/2000/svg">
<g clip-path="url(#clip0_2_286)">
<g clip-path="url(#clip1_2_286)">
<path fill-rule="evenodd" clip-rule="evenodd" d="M2.14201 14.42C2.16452 14.1564 2.25416 13.9029 2.40238 13.6837C2.55059 13.4645 2.75246 13.2869 2.98874 13.1678C3.22503 13.0487 3.48787 12.9921 3.75223 13.0033C4.0166 13.0145 4.27368 13.0933 4.49901 13.232L5.95401 14.126L6.02101 14.173L6.10601 14.243L6.17201 14.305L6.21301 14.348L6.27601 14.428L6.34801 14.535L6.50901 14.817L6.75301 15.285L9.03101 19.822C9.12295 20.0039 9.17812 20.2022 9.19335 20.4054C9.20857 20.6087 9.18357 20.8129 9.11975 21.0065C9.05594 21.2001 8.95458 21.3792 8.82146 21.5335C8.68835 21.6879 8.5261 21.8144 8.34401 21.906L8.12201 22.017L14.927 35.516L17.22 34.361C18.26 33.837 19.614 34.611 21.071 36.257L21.246 36.458C21.697 36.986 21.533 37.799 20.914 38.112L19.844 38.652C19.7409 38.7043 19.6498 38.7775 19.5767 38.8671C19.5035 38.9567 19.4499 39.0605 19.4193 39.172C19.3887 39.2835 19.3818 39.4002 19.3989 39.5146C19.4161 39.6289 19.457 39.7384 19.519 39.836C19.739 40.187 20.235 40.308 20.644 40.102L21.002 39.922C21.2776 39.7819 21.5782 39.6977 21.8864 39.6742C22.1947 39.6507 22.5046 39.6884 22.7982 39.785C23.0919 39.8817 23.3635 40.0354 23.5976 40.2374C23.8316 40.4394 24.0235 40.6856 24.162 40.962C24.3003 41.2341 24.3834 41.5309 24.4065 41.8352C24.4296 42.1395 24.3924 42.4455 24.2968 42.7353C24.2013 43.0252 24.0493 43.2933 23.8498 43.5243C23.6502 43.7552 23.407 43.9444 23.134 44.081L22.692 44.304C22.5886 44.3562 22.4973 44.4294 22.424 44.519C22.3507 44.6086 22.2969 44.7126 22.2662 44.8242C22.2355 44.9358 22.2285 45.0527 22.2457 45.1672C22.2629 45.2817 22.3039 45.3913 22.366 45.489C22.587 45.84 23.083 45.961 23.492 45.755L24.515 45.239C24.66 45.1661 24.8196 45.127 24.9818 45.1246C25.1441 45.1223 25.3047 45.1568 25.4517 45.2255C25.5987 45.2943 25.7282 45.3954 25.8305 45.5214C25.9327 45.6474 26.005 45.795 26.042 45.953C26.579 48.256 26.428 49.923 25.342 50.472L19.683 53.324C18.597 53.872 17.166 53.001 15.634 51.199C15.5291 51.0753 15.4535 50.9293 15.4131 50.7722C15.3727 50.615 15.3685 50.4508 15.4007 50.2917C15.433 50.1327 15.5009 49.9831 15.5993 49.8541C15.6977 49.7251 15.8241 49.6201 15.969 49.547L17.044 49.005C17.1473 48.9529 17.2386 48.8798 17.312 48.7903C17.3853 48.7008 17.439 48.5969 17.4698 48.4853C17.5005 48.3738 17.5075 48.257 17.4903 48.1426C17.4731 48.0282 17.4321 47.9186 17.37 47.821C17.148 47.469 16.653 47.348 16.244 47.554L15.858 47.749C14.613 48.377 13.318 47.855 12.74 46.702C12.159 45.542 12.525 44.195 13.798 43.553L14.143 43.38C14.551 43.174 14.748 42.704 14.597 42.317C14.5556 42.2089 14.4919 42.1107 14.4102 42.0287C14.3284 41.9467 14.2304 41.8827 14.1224 41.841C14.0144 41.7993 13.8988 41.7806 13.7832 41.7863C13.6676 41.792 13.5544 41.8219 13.451 41.874L12.381 42.414C12.2358 42.4871 12.0759 42.5263 11.9133 42.5285C11.7508 42.5308 11.5899 42.496 11.4427 42.427C11.2955 42.3579 11.166 42.2563 11.0638 42.1299C10.9617 42.0034 10.8896 41.8554 10.853 41.697C10.326 39.412 10.481 37.758 11.562 37.213L13.855 36.056L7.05001 22.557L6.82801 22.67C6.48369 22.8436 6.08702 22.8828 5.7154 22.7798C5.34377 22.6768 5.02384 22.4391 4.81801 22.113L4.74501 21.983L2.16401 16.862C2.13675 16.8087 2.11238 16.7539 2.09101 16.698C2.00101 16.462 1.98601 16.248 2.01101 15.879L2.14201 14.42ZM20.008 36.87C18.968 35.745 18.104 35.258 17.76 35.432L12.102 38.283C11.758 38.457 11.636 39.446 11.924 40.957L11.987 41.267L12.91 40.801C13.151 40.6794 13.4139 40.6072 13.6832 40.5885C13.9525 40.5699 14.2228 40.6052 14.4783 40.6924C14.7338 40.7795 14.9693 40.9168 15.171 41.0962C15.3727 41.2756 15.5366 41.4935 15.653 41.737L15.715 41.88C16.097 42.86 15.63 43.973 14.683 44.45L14.337 44.624C13.683 44.954 13.516 45.571 13.813 46.164C14.108 46.751 14.698 46.989 15.318 46.676L15.704 46.482C16.651 46.004 17.824 46.291 18.385 47.18C18.5364 47.4191 18.6362 47.6872 18.6778 47.9671C18.7194 48.247 18.7019 48.5325 18.6266 48.8052C18.5512 49.078 18.4196 49.332 18.2403 49.5508C18.0609 49.7697 17.8377 49.9486 17.585 50.076L16.654 50.544L16.877 50.793C17.872 51.873 18.709 52.375 19.087 52.273L19.143 52.251L24.801 49.399C25.148 49.224 25.269 48.224 24.974 46.699L24.909 46.383L24.032 46.826C23.134 47.278 22.034 47.044 21.444 46.262L21.351 46.127C21.1997 45.8879 21.1001 45.6198 21.0586 45.3399C21.0171 45.0601 21.0346 44.7746 21.1099 44.5019C21.1852 44.2292 21.3168 43.9752 21.4961 43.7564C21.6754 43.5375 21.8985 43.3585 22.151 43.231L22.595 43.008C23.147 42.73 23.376 42.062 23.092 41.503C23.0244 41.3671 22.9305 41.246 22.8158 41.1466C22.701 41.0473 22.5677 40.9717 22.4235 40.9243C22.2794 40.8768 22.1272 40.8585 21.9759 40.8703C21.8246 40.8821 21.6771 40.9238 21.542 40.993L21.184 41.173C20.237 41.65 19.063 41.363 18.503 40.475C18.3517 40.2359 18.2521 39.9678 18.2106 39.6879C18.1691 39.4081 18.1866 39.1226 18.2619 38.8499C18.3372 38.5772 18.4688 38.3232 18.6481 38.1044C18.8274 37.8855 19.0505 37.7065 19.303 37.579L20.226 37.113L20.008 36.87ZM40.224 13C41.084 13 41.803 13.64 41.918 14.495C41.946 14.702 41.968 14.999 41.982 15.345L42 15.9L42.01 16.5L42.008 17.114L42.005 17.418L41.99 18C41.98 18.279 41.967 18.536 41.951 18.753L41.939 18.891L42.391 19.493C42.6101 19.793 42.8222 20.0981 43.027 20.408L43.275 20.798C43.619 21.356 43.862 21.837 43.982 22.229C44.076 22.524 44.127 22.822 44.139 23.119L44.047 22.969C47.194 27.99 47.582 33.921 45.612 39.257C43.838 44.063 40.365 47.602 36.989 47.921C33.9313 48.2099 30.8598 48.3261 27.789 48.269C27.6299 48.2659 27.4785 48.1998 27.3681 48.0851C27.2577 47.9705 27.1975 47.8166 27.2005 47.6575C27.2036 47.4984 27.2697 47.347 27.3844 47.2366C27.4991 47.1262 27.6529 47.0659 27.812 47.069C30.8377 47.1253 33.8642 47.0107 36.877 46.726C39.716 46.458 42.857 43.258 44.487 38.841C46.17 34.281 46.017 29.27 43.747 24.865C43.4888 25.366 43.1278 25.8069 42.6875 26.1588C42.2472 26.5107 41.7376 26.7656 41.192 26.907C40.267 27.154 39.572 27.072 38.72 26.756L38.23 26.581L38.13 26.551L38.062 26.538C38.0537 26.5375 38.0453 26.5375 38.037 26.538L37.997 26.544L37.98 26.551C37.9057 26.5907 37.8412 26.6463 37.791 26.714L37.644 26.88C37.0173 27.5373 36.1831 27.9583 35.282 28.072C34.37 28.192 33.691 28.03 32.927 27.637L32.509 27.417L32.38 27.356C32.3266 27.3305 32.2701 27.312 32.212 27.301C32.142 27.291 32.08 27.315 31.938 27.446L31.778 27.586C30.31 28.796 28.078 28.75 26.668 27.446C26.5862 27.3705 26.4808 27.3255 26.3696 27.3188C26.2584 27.312 26.1484 27.3439 26.058 27.409C24.442 28.564 22.105 28.25 20.815 26.715C20.7433 26.6308 20.6448 26.574 20.5361 26.5539C20.4273 26.5339 20.315 26.5519 20.218 26.605C18.188 27.697 15.788 26.662 14.855 24.879L14.802 24.979C14.2495 26.0763 13.818 27.2304 13.515 28.421C13.4956 28.4974 13.4613 28.5692 13.4141 28.6323C13.3669 28.6954 13.3078 28.7486 13.24 28.7888C13.1723 28.8291 13.0973 28.8556 13.0193 28.8669C12.9413 28.8781 12.8619 28.8739 12.7855 28.8545C12.7091 28.8351 12.6374 28.8008 12.5742 28.7536C12.5111 28.7064 12.4579 28.6473 12.4177 28.5795C12.3774 28.5118 12.3509 28.4368 12.3396 28.3588C12.3284 28.2808 12.3326 28.2014 12.352 28.125C12.7999 26.3646 13.5098 24.6814 14.458 23.132C14.472 22.84 14.525 22.54 14.622 22.237C14.744 21.837 14.987 21.356 15.332 20.797L15.579 20.407L15.713 20.207C15.955 19.847 16.214 19.487 16.473 19.144L16.666 18.89L16.655 18.752C16.623 18.336 16.605 17.776 16.598 17.192L16.597 16.486L16.608 15.802C16.62 15.363 16.64 14.969 16.668 14.68L16.688 14.496C16.7411 14.0836 16.9424 13.7046 17.2542 13.4295C17.566 13.1545 17.9672 13.0022 18.383 13.001L40.224 13ZM41.023 19.667H17.584L17.431 19.866C17.267 20.084 17.102 20.31 16.942 20.536L16.708 20.877L16.465 21.247L16.353 21.425C16.058 21.904 15.855 22.305 15.767 22.593C15.7002 22.8006 15.6645 23.0169 15.661 23.235C15.6659 23.2711 15.6665 23.3077 15.663 23.344C15.724 25.096 17.904 26.487 19.649 25.547C19.9889 25.3632 20.3818 25.302 20.7615 25.3737C21.1412 25.4455 21.4846 25.6458 21.734 25.941L21.854 26.075C22.764 27.018 24.305 27.185 25.359 26.432L25.492 26.346C25.8034 26.1643 26.165 26.0873 26.5235 26.1266C26.8819 26.1658 27.2183 26.3192 27.483 26.564L27.623 26.685C28.633 27.489 30.167 27.449 31.123 26.565L31.254 26.451C31.607 26.171 31.978 26.057 32.376 26.111C32.577 26.139 32.765 26.205 32.984 26.311L33.451 26.556L33.661 26.659C34.141 26.88 34.557 26.956 35.127 26.881C35.8061 26.7971 36.4291 26.4617 36.873 25.941L36.993 25.809C37.155 25.644 37.327 25.522 37.516 25.443C37.813 25.319 38.111 25.312 38.437 25.39C38.55 25.417 38.663 25.453 38.803 25.504L39.019 25.585L39.344 25.702C39.88 25.876 40.304 25.902 40.884 25.747C42.374 25.352 43.251 23.882 42.837 22.586C42.751 22.306 42.547 21.904 42.253 21.426L42.141 21.248C41.835 20.7764 41.5125 20.3158 41.174 19.867L41.023 19.667ZM3.87101 14.254C3.82004 14.2222 3.76175 14.2041 3.70175 14.2014C3.64175 14.1987 3.58206 14.2114 3.52842 14.2385C3.47478 14.2655 3.429 14.3058 3.39548 14.3557C3.36195 14.4055 3.34182 14.4631 3.33701 14.523L3.18701 16.287C3.19001 16.302 3.20201 16.245 3.21301 16.274C3.21953 16.29 3.22688 16.3057 3.23501 16.321L5.81701 21.443C5.85899 21.5259 5.93215 21.5888 6.02045 21.6179C6.10876 21.647 6.20498 21.6398 6.28801 21.598L7.80401 20.834C7.84517 20.8133 7.88184 20.7847 7.91192 20.7498C7.942 20.7149 7.9649 20.6744 7.9793 20.6307C7.9937 20.5869 7.99932 20.5408 7.99584 20.4948C7.99235 20.4489 7.97984 20.4041 7.95901 20.363L5.85001 16.159L5.38601 15.258L5.31901 15.149L5.30601 15.136L3.87101 14.254ZM40.224 14.201H18.383C18.2579 14.2026 18.1377 14.2496 18.0448 14.3334C17.9518 14.4171 17.8926 14.5318 17.878 14.656C17.846 14.9363 17.8259 15.2179 17.818 15.5L17.802 16.062L17.798 16.362L17.797 16.978L17.799 17.285L17.812 17.874C17.818 18.089 17.827 18.291 17.838 18.469L40.768 18.47C40.783 18.215 40.795 17.91 40.801 17.586L40.809 16.979L40.808 16.363L40.798 15.773C40.7952 15.6823 40.7918 15.5916 40.788 15.501L40.763 15.02C40.7554 14.8983 40.7441 14.777 40.729 14.656C40.7144 14.5318 40.6552 14.4171 40.5622 14.3334C40.4693 14.2496 40.3491 14.2026 40.224 14.201Z" fill="#101928"/>
</g>
</g>
<defs>
<clipPath id="clip0_2_286">
<rect width="56" height="56" fill="white"/>
</clipPath>
<clipPath id="clip1_2_286">
<rect width="56" height="56" fill="white"/>
</clipPath>
</defs>
</svg>
