<svg width="56" height="56" viewBox="0 0 56 56" fill="none" xmlns="http://www.w3.org/2000/svg">
<g clip-path="url(#clip0_2_354)">
<g clip-path="url(#clip1_2_354)">
<path fill-rule="evenodd" clip-rule="evenodd" d="M28.077 42.7242C28.2191 42.7242 28.3567 42.7746 28.4651 42.8666C28.5735 42.9585 28.6458 43.0859 28.669 43.2262L28.677 43.3242V47.9062L29.322 47.2612C29.4226 47.1606 29.5557 47.0991 29.6974 47.0876C29.8392 47.076 29.9804 47.1152 30.096 47.1982L30.17 47.2612C30.2709 47.3617 30.3328 47.4949 30.3445 47.6369C30.3563 47.7789 30.3171 47.9204 30.234 48.0362L30.17 48.1102L28.588 49.6922C28.4875 49.7929 28.3545 49.8546 28.2127 49.8663C28.071 49.878 27.9296 49.839 27.814 49.7562L27.74 49.6922L26.157 48.1102C26.0501 48.0037 25.9873 47.8609 25.981 47.7102C25.9747 47.5595 26.0255 47.4119 26.1231 47.2969C26.2207 47.1819 26.358 47.1079 26.5077 47.0896C26.6574 47.0713 26.8086 47.1101 26.931 47.1982L27.006 47.2612L27.477 47.7332V43.3232C27.477 43.2444 27.4925 43.1664 27.5227 43.0936C27.5528 43.0208 27.597 42.9546 27.6527 42.8989C27.7084 42.8432 27.7746 42.799 27.8474 42.7688C27.9202 42.7387 27.9982 42.7242 28.077 42.7242ZM34.631 19.4172C35.514 19.4172 36.257 19.5972 37.199 20.1132L37.521 20.2982C37.631 20.3642 37.745 20.4342 37.861 20.5082L38.221 20.7482L38.409 20.8782L38.805 21.1602L39.45 21.6432L39.919 22.0052L40.687 22.6122L42.154 23.7922L42.446 24.0222L43.004 24.4532L43.53 24.8452C45.486 26.2752 46.792 26.8722 48.174 26.9152L48.303 26.9172L48.402 26.9252C48.942 27.0072 49.105 27.7552 48.596 28.0412C47.647 28.5712 46.693 29.3082 45.566 30.3452L45.304 30.5912L44.546 31.3222L42.324 33.5082L41.978 33.8432C37.349 38.2732 33.611 40.2862 28.138 40.2862H28.168H28.135H28.164C22.692 40.2862 18.954 38.2742 14.325 33.8432L13.908 33.4372L11.708 31.2762L10.988 30.5802L10.738 30.3452C9.60999 29.3082 8.65599 28.5712 7.70799 28.0412C7.19799 27.7562 7.35999 27.0072 7.90099 26.9252L7.99999 26.9172L8.12899 26.9152C9.50999 26.8722 10.816 26.2752 12.773 24.8452L13.298 24.4532L13.856 24.0232L14.148 23.7922L15.615 22.6122L16.384 22.0052L16.853 21.6432L17.29 21.3132L17.7 21.0152C17.83 20.9212 17.958 20.8322 18.082 20.7482L18.442 20.5082C18.558 20.4342 18.672 20.3642 18.782 20.2982L19.103 20.1132C20.046 19.5962 20.789 19.4172 21.672 19.4172C24.286 19.4172 26.459 20.5302 28.152 22.7182C29.843 20.5302 32.016 19.4172 34.631 19.4172ZM10.021 28.1542L10.308 28.3842C10.607 28.6252 10.912 28.8872 11.229 29.1712L11.55 29.4622L11.985 29.8732L13.258 31.1112L14.833 32.6652L15.164 32.9852C19.581 37.2112 23.062 39.0832 28.152 39.0862L28.538 39.0822C33.419 38.9862 36.835 37.1032 41.138 32.9852L41.477 32.6592L43.87 30.3062L44.648 29.5602L45.073 29.1702C45.493 28.7952 45.893 28.4582 46.283 28.1552C43.203 28.2812 41.353 28.7452 38.74 29.7792L37.979 30.0842L37.275 30.3562C34.405 31.4332 32.267 31.8122 28.14 31.8122C23.69 31.8122 21.559 31.3702 18.341 30.0892L17.924 29.9212C15.135 28.7862 13.258 28.2852 10.021 28.1542ZM34.631 20.6172C32.161 20.6172 30.182 21.7602 28.64 24.0972L28.73 23.9672C28.6896 24.0827 28.6147 24.183 28.5155 24.2546C28.4162 24.3261 28.2973 24.3654 28.175 24.3672H28.135C28.0186 24.3673 27.9048 24.3329 27.808 24.2682C27.6986 24.196 27.6161 24.0899 27.573 23.9662L27.663 24.0982C26.121 21.7602 24.141 20.6172 21.672 20.6172C21.148 20.6172 20.659 20.7172 20.082 20.9772L19.809 21.1102C19.5506 21.2451 19.2987 21.3919 19.054 21.5502L18.717 21.7742L18.354 22.0272L17.964 22.3112L17.546 22.6262L16.855 23.1612L16.082 23.7772L15.195 24.4922L14.58 24.9812C14.38 25.1372 14.187 25.2862 13.999 25.4292L13.449 25.8392C12.776 26.3312 12.17 26.7332 11.603 27.0552C13.758 27.2472 15.388 27.6652 17.34 28.4022L18.023 28.6672L19.118 29.1052L19.772 29.3522C22.335 30.2882 24.328 30.6122 28.14 30.6122C31.8 30.6122 33.788 30.3132 36.222 29.4622L36.868 29.2272C37.088 29.1452 37.312 29.0572 37.543 28.9672L37.936 28.8092C40.391 27.8152 42.195 27.2822 44.7 27.0542C44.2455 26.7939 43.8033 26.5126 43.375 26.2112L42.854 25.8392L42.304 25.4292L41.724 24.9812L41.108 24.4922L40.221 23.7772L39.448 23.1612L38.758 22.6262L38.338 22.3112L37.948 22.0272L37.586 21.7742L37.248 21.5512L36.933 21.3552C36.015 20.8072 35.356 20.6172 34.631 20.6172ZM21.801 10.4172L21.875 10.4812L23.457 12.0632C23.5638 12.1696 23.6267 12.3125 23.6329 12.4632C23.6392 12.6139 23.5885 12.7614 23.4909 12.8764C23.3933 12.9914 23.256 13.0654 23.1063 13.0837C22.9565 13.102 22.8054 13.0633 22.683 12.9752L22.609 12.9122L22.137 12.4402V16.8502C22.1368 17.0008 22.08 17.1458 21.9779 17.2565C21.8758 17.3671 21.7357 17.4353 21.5857 17.4475C21.4356 17.4598 21.2864 17.4151 21.1677 17.3224C21.049 17.2297 20.9695 17.0958 20.945 16.9472L20.937 16.8502V12.2662L20.293 12.9122C20.1923 13.013 20.0591 13.0747 19.9171 13.0862C19.7751 13.0977 19.6336 13.0584 19.518 12.9752L19.444 12.9122C19.3434 12.8116 19.2819 12.6785 19.2704 12.5367C19.2588 12.395 19.298 12.2537 19.381 12.1382L19.444 12.0632L21.026 10.4812C21.1267 10.3804 21.2599 10.3187 21.4019 10.3071C21.5439 10.2956 21.6854 10.335 21.801 10.4182V10.4172ZM35.227 10.4172L35.301 10.4812L36.884 12.0632C36.9908 12.1696 37.0537 12.3125 37.0599 12.4632C37.0662 12.6139 37.0155 12.7614 36.9179 12.8764C36.8203 12.9914 36.683 13.0654 36.5333 13.0837C36.3835 13.102 36.2324 13.0633 36.11 12.9752L36.035 12.9122L35.563 12.4392V16.8492C35.5616 16.9989 35.5044 17.1426 35.4025 17.2523C35.3006 17.3619 35.1614 17.4295 35.0122 17.4418C34.863 17.454 34.7147 17.4101 34.5962 17.3186C34.4778 17.2271 34.3978 17.0946 34.372 16.9472L34.364 16.8502L34.363 12.2672L33.719 12.9122C33.6184 13.0127 33.4853 13.0742 33.3436 13.0858C33.2018 13.0973 33.0605 13.0581 32.945 12.9752L32.871 12.9122C32.7703 12.8117 32.7086 12.6787 32.6969 12.5369C32.6851 12.3952 32.7242 12.2538 32.807 12.1382L32.871 12.0632L34.453 10.4812C34.5536 10.3806 34.6867 10.3191 34.8284 10.3076C34.9702 10.296 35.1114 10.3352 35.227 10.4182V10.4172Z" fill="#101928"/>
</g>
</g>
<defs>
<clipPath id="clip0_2_354">
<rect width="56" height="56" fill="white"/>
</clipPath>
<clipPath id="clip1_2_354">
<rect width="56" height="56" fill="white"/>
</clipPath>
</defs>
</svg>
