<svg width="54" height="54" viewBox="0 0 54 54" fill="none" xmlns="http://www.w3.org/2000/svg">
<g clip-path="url(#clip0_2_164)">
<g clip-path="url(#clip1_2_164)">
<g clip-path="url(#clip2_2_164)">
<path fill-rule="evenodd" clip-rule="evenodd" d="M0 4.82153H52.0714V23.143H0V4.82153Z" fill="#FBD74C"/>
<path d="M43.3929 23.1428C43.629 23.1428 43.857 23.2295 44.0335 23.3864C44.21 23.5434 44.3228 23.7597 44.3504 23.9942L44.3571 24.107V48.2142C44.3571 48.4504 44.2704 48.6783 44.1135 48.8548C43.9565 49.0313 43.7402 49.1441 43.5057 49.1717L43.3929 49.1785H9.64286C9.40668 49.1784 9.17871 49.0917 9.00222 48.9348C8.82572 48.7778 8.71296 48.5616 8.68533 48.327L8.67858 48.2142V24.107C8.67885 23.8613 8.77296 23.6249 8.94168 23.4461C9.1104 23.2674 9.34099 23.1599 9.58635 23.1455C9.8317 23.1311 10.0733 23.2109 10.2618 23.3687C10.4502 23.5264 10.5714 23.7502 10.6004 23.9942L10.6071 24.107V47.2499H42.4286V24.107C42.4286 23.8709 42.5153 23.6429 42.6723 23.4664C42.8292 23.2899 43.0455 23.1771 43.28 23.1495L43.3929 23.1428ZM31.8214 26.0356C32.0772 26.0356 32.3224 26.1372 32.5033 26.318C32.6841 26.4989 32.7857 26.7442 32.7857 26.9999V33.7499C32.7857 34.0056 32.6841 34.2509 32.5033 34.4317C32.3224 34.6126 32.0772 34.7142 31.8214 34.7142H20.25C19.9943 34.7142 19.749 34.6126 19.5682 34.4317C19.3873 34.2509 19.2857 34.0056 19.2857 33.7499V26.9999C19.2857 26.7442 19.3873 26.4989 19.5682 26.318C19.749 26.1372 19.9943 26.0356 20.25 26.0356H31.8214ZM30.8571 27.9642H21.2143V32.7856H30.8571V27.9642ZM47.25 8.67847C47.5057 8.67847 47.751 8.78006 47.9319 8.9609C48.1127 9.14174 48.2143 9.38701 48.2143 9.64275V18.3213C48.2143 18.5771 48.1127 18.8223 47.9319 19.0032C47.751 19.184 47.5057 19.2856 47.25 19.2856H4.82143C4.56569 19.2856 4.32042 19.184 4.13958 19.0032C3.95874 18.8223 3.85715 18.5771 3.85715 18.3213V9.64275C3.85715 9.38701 3.95874 9.14174 4.13958 8.9609C4.32042 8.78006 4.56569 8.67847 4.82143 8.67847H47.25ZM46.2857 10.607H5.78572V17.357H46.2857V10.607Z" fill="#101928"/>
</g>
</g>
</g>
<defs>
<clipPath id="clip0_2_164">
<rect width="54" height="54" fill="white"/>
</clipPath>
<clipPath id="clip1_2_164">
<rect width="54" height="54" fill="white"/>
</clipPath>
<clipPath id="clip2_2_164">
<rect width="54" height="54" fill="white"/>
</clipPath>
</defs>
</svg>
