<svg width="82" height="25" viewBox="0 0 82 25" fill="none" xmlns="http://www.w3.org/2000/svg">
<g clip-path="url(#clip0_2_619)">
<path d="M51.6207 2.10437H55.5283V10.2212C56.8309 8.31729 59.5362 7.71604 61.7405 8.61792C63.9448 9.51979 64.6461 11.1231 64.7463 11.3235C64.9467 11.8246 65.1471 12.3256 65.2473 12.8267C65.8485 16.4342 64.6461 20.0417 65.7483 23.549H61.9408C60.9389 21.0437 61.5401 18.2379 61.5401 15.6325C61.5401 14.931 61.5401 14.1294 61.1393 13.4279C60.6383 12.526 59.6364 11.8246 58.6344 11.8246C57.5323 11.8246 56.5303 12.4258 56.0293 13.3277C55.6285 14.1294 55.6285 15.1315 55.6285 16.0333V23.549H51.7209L51.6207 2.10437ZM36.0904 15.7327C36.1906 11.4237 33.4854 8.21708 29.2771 8.21708C26.4717 8.21708 24.067 9.62 22.7644 12.025C21.3617 14.6304 21.4619 18.3381 23.1652 20.8433C25.6701 24.2504 30.7801 25.0521 35.6896 22.7473L34.4873 19.6408C30.3793 21.4446 25.9707 20.9435 25.6701 17.2358H36.0904V15.7327ZM25.7703 14.2296C26.0709 13.4279 26.4717 12.8267 27.0728 12.3256C28.2752 11.4237 30.3793 11.3235 31.4814 12.2254C31.9824 12.6262 32.3832 13.3277 32.6838 14.1294H25.7703V14.2296ZM13.1457 13.929C13.1457 13.929 13.1457 11.6242 11.242 11.6242H6.93356V23.7494H3.02594V11.6242H0.0200806V8.31729H3.02594V5.71187C3.02594 3.40708 5.13005 0 9.73904 0C14.348 0 16.1515 3.90812 16.1515 3.90812L13.1457 6.0125C13.1457 6.0125 12.3441 3.50729 9.83923 3.50729C8.73708 3.50729 7.03376 4.40917 7.03376 6.21292V8.21708H13.1457C15.851 8.21708 16.5523 10.2212 16.5523 10.2212C17.5543 7.81625 21.1613 8.11687 21.8627 8.21708V11.3235C19.3578 11.1231 17.0533 12.526 17.0533 15.4321V23.4487H13.1457V13.929ZM49.0156 16.2337C47.8133 15.0312 44.7072 14.6304 42.7033 14.2296C41.7014 14.0292 40.8998 13.8287 40.8998 12.8267C40.8998 11.6242 42.1022 11.3235 43.3045 11.3235C44.5068 11.3235 45.7092 11.8246 46.4106 12.8267L49.4164 11.2233C47.7131 8.21708 43.2043 7.61583 40.2986 8.81833C39.3969 9.21917 38.6955 9.82042 38.1945 10.5219C37.0924 12.025 37.1926 14.6304 38.4951 15.8329C39.1965 16.5344 40.3988 17.0354 41.9018 17.336L44.7072 17.8371C45.7092 18.0375 46.611 18.2379 46.611 19.3402C46.611 20.6429 45.2082 20.9435 44.0059 20.9435C40.7996 20.9435 40.1984 17.9373 40.1984 17.9373L36.4912 19.0396C36.6916 20.0417 37.9941 24.05 43.9057 24.05C47.2121 24.05 50.1178 22.7473 50.218 19.24C50.1178 17.9373 49.717 16.9352 49.0156 16.2337ZM81.3788 20.8433C80.6774 20.8433 80.0762 20.4425 80.0762 19.4404C80.0762 18.9394 79.976 17.2358 79.976 16.835C79.976 14.2296 80.0762 11.7244 78.2727 9.92062C76.2688 7.91646 71.6598 7.71604 69.2551 9.31938C68.3534 9.82042 67.5518 10.5219 66.9506 11.4237L69.2551 13.8287C70.1569 12.3256 71.4594 11.6242 72.9623 11.6242C74.3651 11.524 75.5674 12.2254 76.0684 13.6283C72.9623 14.43 68.9545 14.7306 67.2512 17.9373C66.4496 19.4404 66.65 21.3444 67.8524 22.6471C68.7541 23.6492 70.2571 23.9498 71.6598 23.9498C73.8641 23.9498 75.9682 23.4487 77.2707 21.4446C77.9721 23.1481 79.475 23.9498 81.2786 23.9498C81.5791 23.9498 81.8797 23.8496 82.0801 23.7494V20.7431C81.8797 20.8433 81.6793 20.8433 81.3788 20.8433ZM76.0684 17.7369C76.1686 19.9415 74.3651 21.144 72.3612 21.144C71.259 21.144 70.5577 20.6429 70.5577 19.5406C70.5577 18.3381 71.5596 17.9373 72.6618 17.6367L76.0684 16.6346V17.7369Z" fill="white"/>
</g>
<defs>
<clipPath id="clip0_2_619">
<rect width="82" height="24.05" fill="white"/>
</clipPath>
</defs>
</svg>
