<svg width="20" height="20" viewBox="0 0 20 20" fill="none" xmlns="http://www.w3.org/2000/svg">
<path fill-rule="evenodd" clip-rule="evenodd" d="M17.525 5.18327C17.642 5.30046 17.7078 5.45931 17.7078 5.62494C17.7078 5.79056 17.642 5.94942 17.525 6.06661L8.77501 14.8166C8.65782 14.9336 8.49896 14.9994 8.33334 14.9994C8.16771 14.9994 8.00886 14.9336 7.89167 14.8166L3.51667 10.4416C3.45527 10.3844 3.40602 10.3154 3.37186 10.2387C3.3377 10.1621 3.31933 10.0793 3.31785 9.99537C3.31637 9.91145 3.3318 9.8281 3.36324 9.75027C3.39467 9.67245 3.44146 9.60176 3.50081 9.54241C3.56016 9.48306 3.63085 9.43627 3.70867 9.40484C3.7865 9.3734 3.86986 9.35796 3.95377 9.35944C4.03769 9.36093 4.12045 9.37929 4.19712 9.41345C4.27379 9.44761 4.34279 9.49687 4.40001 9.55827L8.33334 13.4916L16.6417 5.18327C16.7589 5.06623 16.9177 5.00049 17.0833 5.00049C17.249 5.00049 17.4078 5.06623 17.525 5.18327Z" fill="#0D1619"/>
</svg>
