<svg width="76" height="40" viewBox="0 0 76 40" fill="none" xmlns="http://www.w3.org/2000/svg">
<path fill-rule="evenodd" clip-rule="evenodd" d="M22.968 14.782C23.1084 14.9226 23.1873 15.1132 23.1873 15.312C23.1873 15.5107 23.1084 15.7013 22.968 15.842L18.81 20L22.967 24.157C23.0407 24.2256 23.0998 24.3084 23.1408 24.4004C23.1818 24.4924 23.2038 24.5917 23.2056 24.6924C23.2074 24.7931 23.1888 24.8932 23.1511 24.9866C23.1134 25.0799 23.0573 25.1648 22.986 25.236C22.9148 25.3072 22.83 25.3634 22.7366 25.4011C22.6432 25.4388 22.5432 25.4573 22.4425 25.4556C22.3418 25.4538 22.2425 25.4317 22.1505 25.3907C22.0585 25.3498 21.9757 25.2906 21.907 25.217L17.22 20.53C17.0795 20.3893 17.0007 20.1987 17.0007 20C17.0007 19.8012 17.0795 19.6106 17.22 19.47L21.907 14.782C22.0476 14.6415 22.2382 14.5626 22.437 14.5626C22.6357 14.5626 22.8264 14.6415 22.967 14.782H22.968Z" fill="#ACACAC"/>
<path fill-rule="evenodd" clip-rule="evenodd" d="M53.22 14.782C53.3606 14.6415 53.5513 14.5626 53.75 14.5626C53.9488 14.5626 54.1394 14.6415 54.28 14.782L58.968 19.47C59.1085 19.6106 59.1873 19.8012 59.1873 20C59.1873 20.1987 59.1085 20.3893 58.968 20.53L54.28 25.218C54.2113 25.2916 54.1285 25.3508 54.0365 25.3917C53.9445 25.4327 53.8452 25.4548 53.7445 25.4566C53.6438 25.4583 53.5438 25.4398 53.4504 25.4021C53.357 25.3644 53.2722 25.3082 53.201 25.237C53.1297 25.1658 53.0736 25.0809 53.0359 24.9876C52.9982 24.8942 52.9796 24.7941 52.9814 24.6934C52.9832 24.5927 53.0052 24.4934 53.0462 24.4014C53.0872 24.3094 53.1463 24.2266 53.22 24.158L57.377 20L53.22 15.843C53.0796 15.7023 53.0007 15.5117 53.0007 15.313C53.0007 15.1142 53.0796 14.9226 53.22 14.782Z" fill="#0D1619"/>
</svg>
