<svg width="56" height="56" viewBox="0 0 56 56" fill="none" xmlns="http://www.w3.org/2000/svg">
<g clip-path="url(#clip0_2_317)">
<g clip-path="url(#clip1_2_317)">
<path fill-rule="evenodd" clip-rule="evenodd" d="M9.7 43.178L9.797 43.185C9.95425 43.2089 10.0956 43.2943 10.1899 43.4224C10.2842 43.5505 10.3238 43.7107 10.3 43.868C10.1576 44.7994 10.1671 45.7477 10.328 46.676C10.3604 46.8753 10.4561 47.0588 10.6009 47.1994C10.7457 47.3401 10.9319 47.4304 11.132 47.457L11.243 47.464H45.82C46.265 47.464 46.647 47.154 46.723 46.739C46.8942 45.7927 46.9077 44.8247 46.763 43.874C46.7436 43.7188 46.7856 43.5622 46.88 43.4375C46.9744 43.3128 47.1137 43.2299 47.2683 43.2065C47.423 43.183 47.5806 43.2208 47.7078 43.3119C47.8349 43.403 47.9215 43.5401 47.949 43.694C48.1135 44.7754 48.0979 45.8766 47.903 46.953C47.733 47.895 46.928 48.588 45.98 48.658L45.82 48.664H11.243C10.7393 48.6619 10.2526 48.4818 9.86881 48.1555C9.48507 47.8293 9.22904 47.3778 9.146 46.881C8.96296 45.825 8.95215 44.7464 9.114 43.687C9.13534 43.5463 9.20598 43.4178 9.31332 43.3244C9.42066 43.2309 9.55771 43.1787 9.7 43.177V43.178ZM9.7 37.418L9.797 37.425C9.95425 37.4489 10.0956 37.5343 10.1899 37.6624C10.2842 37.7904 10.3238 37.9507 10.3 38.108C10.1578 39.039 10.1672 39.987 10.328 40.915C10.3602 41.1144 10.4558 41.2982 10.6006 41.439C10.7454 41.5799 10.9317 41.6704 11.132 41.697L11.243 41.704H45.82C46.265 41.704 46.647 41.394 46.723 40.978C46.8942 40.0317 46.9077 39.0637 46.763 38.113C46.7489 38.0341 46.7507 37.9532 46.7684 37.8751C46.786 37.7969 46.8192 37.7231 46.8658 37.6579C46.9125 37.5928 46.9717 37.5377 47.0401 37.4958C47.1084 37.4539 47.1844 37.4262 47.2636 37.4141C47.3428 37.4021 47.4236 37.4061 47.5013 37.4258C47.579 37.4455 47.6519 37.4806 47.7158 37.529C47.7797 37.5773 47.8332 37.638 47.8733 37.7074C47.9133 37.7768 47.9391 37.8535 47.949 37.933C48.1135 39.0148 48.098 40.1163 47.903 41.193C47.733 42.135 46.928 42.828 45.98 42.898L45.82 42.904L36.817 42.903V44.495C36.8157 44.6447 36.7584 44.7884 36.6565 44.8981C36.5546 45.0077 36.4154 45.0753 36.2662 45.0876C36.1171 45.0999 35.9687 45.0559 35.8502 44.9644C35.7318 44.8729 35.6518 44.7404 35.626 44.593L35.618 44.495L35.617 42.903H30.86V44.495C30.8587 44.6447 30.8014 44.7884 30.6995 44.8981C30.5976 45.0077 30.4584 45.0753 30.3092 45.0876C30.1601 45.0999 30.0117 45.0559 29.8932 44.9644C29.7748 44.8729 29.6948 44.7404 29.669 44.593L29.661 44.495L29.66 42.903H11.243C10.7394 42.901 10.2528 42.721 9.86909 42.3949C9.48537 42.0688 9.22926 41.6176 9.146 41.121C8.96296 40.065 8.95215 38.9864 9.114 37.927C9.13534 37.7863 9.20598 37.6578 9.31332 37.5644C9.42066 37.4709 9.55771 37.4197 9.7 37.418ZM45.82 30.184C46.837 30.184 47.723 30.901 47.903 31.896C48.1148 33.0648 48.1148 34.2622 47.903 35.431C47.733 36.374 46.928 37.067 45.98 37.137L45.82 37.143L36.817 37.142V38.732C36.8157 38.8817 36.7584 39.0254 36.6565 39.1351C36.5546 39.2447 36.4154 39.3123 36.2662 39.3246C36.1171 39.3369 35.9687 39.2929 35.8502 39.2014C35.7318 39.1099 35.6518 38.9774 35.626 38.83L35.618 38.733L35.617 37.142H30.86V38.732C30.8587 38.8817 30.8014 39.0254 30.6995 39.1351C30.5976 39.2447 30.4584 39.3123 30.3092 39.3246C30.1601 39.3369 30.0117 39.2929 29.8932 39.2014C29.7748 39.1099 29.6948 38.9774 29.669 38.83L29.661 38.733L29.66 37.142H11.244C10.7403 37.1402 10.2534 36.9604 9.86948 36.6343C9.48555 36.3081 9.22928 35.8568 9.146 35.36C8.94722 34.2135 8.95162 33.041 9.159 31.896C9.346 30.863 10.195 30.184 11.449 30.184C11.6081 30.184 11.7607 30.2472 11.8733 30.3597C11.9858 30.4723 12.049 30.6249 12.049 30.784C12.049 30.9431 11.9858 31.0957 11.8733 31.2083C11.7607 31.3208 11.6081 31.384 11.449 31.384C10.765 31.384 10.421 31.659 10.339 32.11C10.1573 33.1162 10.1539 34.1466 10.329 35.154C10.3611 35.3533 10.4566 35.5369 10.6012 35.6778C10.7458 35.8186 10.9319 35.9092 11.132 35.936L11.244 35.943H45.82C46.265 35.943 46.647 35.633 46.723 35.217C46.9091 34.1897 46.9091 33.1373 46.723 32.11C46.685 31.9211 46.5875 31.7493 46.4448 31.6197C46.3021 31.4902 46.1217 31.4097 45.93 31.39L45.82 31.384H36.817V32.974C36.8154 33.1236 36.758 33.2672 36.656 33.3767C36.554 33.4861 36.4149 33.5535 36.2657 33.5657C36.1166 33.5778 35.9684 33.5338 35.85 33.4423C35.7317 33.3508 35.6518 33.2184 35.626 33.071L35.618 32.974L35.617 31.384H30.86V32.974C30.8584 33.1236 30.801 33.2672 30.699 33.3767C30.597 33.4861 30.4579 33.5535 30.3087 33.5657C30.1596 33.5778 30.0114 33.5338 29.893 33.4423C29.7747 33.3508 29.6948 33.2184 29.669 33.071L29.661 32.974L29.66 31.384H24.817C24.6664 31.3838 24.5214 31.3271 24.4107 31.2249C24.3001 31.1228 24.2318 30.9828 24.2196 30.8327C24.2074 30.6826 24.2521 30.5334 24.3448 30.4147C24.4375 30.296 24.5714 30.2165 24.72 30.192L24.817 30.184H45.82ZM18.577 19.042C22.054 19.258 24.879 22.083 25.094 25.56C25.1525 26.4784 25.0287 27.3992 24.7298 28.2695C24.4309 29.1399 23.9627 29.9425 23.3523 30.6311C22.742 31.3198 22.0014 31.8809 21.1732 32.2821C20.3451 32.6833 19.4457 32.9168 18.527 32.969C18.27 32.983 18.009 32.969 17.703 32.933C15.647 32.689 13.886 31.345 13.205 29.443C12.7409 28.1501 12.76 26.7329 13.259 25.453C13.4785 24.8896 13.8069 24.375 14.2253 23.9385C14.6438 23.502 15.1441 23.1522 15.6977 22.9091C16.2514 22.666 16.8475 22.5343 17.452 22.5216C18.0565 22.5089 18.6576 22.6154 19.221 22.835C19.6865 23.0163 20.1116 23.2875 20.4722 23.6331C20.8329 23.9788 21.1219 24.3921 21.3227 24.8494C21.5236 25.3068 21.6324 25.7992 21.6429 26.2986C21.6534 26.798 21.5654 27.2946 21.384 27.76C21.2331 28.147 21.0075 28.5005 20.72 28.8003C20.4325 29.1001 20.0887 29.3404 19.7084 29.5073C19.328 29.6743 18.9185 29.7647 18.5032 29.7734C18.0879 29.7821 17.675 29.7089 17.288 29.558C16.9638 29.4316 16.6676 29.2425 16.4164 29.0016C16.1653 28.7607 15.964 28.4726 15.8242 28.1539C15.6843 27.8352 15.6086 27.4921 15.6014 27.1442C15.5941 26.7962 15.6555 26.4502 15.782 26.126C15.8398 25.9777 15.9542 25.8585 16.0999 25.7946C16.2456 25.7306 16.4107 25.7272 16.559 25.785C16.7073 25.8428 16.8265 25.9572 16.8904 26.1029C16.9544 26.2486 16.9578 26.4137 16.9 26.562C16.8308 26.7394 16.7972 26.9287 16.8011 27.1191C16.8051 27.3095 16.8465 27.4973 16.923 27.6717C16.9995 27.8461 17.1096 28.0037 17.2471 28.1355C17.3845 28.2673 17.5466 28.3708 17.724 28.44C17.9642 28.5336 18.2205 28.5791 18.4782 28.5736C18.7359 28.5682 18.9901 28.5121 19.2261 28.4085C19.4622 28.3049 19.6755 28.1557 19.8539 27.9697C20.0324 27.7836 20.1724 27.5642 20.266 27.324C20.3902 27.0055 20.4504 26.6656 20.4433 26.3238C20.4361 25.982 20.3617 25.645 20.2243 25.3319C20.0868 25.0189 19.8891 24.736 19.6423 24.4994C19.3955 24.2628 19.1045 24.0771 18.786 23.953C18.3695 23.7905 17.925 23.7116 17.4779 23.7209C17.0309 23.7302 16.5901 23.8274 16.1806 24.0071C15.7712 24.1868 15.4012 24.4454 15.0917 24.7681C14.7822 25.0909 14.5394 25.4714 14.377 25.888C13.9831 26.8985 13.9682 28.0174 14.335 29.038C14.859 30.502 16.231 31.55 17.845 31.741C18.088 31.771 18.283 31.781 18.461 31.771C19.2218 31.7277 19.9664 31.5343 20.6521 31.202C21.3378 30.8696 21.9509 30.4049 22.4562 29.8345C22.9615 29.2642 23.349 28.5995 23.5962 27.8787C23.8435 27.158 23.9457 26.3954 23.897 25.635C23.719 22.762 21.376 20.419 18.502 20.24C17.6043 20.1823 16.7055 20.3351 15.8772 20.6863C15.049 21.0374 14.3142 21.5771 13.7315 22.2624C13.1487 22.9478 12.7341 23.7597 12.5206 24.6336C12.3072 25.5075 12.3008 26.4192 12.502 27.296C12.5195 27.3728 12.5218 27.4523 12.5086 27.53C12.4954 27.6077 12.467 27.682 12.4251 27.7488C12.3831 27.8155 12.3285 27.8733 12.2642 27.9189C12.1999 27.9645 12.1273 27.997 12.0505 28.0145C11.8953 28.0499 11.7325 28.0222 11.5977 27.9376C11.531 27.8956 11.4732 27.841 11.4276 27.7767C11.382 27.7124 11.3495 27.6398 11.332 27.563C11.0894 26.5044 11.0974 25.4038 11.3552 24.3488C11.613 23.2938 12.1136 22.3135 12.8171 21.4861C13.5206 20.6587 14.4075 20.007 15.4073 19.5828C16.4071 19.1587 17.4922 18.9738 18.576 19.043L18.577 19.042ZM30.758 11L30.92 11.749L30.983 12.118L31.029 12.452C31.251 14.198 31.209 16.09 30.728 17.917C33.691 17.037 36.8 17.437 39.962 19.41C40.286 19.611 40.392 20.026 40.207 20.355C37.11 25.936 32.103 27.31 26.484 25.975C26.3325 25.9351 26.2027 25.8375 26.1222 25.7031C26.0418 25.5687 26.017 25.4082 26.0533 25.2558C26.0896 25.1034 26.1841 24.9713 26.3165 24.8876C26.4489 24.8039 26.6088 24.7754 26.762 24.808C31.712 25.984 36.02 24.899 38.83 20.334L38.92 20.184L38.702 20.06C35.788 18.443 32.988 18.3 30.304 19.325L30.249 19.348C29.9089 20.1793 29.4509 20.9573 28.889 21.658C28.8402 21.7212 28.7793 21.774 28.7098 21.8134C28.6403 21.8527 28.5637 21.8778 28.4844 21.8872C28.4051 21.8965 28.3247 21.89 28.248 21.8678C28.1712 21.8457 28.0997 21.8085 28.0375 21.7584C27.9753 21.7083 27.9238 21.6463 27.8859 21.576C27.848 21.5057 27.8246 21.4285 27.8169 21.349C27.8092 21.2696 27.8175 21.1893 27.8412 21.1131C27.8649 21.0368 27.9036 20.9661 27.955 20.905C28.605 20.098 29.087 19.167 29.415 18.133C29.951 16.45 30.051 14.653 29.882 12.986L29.842 12.636L29.618 12.74L29.398 12.846C28.545 13.271 27.692 13.796 26.898 14.426C25.294 15.7 24.145 17.229 23.631 19.026C23.6097 19.1022 23.5736 19.1734 23.5248 19.2355C23.4759 19.2977 23.4152 19.3496 23.3462 19.3882C23.2772 19.4268 23.2013 19.4514 23.1227 19.4606C23.0442 19.4698 22.9646 19.4633 22.8886 19.4417C22.8126 19.42 22.7416 19.3835 22.6797 19.3343C22.6178 19.2851 22.5662 19.2241 22.528 19.1549C22.4897 19.0857 22.4655 19.0096 22.4568 18.931C22.448 18.8525 22.4549 18.7729 22.477 18.697C23.067 16.632 24.367 14.904 26.152 13.487C27.1929 12.6648 28.3357 11.9804 29.552 11.451L29.938 11.291L30.118 11.224L30.758 11Z" fill="#101928"/>
</g>
</g>
<defs>
<clipPath id="clip0_2_317">
<rect width="56" height="56" fill="white"/>
</clipPath>
<clipPath id="clip1_2_317">
<rect width="56" height="56" fill="white"/>
</clipPath>
</defs>
</svg>
