<svg width="56" height="56" viewBox="0 0 56 56" fill="none" xmlns="http://www.w3.org/2000/svg">
<g clip-path="url(#clip0_2_304)">
<g clip-path="url(#clip1_2_304)">
<path fill-rule="evenodd" clip-rule="evenodd" d="M31.0437 21.5135C32.7993 21.5283 35.1032 21.937 37.6929 23.0078C41.6178 24.6309 45.2942 27.4515 48.4518 31.7271L48.7102 32.0779L48.4518 32.4276C45.2942 36.7043 41.6178 39.5239 37.6939 41.1469C35.1032 42.2178 32.7993 42.6265 31.0387 42.6422H30.5426C28.7879 42.6265 26.4841 42.2178 23.8933 41.1469C23.2548 40.8826 22.6286 40.5892 22.0169 40.2676L21.9618 40.2804L21.7536 40.2961C21.727 40.2989 21.7004 40.3022 21.674 40.306L21.4716 40.3423C21.1493 40.4111 20.8261 40.5368 20.5284 40.7284C19.9458 41.1017 19.5175 41.6883 19.2984 42.5597C19.2821 42.6373 19.2503 42.7109 19.2048 42.7759C19.1594 42.841 19.1013 42.8962 19.0341 42.9383C18.9668 42.9803 18.8917 43.0084 18.8134 43.0207C18.735 43.0331 18.6549 43.0295 18.578 43.0102C18.501 42.9909 18.4288 42.9562 18.3655 42.9083C18.3023 42.8604 18.2494 42.8002 18.21 42.7313C18.1706 42.6625 18.1454 42.5864 18.1361 42.5076C18.1268 42.4288 18.1335 42.349 18.1558 42.2728C18.4486 41.1067 19.0597 40.2706 19.8908 39.7361C20.0894 39.6084 20.2984 39.4976 20.5157 39.405C19.91 39.0277 19.3218 38.6228 18.7531 38.1917L18.6185 38.2222L18.3621 38.2929C17.8905 38.4304 17.419 38.626 16.9847 38.8824C16.0533 39.4325 15.4177 40.189 15.1799 41.1931C15.1621 41.2685 15.1297 41.3396 15.0844 41.4024C15.0391 41.4652 14.9819 41.5184 14.916 41.5591C14.8502 41.5998 14.7769 41.6271 14.7005 41.6395C14.6241 41.6519 14.546 41.6491 14.4706 41.6313C14.3953 41.6135 14.3242 41.581 14.2614 41.5357C14.1986 41.4904 14.1453 41.4332 14.1046 41.3674C14.0639 41.3015 14.0366 41.2283 14.0242 41.1518C14.0118 41.0754 14.0146 40.9973 14.0324 40.922C14.3517 39.574 15.1966 38.57 16.3844 37.8675C16.7806 37.635 17.1985 37.4415 17.6322 37.2898C17.0434 36.7904 16.4773 36.2649 15.9354 35.7149L15.8726 35.71C15.5168 35.6901 15.1599 35.7099 14.8086 35.769C14.1965 35.8629 13.6071 36.0698 13.0706 36.3791C12.0223 36.9882 11.201 37.9952 10.6882 39.5013C10.6643 39.576 10.6259 39.6451 10.5751 39.7047C10.5242 39.7643 10.462 39.8132 10.3921 39.8485C10.3221 39.8838 10.2458 39.9048 10.1677 39.9102C10.0895 39.9157 10.0111 39.9055 9.93691 39.8803C9.86273 39.8551 9.79432 39.8154 9.73568 39.7634C9.67704 39.7115 9.62934 39.6484 9.59537 39.5778C9.5614 39.5072 9.54185 39.4305 9.53785 39.3523C9.53385 39.274 9.54549 39.1958 9.57208 39.1221C10.1763 37.3468 11.1833 36.1128 12.4782 35.3593C13.2091 34.9324 14.0201 34.6609 14.8606 34.5615C14.2534 33.8766 13.6774 33.1646 13.1345 32.4276L13.2956 32.6428L13.1905 32.633C12.861 32.5962 12.5333 32.5457 12.208 32.4817C11.1746 32.2857 10.1718 31.953 9.22626 31.4923C6.95285 30.3664 5.3937 28.5636 4.92212 25.9709C4.89832 25.8191 4.93479 25.6639 5.02375 25.5385C5.11271 25.4132 5.24713 25.3275 5.39834 25.2998C5.54956 25.2722 5.7056 25.3046 5.8332 25.3904C5.96081 25.4761 6.04987 25.6083 6.08142 25.7587C6.48128 27.9535 7.78794 29.4645 9.74892 30.4352C10.5997 30.8567 11.5164 31.1455 12.434 31.3243C12.6747 31.3715 12.9026 31.4088 13.1138 31.4363L13.3339 31.4609C14.0111 30.5605 14.738 29.6986 15.511 28.879C14.7467 28.7615 14.0114 28.5008 13.3437 28.1107C12.0489 27.3572 11.0418 26.1242 10.4366 24.3479C10.3897 24.2008 10.4024 24.0411 10.4719 23.9033C10.5415 23.7654 10.6624 23.6603 10.8086 23.6107C10.9548 23.561 11.1147 23.5706 11.2538 23.6376C11.393 23.7046 11.5003 23.8234 11.5527 23.9687C12.0665 25.4758 12.8879 26.4818 13.9362 27.0909C14.4724 27.4002 15.0613 27.6074 15.6731 27.702C16.0032 27.7551 16.3039 27.7728 16.5573 27.7678L16.6281 27.7629C17.3574 27.0738 18.1267 26.4282 18.9319 25.8295C18.5384 25.687 18.1589 25.5084 17.7982 25.296C16.6094 24.5935 15.7645 23.5885 15.4462 22.2415C15.4284 22.1662 15.4256 22.0881 15.438 22.0116C15.4504 21.9352 15.4777 21.862 15.5184 21.7961C15.5591 21.7302 15.6123 21.673 15.6751 21.6278C15.7379 21.5825 15.809 21.55 15.8844 21.5322C15.9597 21.5144 16.0378 21.5116 16.1142 21.524C16.1907 21.5364 16.2639 21.5637 16.3298 21.6044C16.3956 21.6451 16.4529 21.6983 16.4981 21.7611C16.5434 21.8239 16.5759 21.895 16.5937 21.9704C16.8314 22.9754 17.4661 23.73 18.3985 24.2801C18.8337 24.5375 19.3043 24.7321 19.7759 24.8706L20.0323 24.9403L20.1669 24.9708C21.3773 24.1848 22.623 23.5344 23.8933 23.0078C26.4841 21.937 28.7879 21.5283 30.5485 21.5135H31.0437ZM31.0397 22.6925H30.5524C28.9412 22.7062 26.7847 23.0884 24.3433 24.0974C23.0571 24.6305 21.825 25.2859 20.664 26.0544C20.6352 26.0801 20.6031 26.1018 20.5687 26.1193C19.4115 26.8935 18.3244 27.7676 17.3197 28.7316C17.3032 28.7535 17.2841 28.7733 17.2627 28.7906C16.1011 29.9099 15.0374 31.1267 14.0835 32.4276L14.3458 32.0769L14.4097 32.1614C17.2519 35.8751 20.498 38.3803 23.9454 39.8884L24.3443 40.0574C26.7847 41.0664 28.9402 41.4495 30.5475 41.4623H31.0338C32.646 41.4495 34.8025 41.0664 37.243 40.0574C40.9724 38.5149 44.4758 35.8279 47.5037 31.7271L47.2394 32.0769L47.1776 31.9934C44.3343 28.2797 41.0893 25.7754 37.6418 24.2674L37.243 24.0974C34.8025 23.0884 32.646 22.7062 31.0397 22.6925ZM30.7941 25.2754C32.5983 25.2755 34.3285 25.9923 35.6041 27.2681C36.8797 28.5439 37.5963 30.2742 37.5961 32.0784C37.596 33.8825 36.8792 35.6127 35.6034 36.8883C34.3276 38.164 32.5973 38.8805 30.7931 38.8804C28.989 38.8804 27.2587 38.1637 25.983 36.888C24.7073 35.6123 23.9906 33.882 23.9906 32.0779C23.9906 30.2737 24.7073 28.5435 25.983 27.2678C27.2587 25.992 28.99 25.2754 30.7941 25.2754ZM23.1113 25.6919C23.1738 25.7379 23.2265 25.7957 23.2666 25.862C23.3067 25.9284 23.3333 26.002 23.3449 26.0787C23.3565 26.1553 23.3528 26.2335 23.3342 26.3088C23.3155 26.384 23.2822 26.4548 23.2361 26.5172C22.0725 28.0984 21.4342 30.0047 21.4112 31.9678C21.3881 33.9308 21.9813 35.8516 23.1074 37.4598C23.1519 37.5232 23.1835 37.5947 23.2003 37.6704C23.2172 37.746 23.219 37.8242 23.2056 37.9005C23.1923 37.9768 23.164 38.0497 23.1224 38.1151C23.0809 38.1805 23.0269 38.2371 22.9635 38.2816C22.9 38.3261 22.8285 38.3577 22.7529 38.3746C22.6772 38.3914 22.599 38.3932 22.5227 38.3798C22.4464 38.3665 22.3735 38.3382 22.3081 38.2967C22.2427 38.2551 22.1861 38.2011 22.1416 38.1377C20.8736 36.3272 20.2056 34.1645 20.2317 31.9543C20.2577 29.7441 20.9766 27.5977 22.287 25.8177C22.3329 25.7551 22.3906 25.7023 22.457 25.6621C22.5233 25.6219 22.5969 25.5952 22.6736 25.5835C22.7502 25.5719 22.8284 25.5754 22.9037 25.594C22.979 25.6126 23.0489 25.6459 23.1113 25.6919ZM39.5969 26.2421C40.7465 27.9711 41.3584 30.0016 41.3555 32.0779C41.3555 34.2314 40.769 36.1993 39.6765 37.8645C39.6351 37.9315 39.5807 37.9895 39.5165 38.0351C39.4523 38.0807 39.3796 38.1129 39.3027 38.13C39.2259 38.147 39.1464 38.1485 39.0689 38.1343C38.9915 38.1201 38.9177 38.0905 38.8518 38.0474C38.786 38.0042 38.7295 37.9482 38.6856 37.8828C38.6418 37.8175 38.6114 37.7439 38.5965 37.6666C38.5815 37.5893 38.5821 37.5098 38.5984 37.4328C38.6146 37.3558 38.6462 37.2827 38.6911 37.2181C39.6569 35.7444 40.1756 34.0025 40.1756 32.0779C40.1789 30.2339 39.636 28.4302 38.6154 26.8944C38.5289 26.7642 38.4977 26.6049 38.5287 26.4516C38.5596 26.2983 38.6502 26.1635 38.7805 26.077C38.9108 25.9905 39.0701 25.9593 39.2234 25.9903C39.3767 26.0212 39.5104 26.1118 39.5969 26.2421ZM30.7941 26.4543C29.3027 26.4543 27.8723 27.0468 26.8176 28.1014C25.763 29.156 25.1705 30.5864 25.1705 32.0779C25.1705 33.5693 25.763 34.9997 26.8176 36.0544C27.8723 37.109 29.3027 37.7015 30.7941 37.7015C32.2856 37.7015 33.716 37.109 34.7706 36.0544C35.8252 34.9997 36.4177 33.5693 36.4177 32.0779C36.4177 30.5864 35.8252 29.156 34.7706 28.1014C33.716 27.0468 32.2856 26.4543 30.7941 26.4543ZM27.4341 9.33304L27.7927 9.43915L47.1609 15.5205C47.9467 15.765 48.6133 16.2933 49.0308 17.0025C49.4483 17.7117 49.5867 18.551 49.419 19.3567C49.2513 20.1624 48.7895 20.8768 48.1238 21.3605C47.458 21.8443 46.6359 22.0627 45.8178 21.9733L45.6272 21.9478L45.0161 21.8407L24.5968 15.6463C22.7193 15.0767 20.7293 14.9845 18.8072 15.3781L18.424 15.4636L13.5943 16.6209C13.4499 16.6565 13.2974 16.6363 13.1674 16.5642C13.0373 16.4922 12.9393 16.3736 12.8929 16.2323C12.8466 16.0911 12.8553 15.9375 12.9174 15.8024C12.9795 15.6673 13.0904 15.5607 13.2278 15.5038L13.3192 15.4744L18.1489 14.317C20.2477 13.8137 22.439 13.8421 24.5241 14.3996L24.9387 14.5175L45.2834 20.6951L45.8198 20.7836C46.3399 20.8717 46.8743 20.7638 47.3195 20.4808C47.7647 20.1978 48.0892 19.7598 48.2302 19.2515C48.3713 18.7431 48.3188 18.2005 48.083 17.7286C47.8472 17.2567 47.4448 16.889 46.9536 16.6965L46.8072 16.6455L27.439 10.5641C25.7327 10.0284 23.9268 9.88801 22.1582 10.1534C20.3895 10.4187 18.7044 11.0829 17.2303 12.0957L16.9444 12.2981L9.8845 17.4629C9.765 17.549 9.61758 17.5873 9.47126 17.5702C9.32495 17.553 9.19035 17.4818 9.09397 17.3703C8.99759 17.2589 8.94642 17.1155 8.95054 16.9682C8.95466 16.821 9.01377 16.6806 9.11622 16.5747L9.18892 16.5118L16.2479 11.3471C17.8372 10.1842 19.6705 9.39845 21.6086 9.04949C23.5468 8.70053 25.539 8.7975 27.4341 9.33304Z" fill="#101928"/>
</g>
</g>
<defs>
<clipPath id="clip0_2_304">
<rect width="56" height="55.02" fill="white"/>
</clipPath>
<clipPath id="clip1_2_304">
<rect width="56" height="55.02" fill="white"/>
</clipPath>
</defs>
</svg>
