<svg width="75" height="22" viewBox="0 0 75 22" fill="none" xmlns="http://www.w3.org/2000/svg">
<g clip-path="url(#clip0_1_661)">
<path d="M47.1999 1.92676H50.7743V9.35032C51.9658 7.60899 54.4403 7.0591 56.4566 7.88394C58.4729 8.70878 59.1145 10.1752 59.2061 10.3585C59.3894 10.8167 59.5727 11.275 59.6644 11.7332C60.2143 15.0326 59.1145 18.3319 60.1226 21.5396H56.6399C55.7234 19.2484 56.2733 16.6822 56.2733 14.2994C56.2733 13.6578 56.2733 12.9246 55.9067 12.2831C55.4485 11.4582 54.532 10.8167 53.6155 10.8167C52.6073 10.8167 51.6908 11.3666 51.2326 12.1914C50.866 12.9246 50.866 13.8411 50.866 14.666V21.5396H47.2916L47.1999 1.92676ZM32.9941 14.391C33.0858 10.4501 30.6112 7.51735 26.7619 7.51735C24.1957 7.51735 21.9961 8.80043 20.8046 11C19.5215 13.3829 19.6132 16.7739 21.1712 19.0651C23.4625 22.1812 28.1367 22.9144 32.6275 20.8064L31.5277 17.9653C27.7701 19.615 23.7374 19.1568 23.4625 15.7657H32.9941V14.391ZM23.5541 13.0163C23.8291 12.2831 24.1957 11.7332 24.7456 11.275C25.8454 10.4501 27.7701 10.3585 28.7782 11.1833C29.2365 11.5499 29.6031 12.1914 29.878 12.9246H23.5541V13.0163ZM12.0062 12.7413C12.0062 12.7413 12.0062 10.6334 10.2648 10.6334H6.32387V21.7229H2.74951V10.6334H0V7.60899H2.74951V5.22612C2.74951 3.1182 4.67417 0.00213623 8.89009 0.00213623C13.106 0.00213623 14.7557 3.57644 14.7557 3.57644L12.0062 5.50107C12.0062 5.50107 11.273 3.20985 8.98174 3.20985C7.97358 3.20985 6.41553 4.03469 6.41553 5.68437V7.51735H12.0062C14.4808 7.51735 15.1223 9.35032 15.1223 9.35032C16.0388 7.15075 19.3382 7.4257 19.9798 7.51735V10.3585C17.6885 10.1752 15.5806 11.4582 15.5806 14.1161V21.448H12.0062V12.7413ZM44.817 14.8493C43.7172 13.7495 40.8761 13.3829 39.0431 13.0163C38.1265 12.833 37.3933 12.6497 37.3933 11.7332C37.3933 10.6334 38.4932 10.3585 39.593 10.3585C40.6928 10.3585 41.7926 10.8167 42.4341 11.7332L45.1836 10.2668C43.6256 7.51735 39.5013 6.96745 36.8434 8.06724C36.0186 8.43384 35.377 8.98373 34.9188 9.62527C33.9106 11 34.0023 13.3829 35.1937 14.4827C35.8353 15.1242 36.9351 15.5824 38.3098 15.8574L40.8761 16.3156C41.7926 16.4989 42.6174 16.6822 42.6174 17.6904C42.6174 18.8818 41.3343 19.1568 40.2345 19.1568C37.3017 19.1568 36.7518 16.4073 36.7518 16.4073L33.3607 17.4154C33.544 18.3319 34.7355 21.9979 40.1429 21.9979C43.1673 21.9979 45.8252 20.8064 45.9168 17.5987C45.8252 16.4073 45.4586 15.4908 44.817 14.8493ZM74.4201 19.0651C73.7785 19.0651 73.2286 18.6985 73.2286 17.782C73.2286 17.3238 73.137 15.7657 73.137 15.3992C73.137 13.0163 73.2286 10.7251 71.5789 9.07538C69.7459 7.2424 65.53 7.0591 63.3304 8.52548C62.5055 8.98373 61.7723 9.62527 61.2224 10.4501L63.3304 12.6497C64.1553 11.275 65.3467 10.6334 66.7215 10.6334C68.0046 10.5418 69.1044 11.1833 69.5626 12.4664C66.7215 13.1996 63.0554 13.4745 61.4974 16.4073C60.7642 17.782 60.9475 19.5234 62.0473 20.7148C62.8721 21.6313 64.2469 21.9062 65.53 21.9062C67.5463 21.9062 69.471 21.448 70.6624 19.615C71.304 21.173 72.6787 21.9062 74.3284 21.9062C74.6034 21.9062 74.8783 21.8146 75.0616 21.7229V18.9735C74.8783 19.0651 74.695 19.0651 74.4201 19.0651ZM69.5626 16.224C69.6543 18.2403 68.0046 19.3401 66.1716 19.3401C65.1634 19.3401 64.5219 18.8818 64.5219 17.8737C64.5219 16.7739 65.4384 16.4073 66.4465 16.1323L69.5626 15.2159V16.224Z" fill="#0D1619"/>
</g>
<defs>
<clipPath id="clip0_1_661">
<rect width="74.97" height="22" fill="white"/>
</clipPath>
</defs>
</svg>
