<svg width="18" height="16" viewBox="0 0 18 16" fill="none" xmlns="http://www.w3.org/2000/svg">
<path fill-rule="evenodd" clip-rule="evenodd" d="M9.97037 0.219348C10.111 0.0788923 10.3016 0 10.5004 0C10.6991 0 10.8898 0.0788923 11.0304 0.219348L17.7807 6.9696C17.9211 7.11023 18 7.30086 18 7.49962C18 7.69838 17.9211 7.88901 17.7807 8.02964L11.0304 14.7799C10.9617 14.8536 10.8789 14.9127 10.7869 14.9537C10.6949 14.9947 10.5956 15.0167 10.4949 15.0185C10.3942 15.0203 10.2942 15.0017 10.2008 14.964C10.1074 14.9263 10.0226 14.8702 9.95133 14.7989C9.88011 14.7277 9.82396 14.6429 9.78624 14.5495C9.74852 14.4561 9.72999 14.3561 9.73177 14.2553C9.73355 14.1546 9.75559 14.0553 9.79658 13.9633C9.83758 13.8713 9.89668 13.7885 9.97037 13.7199L15.4406 8.24965H0.750028C0.551108 8.24965 0.360336 8.17063 0.219678 8.02997C0.0790205 7.88931 0 7.69854 0 7.49962C0 7.3007 0.0790205 7.10993 0.219678 6.96927C0.360336 6.82861 0.551108 6.74959 0.750028 6.74959H15.4406L9.97037 1.27939C9.82992 1.13876 9.75102 0.948126 9.75102 0.749368C9.75102 0.55061 9.82992 0.359979 9.97037 0.219348Z" fill="#0D1619"/>
</svg>
