<svg width="16" height="16" viewBox="0 0 16 16" fill="none" xmlns="http://www.w3.org/2000/svg">
<path fill-rule="evenodd" clip-rule="evenodd" d="M7.73875 15.9957C5.62937 15.9268 3.63268 15.0271 2.18363 13.4927C0.734586 11.9583 -0.049415 9.9134 0.00241566 7.80353C0.0542463 5.69367 0.937708 3.68975 2.46035 2.22832C3.983 0.76689 6.02145 -0.0336511 8.13167 0.00108498C10.2419 0.0358211 12.2529 0.90302 13.7266 2.41377C15.2003 3.92453 16.0174 5.95643 15.9997 8.06686C15.9821 10.1773 15.1312 12.1953 13.6324 13.6812C12.1337 15.1671 10.1085 16.0005 7.99795 16L7.73875 15.9957ZM10.6561 8.5344H5.33982C5.45395 12.1397 6.71155 14.9333 7.99795 14.9333L8.10462 14.9269C9.35262 14.7776 10.5452 12.0395 10.6561 8.5344ZM1.08488 8.5344C1.19059 9.89926 1.69767 11.2024 2.5423 12.2797C3.38692 13.357 4.53135 14.1604 5.83155 14.5888C4.92382 13.2363 4.34462 11.0347 4.27208 8.53333L1.08488 8.5344ZM14.911 8.5344H11.7238C11.6513 11.0347 11.0732 13.2363 10.1644 14.5899C11.4644 14.1608 12.6086 13.3569 13.453 12.2792C14.2974 11.2016 14.8043 9.89832 14.91 8.53333L14.911 8.5344ZM14.911 7.46773C14.8057 6.1025 14.2988 4.79893 13.4542 3.72119C12.6095 2.64345 11.4649 1.83972 10.1644 1.4112C11.0732 2.76373 11.6513 4.96533 11.7238 7.46773H14.911ZM5.83262 1.41013L5.62995 1.48267C4.37755 1.9382 3.28282 2.74475 2.47663 3.80593C1.67044 4.8671 1.1869 6.13799 1.08382 7.46667H4.27102C4.34355 4.96533 4.92168 2.76267 5.83048 1.41013H5.83262ZM7.99795 1.06667L7.89128 1.07307C6.64328 1.2224 5.45075 3.96053 5.33982 7.46667H10.6561C10.542 3.86133 9.28435 1.06667 7.99795 1.06667Z" fill="#878C93"/>
</svg>
