<svg width="24" height="24" viewBox="0 0 24 24" fill="none" xmlns="http://www.w3.org/2000/svg">
<path fill-rule="evenodd" clip-rule="evenodd" d="M11.543 22.345C11.6913 22.4411 11.8661 22.488 12.0426 22.4791C12.2191 22.4701 12.3882 22.4057 12.526 22.295C12.9128 22.0075 13.29 21.7073 13.657 21.395C14.6071 20.5881 15.4959 19.7117 16.316 18.773C18.234 16.568 20.25 13.395 20.25 9.75C20.25 7.56196 19.3808 5.46354 17.8336 3.91637C16.2865 2.36919 14.188 1.5 12 1.5C9.81196 1.5 7.71354 2.36919 6.16637 3.91637C4.61919 5.46354 3.75 7.56196 3.75 9.75C3.75 13.395 5.766 16.568 7.684 18.773C8.75289 19.996 9.93776 21.1125 11.222 22.107C11.3275 22.1878 11.4342 22.2672 11.542 22.345H11.543ZM12 3C10.2098 3 8.4929 3.71116 7.22703 4.97703C5.96116 6.2429 5.25 7.95979 5.25 9.75C5.25 12.855 6.984 15.682 8.816 17.79C9.78131 18.8939 10.8472 19.9056 12 20.812C13.1528 19.9053 14.2188 18.8933 15.184 17.789C17.016 15.681 18.75 12.854 18.75 9.749C18.7497 7.95896 18.0385 6.24233 16.7726 4.97668C15.5068 3.71102 13.79 3 12 3Z" fill="#0D1619"/>
<path fill-rule="evenodd" clip-rule="evenodd" d="M12 6C11.0054 6 10.0516 6.39509 9.34835 7.09835C8.64509 7.80161 8.25 8.75544 8.25 9.75C8.25 10.7446 8.64509 11.6984 9.34835 12.4017C10.0516 13.1049 11.0054 13.5 12 13.5C12.9946 13.5 13.9484 13.1049 14.6517 12.4017C15.3549 11.6984 15.75 10.7446 15.75 9.75C15.75 8.75544 15.3549 7.80161 14.6517 7.09835C13.9484 6.39509 12.9946 6 12 6ZM12 7.5C11.4033 7.5 10.831 7.73705 10.409 8.15901C9.98705 8.58097 9.75 9.15326 9.75 9.75C9.75 10.3467 9.98705 10.919 10.409 11.341C10.831 11.7629 11.4033 12 12 12C12.5967 12 13.169 11.7629 13.591 11.341C14.0129 10.919 14.25 10.3467 14.25 9.75C14.25 9.15326 14.0129 8.58097 13.591 8.15901C13.169 7.73705 12.5967 7.5 12 7.5Z" fill="#0D1619"/>
</svg>
