<svg width="56" height="56" viewBox="0 0 56 56" fill="none" xmlns="http://www.w3.org/2000/svg">
<g clip-path="url(#clip0_2_360)">
<g clip-path="url(#clip1_2_360)">
<path fill-rule="evenodd" clip-rule="evenodd" d="M43.413 9.98779C44.4672 9.98779 45.4783 10.4066 46.2238 11.152C46.9692 11.8975 47.388 12.9086 47.388 13.9628V43.6628C47.388 44.717 46.9692 45.7281 46.2238 46.4735C45.4783 47.219 44.4672 47.6378 43.413 47.6378H13.713C12.6588 47.6378 11.6477 47.219 10.9023 46.4735C10.1568 45.7281 9.73801 44.717 9.73801 43.6628V13.9628C9.73801 12.9086 10.1568 11.8975 10.9023 11.152C11.6477 10.4066 12.6588 9.98779 13.713 9.98779H43.413ZM43.413 11.1878H13.713C12.9772 11.1878 12.2715 11.48 11.7511 12.0002C11.2308 12.5204 10.9383 13.226 10.938 13.9618V43.6618C10.9379 44.0262 11.0095 44.3871 11.1489 44.7238C11.2882 45.0605 11.4925 45.3665 11.7501 45.6243C12.0077 45.8821 12.3135 46.0866 12.6501 46.2262C12.9868 46.3658 13.3476 46.4377 13.712 46.4378H43.412C43.7766 46.4379 44.1376 46.3662 44.4745 46.2267C44.8114 46.0873 45.1174 45.8828 45.3752 45.625C45.633 45.3672 45.8375 45.0611 45.977 44.7243C46.1164 44.3874 46.1881 44.0264 46.188 43.6618V13.9618C46.1879 13.5974 46.116 13.2366 45.9764 12.8999C45.8368 12.5633 45.6323 12.2575 45.3745 11.9999C45.1167 11.7423 44.8108 11.538 44.474 11.3986C44.1373 11.2593 43.7774 11.1877 43.413 11.1878ZM28.563 14.7118C35.604 14.7118 41.313 20.4208 41.313 27.4618C41.313 27.6209 41.2498 27.7735 41.1373 27.8861C41.0247 27.9986 40.8721 28.0618 40.713 28.0618H16.411C16.2519 28.0618 16.0993 27.9986 15.9867 27.8861C15.8742 27.7735 15.811 27.6209 15.811 27.4618C15.811 20.4208 21.52 14.7118 28.561 14.7118H28.563ZM28.563 15.9118C22.478 15.9118 17.493 20.6168 17.045 26.5868L17.028 26.8618H28.192L31.401 20.4438C31.4682 20.3086 31.5838 20.2037 31.7248 20.15C31.8659 20.0963 32.022 20.0978 32.162 20.154C32.3021 20.2103 32.4158 20.3173 32.4805 20.4536C32.5451 20.59 32.556 20.7457 32.511 20.8898L32.474 20.9798L29.534 26.8618H40.096L40.08 26.5868C39.64 20.7138 34.807 16.0648 28.856 15.9168L28.563 15.9118Z" fill="#101928"/>
</g>
</g>
<defs>
<clipPath id="clip0_2_360">
<rect width="56" height="56" fill="white"/>
</clipPath>
<clipPath id="clip1_2_360">
<rect width="56" height="56" fill="white"/>
</clipPath>
</defs>
</svg>
