<svg width="54" height="54" viewBox="0 0 54 54" fill="none" xmlns="http://www.w3.org/2000/svg">
<g clip-path="url(#clip0_2_124)">
<g clip-path="url(#clip1_2_124)">
<path fill-rule="evenodd" clip-rule="evenodd" d="M0.964294 7.71436H53.0357V24.1072H0.964294V7.71436Z" fill="#FBD74C"/>
<path d="M37.125 4.82153C37.3612 4.82156 37.5891 4.90828 37.7656 5.06522C37.9421 5.22217 38.0549 5.43843 38.0825 5.673L38.0893 5.78582V10.6072H48.2143C48.4505 10.6073 48.6784 10.694 48.8549 10.8509C49.0314 11.0079 49.1442 11.2241 49.1718 11.4587L49.1786 11.5715V45.3215C49.1786 45.5773 49.077 45.8225 48.8961 46.0034C48.7153 46.1842 48.47 46.2858 48.2143 46.2858H5.7857C5.52995 46.2858 5.28468 46.1842 5.10384 46.0034C4.92301 45.8225 4.82141 45.5773 4.82141 45.3215V11.5715C4.82141 11.3158 4.92301 11.0705 5.10384 10.8897C5.28468 10.7088 5.52995 10.6072 5.7857 10.6072H15.9107V5.78582C15.911 5.54004 16.0051 5.30364 16.1738 5.12493C16.3425 4.94621 16.5731 4.83866 16.8185 4.82426C17.0638 4.80986 17.3054 4.88968 17.4939 5.04743C17.6824 5.20518 17.8035 5.42894 17.8325 5.673L17.8393 5.78582V10.6072H36.1607V5.78582C36.1607 5.53007 36.2623 5.2848 36.4431 5.10397C36.624 4.92313 36.8692 4.82153 37.125 4.82153ZM47.25 20.7322H6.74998V44.3572H47.25V20.7322ZM36.3603 26.3184C36.5263 26.4844 36.6261 26.7053 36.6408 26.9397C36.6555 27.174 36.5843 27.4057 36.4403 27.5912L36.3603 27.6819L24.7889 39.2533C24.6228 39.4193 24.4019 39.5191 24.1676 39.5338C23.9332 39.5485 23.7015 39.4772 23.516 39.3333L23.4254 39.2533L17.6397 33.4676C17.4667 33.294 17.3663 33.0612 17.3588 32.8163C17.3514 32.5714 17.4374 32.3329 17.5994 32.1491C17.7614 31.9654 17.9873 31.8502 18.2312 31.8269C18.4751 31.8037 18.7187 31.8742 18.9125 32.024L19.0032 32.1041L24.1071 37.2071L34.9968 26.3184C35.1776 26.1376 35.4229 26.036 35.6786 26.036C35.9342 26.036 36.1795 26.1376 36.3603 26.3184ZM47.25 12.5358H6.74998V18.8037H47.25V12.5358Z" fill="#101928"/>
</g>
</g>
<defs>
<clipPath id="clip0_2_124">
<rect width="54" height="54" fill="white"/>
</clipPath>
<clipPath id="clip1_2_124">
<rect width="54" height="54" fill="white"/>
</clipPath>
</defs>
</svg>
