<svg width="56" height="56" viewBox="0 0 56 56" fill="none" xmlns="http://www.w3.org/2000/svg">
<g clip-path="url(#clip0_2_341)">
<g clip-path="url(#clip1_2_341)">
<path fill-rule="evenodd" clip-rule="evenodd" d="M34.09 11.1499C39.173 11.1499 43.33 15.3069 43.33 20.3899C43.33 23.3829 41.6 26.9519 38.533 30.9499C38.4858 31.0145 38.4262 31.069 38.3577 31.1102C38.2892 31.1515 38.2131 31.1786 38.1339 31.19C38.0547 31.2014 37.9741 31.1968 37.8967 31.1766C37.8193 31.1564 37.7468 31.1209 37.6833 31.0722C37.6198 31.0236 37.5667 30.9627 37.5271 30.8932C37.4875 30.8237 37.4622 30.747 37.4527 30.6676C37.4432 30.5882 37.4496 30.5077 37.4716 30.4308C37.4937 30.3539 37.5308 30.2822 37.581 30.2199C40.5 26.4139 42.13 23.0519 42.13 20.3899C42.13 15.9699 38.51 12.3499 34.09 12.3499C31.39 12.3499 28.935 13.7219 27.384 15.9779C27.3288 16.0579 27.255 16.1234 27.169 16.1686C27.0829 16.2138 26.9872 16.2374 26.89 16.2374C26.7928 16.2374 26.6971 16.2138 26.611 16.1686C26.5249 16.1234 26.4512 16.0579 26.396 15.9779C24.845 13.7219 22.389 12.3499 19.69 12.3499C15.27 12.3499 11.65 15.9699 11.65 20.3899C11.65 22.2849 12.48 24.5499 14.037 27.0969C15.375 29.2869 17.209 31.6209 19.412 34.0249C21.1327 35.8924 22.9369 37.6812 24.819 39.3859L25.569 40.0609L26.27 40.6759L26.89 41.2069L27.51 40.6769L28.21 40.0609L28.961 39.3859C30.8431 37.6812 32.6473 35.8924 34.368 34.0249C34.589 33.7829 34.808 33.5409 35.023 33.2999L26.572 28.0089C26.4427 27.9297 26.3482 27.8044 26.3076 27.6584C26.2669 27.5123 26.283 27.3563 26.3526 27.2216C26.4223 27.087 26.5404 26.9837 26.6831 26.9325C26.8258 26.8814 26.9827 26.8861 27.122 26.9459L27.208 26.9909L42.375 36.4869L41.518 33.0449C41.4836 32.9069 41.4992 32.7612 41.5623 32.6338C41.6253 32.5063 41.7315 32.4053 41.862 32.3489L41.955 32.3179C42.093 32.2835 42.2387 32.2992 42.3661 32.3622C42.4936 32.4252 42.5946 32.5314 42.651 32.6619L42.682 32.7549L44.032 38.1729C44.0704 38.3273 44.0459 38.4905 43.964 38.6269C43.882 38.7632 43.7493 38.8614 43.595 38.8999L43.506 38.9149L38.106 39.4249C37.9556 39.4397 37.8052 39.3972 37.6848 39.306C37.5644 39.2147 37.4829 39.0814 37.4565 38.9326C37.4301 38.7838 37.4608 38.6306 37.5424 38.5035C37.6241 38.3764 37.7507 38.2847 37.897 38.2469L37.994 38.2299L42.253 37.8269L36.047 33.9399C36.0287 33.9693 36.008 33.9971 35.985 34.0229C35.745 34.2929 35.501 34.5649 35.252 34.8349C33.5072 36.7295 31.6776 38.5444 29.769 40.2739L29.382 40.6239L28.645 41.2789C28.5286 41.3806 28.412 41.4819 28.295 41.5829L27.331 42.4039L27.27 42.4539C27.1628 42.5416 27.0285 42.5896 26.89 42.5896C26.7515 42.5896 26.6172 42.5416 26.51 42.4539L25.954 41.9869L25.484 41.5829L24.774 40.9589C22.5893 39.0257 20.5049 36.9821 18.529 34.8359C16.276 32.3789 14.397 29.9879 13.013 27.7229C11.352 25.0049 10.45 22.5449 10.45 20.3899C10.45 19.5709 10.558 18.7769 10.76 18.0199L4.432 14.0589C4.30273 13.9797 4.20825 13.8544 4.16755 13.7084C4.12686 13.5623 4.14297 13.4063 4.21264 13.2716C4.28232 13.137 4.40039 13.0337 4.54312 12.9825C4.68585 12.9314 4.84265 12.9361 4.982 12.9959L5.068 13.0409L11.157 16.8539C12.552 13.5129 15.857 11.1499 19.69 11.1499C22.486 11.1499 25.05 12.4259 26.823 14.5569L26.89 14.6389L26.957 14.5569C28.665 12.5049 31.106 11.2459 33.78 11.1549L34.09 11.1499Z" fill="#101928"/>
</g>
</g>
<defs>
<clipPath id="clip0_2_341">
<rect width="56" height="56" fill="white"/>
</clipPath>
<clipPath id="clip1_2_341">
<rect width="56" height="56" fill="white"/>
</clipPath>
</defs>
</svg>
