<svg width="170" height="33" viewBox="0 0 170 33" fill="none" xmlns="http://www.w3.org/2000/svg">
<g clip-path="url(#clip0_2_49)">
<path d="M22.8433 0H10.024C4.77508 0 0.519997 4.25509 0.519997 9.504V22.572C0.519997 27.8209 4.77508 32.076 10.024 32.076H22.8433C28.0922 32.076 32.3473 27.8209 32.3473 22.572V9.504C32.3473 4.25509 28.0922 0 22.8433 0Z" fill="#00B67A"/>
<path d="M57.0283 0H44.209C38.96 0 34.705 4.25509 34.705 9.504V22.572C34.705 27.8209 38.96 32.076 44.209 32.076H57.0283C62.2772 32.076 66.5323 27.8209 66.5323 22.572V9.504C66.5323 4.25509 62.2772 0 57.0283 0Z" fill="#00B67A"/>
<path d="M91.2131 0H78.3938C73.1449 0 68.8898 4.25509 68.8898 9.504V22.572C68.8898 27.8209 73.1449 32.076 78.3938 32.076H91.2131C96.462 32.076 100.717 27.8209 100.717 22.572V9.504C100.717 4.25509 96.462 0 91.2131 0Z" fill="#00B67A"/>
<path d="M125.398 0H112.579C107.33 0 103.075 4.25509 103.075 9.504V22.572C103.075 27.8209 107.33 32.076 112.579 32.076H125.398C130.647 32.076 134.902 27.8209 134.902 22.572V9.504C134.902 4.25509 130.647 0 125.398 0Z" fill="#00B67A"/>
<path d="M159.583 0H146.764C141.515 0 137.26 4.25509 137.26 9.504V22.572C137.26 27.8209 141.515 32.076 146.764 32.076H159.583C164.832 32.076 169.087 27.8209 169.087 22.572V9.504C169.087 4.25509 164.832 0 159.583 0Z" fill="#00B67A"/>
<path fill-rule="evenodd" clip-rule="evenodd" d="M16.424 22.8601L12.4826 24.9167C11.702 25.3239 10.7364 25.0261 10.326 24.2513C10.1626 23.9431 10.1062 23.5895 10.1655 23.2458L10.9183 18.8901L7.72971 15.8054C7.57964 15.6607 7.45975 15.4877 7.37699 15.2963C7.29422 15.105 7.25023 14.8992 7.24754 14.6907C7.24485 14.4823 7.28352 14.2754 7.36133 14.082C7.43913 13.8886 7.55451 13.7125 7.7008 13.564C7.94666 13.3141 8.26775 13.1518 8.61476 13.102L13.0213 12.4664L14.9919 8.50352C15.3823 7.71852 16.3398 7.39631 17.1307 7.78359C17.4457 7.93803 17.7006 8.19095 17.8561 8.50352L19.8267 12.4664L24.2331 13.1019C25.1061 13.2278 25.7107 14.0321 25.5839 14.8984C25.5331 15.2438 25.3694 15.5628 25.1183 15.8054L21.9297 18.8902L22.6824 23.2458C22.8316 24.1086 22.2477 24.9279 21.3784 25.0759C21.0323 25.1348 20.6765 25.0788 20.3653 24.9165L16.424 22.8601ZM50.6088 22.8601L46.6676 24.9167C45.8869 25.3239 44.9212 25.0261 44.511 24.2513C44.3476 23.9431 44.2911 23.5895 44.3505 23.2458L45.1031 18.8901L41.9147 15.8054C41.7646 15.6607 41.6447 15.4877 41.5619 15.2964C41.4791 15.105 41.4351 14.8992 41.4324 14.6907C41.4297 14.4823 41.4684 14.2754 41.5462 14.082C41.624 13.8886 41.7394 13.7125 41.8856 13.564C42.1315 13.3141 42.4527 13.1518 42.7997 13.102L47.2062 12.4664L49.1769 8.50352C49.5672 7.71852 50.5248 7.39631 51.3157 7.78359C51.6307 7.93803 51.8856 8.19095 52.0409 8.50352L54.0117 12.4664L58.4181 13.1019C59.2909 13.2278 59.8957 14.0321 59.7689 14.8984C59.7181 15.2439 59.5543 15.5628 59.3032 15.8054L56.1146 18.8902L56.8674 23.2458C57.0165 24.1086 56.4326 24.9279 55.5632 25.0759C55.2172 25.1347 54.8614 25.0788 54.5502 24.9165L50.6088 22.8601ZM84.7938 22.8601L80.8526 24.9167C80.0719 25.3239 79.1062 25.0261 78.6958 24.2513C78.5325 23.9431 78.4761 23.5895 78.5354 23.2458L79.2881 18.8901L76.0995 15.8054C75.9494 15.6607 75.8296 15.4876 75.7468 15.2963C75.6641 15.105 75.6201 14.8991 75.6174 14.6907C75.6147 14.4822 75.6534 14.2753 75.7312 14.0819C75.809 13.8886 75.9244 13.7125 76.0707 13.564C76.3166 13.3141 76.6376 13.1518 76.9846 13.102L81.3911 12.4664L83.3619 8.50352C83.7521 7.71852 84.7096 7.39631 85.5005 7.78359C85.8155 7.93803 86.0705 8.19095 86.2259 8.50352L88.1966 12.4664L92.6031 13.1019C93.4759 13.2278 94.0807 14.0321 93.9538 14.8984C93.903 15.2439 93.7393 15.5628 93.4881 15.8054L90.2995 18.8902L91.0523 23.2458C91.2014 24.1086 90.6175 24.9279 89.7482 25.0759C89.4021 25.1348 89.0463 25.0788 88.7351 24.9165L84.7938 22.8601ZM118.979 22.8601L115.038 24.9167C114.257 25.3239 113.291 25.0261 112.881 24.2513C112.717 23.9431 112.661 23.5895 112.72 23.2458L113.473 18.8901L110.284 15.8054C110.134 15.6607 110.015 15.4877 109.932 15.2963C109.849 15.105 109.805 14.8992 109.802 14.6907C109.8 14.4823 109.838 14.2754 109.916 14.082C109.994 13.8886 110.109 13.7125 110.256 13.564C110.501 13.3141 110.823 13.1518 111.17 13.102L115.576 12.4664L117.547 8.50352C117.937 7.71852 118.895 7.39631 119.686 7.78359C120 7.93803 120.255 8.19095 120.411 8.50352L122.382 12.4664L126.788 13.1019C127.661 13.2278 128.266 14.0321 128.139 14.8984C128.088 15.2439 127.924 15.5628 127.673 15.8054L124.485 18.8902L125.237 23.2458C125.386 24.1086 124.802 24.9279 123.933 25.0759C123.587 25.1348 123.231 25.0788 122.92 24.9165L118.979 22.8601ZM153.164 22.8601L149.222 24.9167C148.442 25.3239 147.476 25.0261 147.066 24.2513C146.902 23.9431 146.846 23.5895 146.905 23.2458L147.658 18.8901L144.469 15.8054C144.319 15.6607 144.199 15.4877 144.117 15.2963C144.034 15.105 143.99 14.8992 143.987 14.6907C143.985 14.4823 144.023 14.2754 144.101 14.082C144.179 13.8886 144.294 13.7125 144.441 13.564C144.686 13.3141 145.007 13.1518 145.354 13.102L149.761 12.4664L151.732 8.50352C152.122 7.71852 153.08 7.39631 153.87 7.78359C154.185 7.93803 154.44 8.19095 154.596 8.50352L156.566 12.4664L160.973 13.1019C161.846 13.2278 162.45 14.0321 162.324 14.8984C162.273 15.2439 162.109 15.5628 161.858 15.8054L158.669 18.8902L159.422 23.2458C159.571 24.1086 158.987 24.9279 158.118 25.0759C157.772 25.1348 157.416 25.0788 157.105 24.9165L153.164 22.8601Z" fill="white"/>
</g>
<defs>
<clipPath id="clip0_2_49">
<rect width="170" height="33" fill="white"/>
</clipPath>
</defs>
</svg>
