<svg width="20" height="20" viewBox="0 0 20 20" fill="none" xmlns="http://www.w3.org/2000/svg">
<path fill-rule="evenodd" clip-rule="evenodd" d="M9.0625 3.125C7.48778 3.125 5.97755 3.75056 4.86405 4.86405C3.75056 5.97755 3.125 7.48778 3.125 9.0625C3.125 10.6372 3.75056 12.1474 4.86405 13.2609C5.97755 14.3744 7.48778 15 9.0625 15C10.6372 15 12.1474 14.3744 13.2609 13.2609C14.3744 12.1474 15 10.6372 15 9.0625C15 7.48778 14.3744 5.97755 13.2609 4.86405C12.1474 3.75056 10.6372 3.125 9.0625 3.125ZM1.875 9.0625C1.87508 7.90699 2.15375 6.76853 2.6874 5.74363C3.22104 4.71873 3.99392 3.8376 4.94053 3.17492C5.88714 2.51225 6.97956 2.08757 8.1252 1.93688C9.27084 1.7862 10.4359 1.91395 11.5217 2.3093C12.6075 2.70466 13.5819 3.35597 14.3624 4.20802C15.1429 5.06007 15.7065 6.08774 16.0054 7.20393C16.3043 8.32012 16.3296 9.49191 16.0793 10.62C15.829 11.7481 15.3104 12.7991 14.5675 13.6842L17.9425 17.0583C18.0022 17.116 18.0497 17.185 18.0825 17.2613C18.1152 17.3375 18.1324 17.4196 18.1331 17.5025C18.1337 17.5855 18.1179 17.6678 18.0864 17.7446C18.055 17.8214 18.0085 17.8912 17.9498 17.9498C17.8911 18.0085 17.8213 18.0549 17.7445 18.0863C17.6677 18.1176 17.5854 18.1334 17.5024 18.1327C17.4194 18.1319 17.3374 18.1146 17.2611 18.0818C17.1849 18.049 17.116 18.0014 17.0583 17.9417L13.6833 14.5675C12.6353 15.4471 11.358 16.0094 10.0015 16.1881C8.64498 16.3669 7.26563 16.1547 6.02553 15.5766C4.78543 14.9985 3.73611 14.0784 3.00087 12.9245C2.26564 11.7705 1.87505 10.4307 1.875 9.0625Z" fill="#0D1619"/>
</svg>
