<svg width="56" height="56" viewBox="0 0 56 56" fill="none" xmlns="http://www.w3.org/2000/svg">
<g clip-path="url(#clip0_2_292)">
<g clip-path="url(#clip1_2_292)">
<path fill-rule="evenodd" clip-rule="evenodd" d="M22.15 38.2202L24.007 43.2312L27.283 45.0232L24.003 46.8172L22.149 51.5872L20.296 46.8172L17.016 45.0232L20.292 43.2302L22.15 38.2202ZM22.15 41.6712L21.261 44.0692L19.516 45.0232L21.256 45.9752L22.149 48.2732L23.043 45.9752L24.782 45.0232L23.038 44.0692L22.15 41.6712ZM37.235 37.8332C37.3105 37.8562 37.3807 37.8938 37.4417 37.944C37.5026 37.9941 37.553 38.0558 37.5901 38.1255C37.6272 38.1951 37.6501 38.2714 37.6576 38.35C37.6652 38.4285 37.6571 38.5078 37.634 38.5832C37.0786 40.4026 36.2664 42.1333 35.222 43.7232C33.5 46.3682 30.759 47.9372 27.834 47.9372C27.1793 47.9372 26.527 47.8587 25.891 47.7032C25.8144 47.6845 25.7423 47.6509 25.6787 47.6043C25.6152 47.5577 25.5614 47.4991 25.5205 47.4317C25.4796 47.3643 25.4524 47.2896 25.4403 47.2117C25.4283 47.1338 25.4318 47.0543 25.4505 46.9777C25.4692 46.9012 25.5028 46.8291 25.5494 46.7655C25.596 46.7019 25.6546 46.6481 25.722 46.6072C25.7894 46.5663 25.8642 46.5391 25.942 46.5271C26.0199 46.5151 26.0994 46.5185 26.176 46.5372C26.719 46.6702 27.275 46.7372 27.834 46.7372C30.342 46.7372 32.711 45.3812 34.216 43.0682C35.199 41.5725 35.9634 39.9441 36.486 38.2322C36.509 38.1569 36.5466 38.0867 36.5966 38.0259C36.6467 37.965 36.7083 37.9146 36.7778 37.8776C36.8474 37.8405 36.9236 37.8175 37.002 37.8099C37.0805 37.8023 37.1596 37.8102 37.235 37.8332ZM43.623 31.9752C44.621 35.8312 46.343 37.9122 49.507 38.3952L49.782 38.4322L50.689 38.5412L50.181 39.4092L50.053 39.6052L49.88 39.8462L49.664 40.1292C49.1699 40.7501 48.6118 41.3172 47.999 41.8212C45.627 43.7772 42.621 44.7252 38.993 44.1022C38.9153 44.0889 38.841 44.0604 38.7744 44.0184C38.7077 43.9763 38.65 43.9216 38.6045 43.8572C38.559 43.7929 38.5266 43.7202 38.5092 43.6433C38.4918 43.5665 38.4897 43.4869 38.503 43.4092C38.5163 43.3316 38.5448 43.2573 38.5869 43.1906C38.6289 43.1239 38.6837 43.0662 38.748 43.0207C38.8124 42.9752 38.8851 42.9428 38.9619 42.9254C39.0388 42.908 39.1183 42.9059 39.196 42.9192C42.459 43.4792 45.119 42.6412 47.236 40.8952C47.722 40.4942 48.148 40.0692 48.512 39.6402L48.664 39.4542L48.518 39.4222C45.401 38.6592 43.588 36.3642 42.548 32.6022L42.461 32.2762C42.4212 32.1221 42.4443 31.9586 42.5251 31.8215C42.6059 31.6844 42.7379 31.585 42.892 31.5452C43.0461 31.5055 43.2097 31.5285 43.3468 31.6093C43.4839 31.6902 43.5832 31.8211 43.623 31.9752ZM40.988 18.9272L41.066 19.1052L41.214 19.4632L41.284 19.6442L41.417 20.0142C41.46 20.1392 41.501 20.2672 41.541 20.3972L41.658 20.7972L41.769 21.2202L41.823 21.4402L41.927 21.9042L42.028 22.4002L42.078 22.6622L42.177 23.2162L42.276 23.8132L42.426 24.8022L42.585 25.9132L42.811 27.5612C42.8292 27.7169 42.7858 27.8735 42.6901 27.9976C42.5943 28.1217 42.4538 28.2034 42.2986 28.2252C42.1434 28.247 41.9858 28.2072 41.8596 28.1144C41.7333 28.0215 41.6484 27.8829 41.623 27.7282L41.295 25.3562L41.147 24.3612L41.051 23.7612L40.956 23.2062L40.862 22.6932L40.765 22.2162L40.667 21.7732L40.565 21.3592L40.458 20.9692C40.4225 20.8464 40.3851 20.724 40.346 20.6022L40.227 20.2502L40.165 20.0792L40.034 19.7452L39.893 19.4172C35.587 9.79324 20.101 9.79524 15.796 19.4172L15.646 19.7672L15.575 19.9422L15.44 20.3012C15.397 20.4212 15.355 20.5452 15.314 20.6712L15.195 21.0562L15.139 21.2562L15.029 21.6762L14.924 22.1212L14.823 22.5992L14.723 23.1132L14.624 23.6682L14.526 24.2682L14.374 25.2632L14.269 25.9962L13.984 28.0562L13.813 29.2042L13.7 29.9032L13.586 30.5532L13.47 31.1602L13.411 31.4492L13.289 31.9992C13.206 32.3532 13.119 32.6872 13.027 33.0042L12.884 33.4682C12.8118 33.6908 12.7341 33.9115 12.651 34.1302L12.481 34.5532C12.393 34.7632 12.3 34.9692 12.201 35.1742C11.137 37.3842 9.541 38.8142 7.252 39.4002L7.024 39.4542L7.176 39.6402C7.468 39.9832 7.799 40.3232 8.168 40.6512L8.453 40.8952C10.57 42.6412 13.23 43.4792 16.493 42.9202C16.6469 42.8999 16.8026 42.94 16.9275 43.0321C17.0525 43.1241 17.1368 43.261 17.163 43.414C17.1891 43.567 17.155 43.7241 17.0677 43.8525C16.9805 43.9808 16.8469 44.0703 16.695 44.1022C13.067 44.7252 10.062 43.7772 7.69 41.8212C7.07713 41.3169 6.51906 40.7494 6.025 40.1282L5.911 39.9822L5.717 39.7202L5.567 39.5002L5.46 39.3302L5 38.5402L5.907 38.4312C9.134 38.0432 10.767 36.4712 11.831 32.7312L11.979 32.1812C12.027 31.9932 12.074 31.8002 12.12 31.6012L12.255 30.9912L12.385 30.3502L12.508 29.6762L12.628 28.9702L12.686 28.6042L12.8 27.8472L13.083 25.8102L13.192 25.0542L13.306 24.2982L13.474 23.2782L13.586 22.6642L13.642 22.3762L13.758 21.8302L13.878 21.3232C14.105 20.4232 14.363 19.6802 14.701 18.9272C19.429 8.35924 36.259 8.35724 40.988 18.9272ZM30.648 23.7702L30.878 23.9482L32.435 25.2722L33.294 25.9822L33.63 26.2482C33.988 26.5212 34.341 26.7742 34.693 27.0072C34.8226 27.0964 34.912 27.233 34.9419 27.3874C34.9718 27.5419 34.9399 27.7019 34.8529 27.8331C34.766 27.9642 34.631 28.0559 34.4771 28.0885C34.3232 28.1211 34.1626 28.0919 34.03 28.0072C33.655 27.7582 33.28 27.4912 32.902 27.2012L32.568 26.9392L31.88 26.3732L30.115 24.8742C24.655 20.5592 17.922 23.4482 18.159 29.2512C18.323 33.3012 18.976 37.5612 20.362 40.9152C20.4227 41.0624 20.4225 41.2277 20.3614 41.3748C20.3002 41.5218 20.1832 41.6385 20.036 41.6992C19.8888 41.76 19.7235 41.7597 19.5765 41.6986C19.4295 41.6375 19.3127 41.5204 19.252 41.3732C17.801 37.8582 17.129 33.4792 16.96 29.3002C16.683 22.4982 24.451 19.0872 30.648 23.7702ZM38.136 22.0522L40.336 27.9922L44.241 30.1272L40.331 32.2642L38.136 37.9182L35.939 32.2642L32.029 30.1272L35.934 27.9912L38.136 22.0522ZM38.136 25.5052L36.904 28.8292L34.53 30.1262L36.9 31.4222L38.135 34.6042L39.373 31.4222L41.741 30.1262L39.368 28.8292L38.136 25.5052Z" fill="#101928"/>
</g>
</g>
<defs>
<clipPath id="clip0_2_292">
<rect width="56" height="56" fill="white"/>
</clipPath>
<clipPath id="clip1_2_292">
<rect width="56" height="56" fill="white"/>
</clipPath>
</defs>
</svg>
