<svg width="56" height="56" viewBox="0 0 56 56" fill="none" xmlns="http://www.w3.org/2000/svg">
<g clip-path="url(#clip0_2_323)">
<g clip-path="url(#clip1_2_323)">
<path fill-rule="evenodd" clip-rule="evenodd" d="M46.1 11.2669C46.179 11.3853 46.2134 11.528 46.1969 11.6694C46.1804 11.8108 46.1142 11.9418 46.01 12.0389L45.933 12.0989L41.023 15.3719C40.9496 15.4208 40.8662 15.4529 40.779 15.4659L40.691 15.4729H33.341L36.873 26.0659C37.7634 25.7691 38.7035 25.6506 39.6396 25.7171C40.5758 25.7836 41.4897 26.0339 42.3291 26.4536C43.1686 26.8734 43.9171 27.4543 44.532 28.1633C45.147 28.8723 45.6162 29.6955 45.913 30.5859C46.2098 31.4762 46.3283 32.4163 46.2618 33.3525C46.1952 34.2887 45.945 35.2026 45.5252 36.042C45.1055 36.8814 44.5246 37.63 43.8156 38.2449C43.1065 38.8598 42.2834 39.3291 41.393 39.6259L42.759 43.7269H45.6C45.7506 43.727 45.8956 43.7838 46.0063 43.886C46.1169 43.9881 46.1852 44.1281 46.1974 44.2782C46.2096 44.4283 46.1649 44.5775 46.0722 44.6962C45.9795 44.8149 45.8456 44.8944 45.697 44.9189L45.6 44.9269H37.418C37.2674 44.9267 37.1224 44.8699 37.0117 44.7678C36.901 44.6657 36.8328 44.5256 36.8206 44.3755C36.8084 44.2254 36.8531 44.0762 36.9458 43.9576C37.0385 43.8389 37.1724 43.7594 37.321 43.7349L37.418 43.7269H41.495L40.227 39.9229C39.922 39.9729 39.611 40.0029 39.295 40.0139L39.055 40.0179C37.4538 40.0192 35.8985 39.4826 34.6387 38.4942C33.3789 37.5059 32.4876 36.1229 32.1079 34.5674C31.7281 33.0118 31.8819 31.3738 32.5445 29.9161C33.2072 28.4584 34.3403 27.2655 35.762 26.5289L34.297 22.1359L14.248 43.7269H17.782C17.9326 43.727 18.0776 43.7838 18.1883 43.886C18.2989 43.9881 18.3672 44.1281 18.3794 44.2782C18.3916 44.4283 18.3469 44.5775 18.2542 44.6962C18.1615 44.8149 18.0276 44.8944 17.879 44.9189L17.782 44.9269H9.59999C9.4494 44.9267 9.30437 44.8699 9.19371 44.7678C9.08304 44.6657 9.01483 44.5256 9.00262 44.3755C8.9904 44.2254 9.03508 44.0762 9.12777 43.9576C9.22047 43.8389 9.35441 43.7594 9.50299 43.7349L9.59999 43.7269H12.611L21.19 34.4869L15.774 23.6539H12.873C12.7223 23.654 12.5771 23.5974 12.4663 23.4953C12.3554 23.3932 12.287 23.2532 12.2747 23.103C12.2623 22.9529 12.3069 22.8035 12.3996 22.6848C12.4923 22.566 12.6263 22.4864 12.775 22.4619L12.873 22.4549H21.055C21.2056 22.455 21.3506 22.5118 21.4613 22.614C21.5719 22.7161 21.6401 22.8561 21.6524 23.0062C21.6646 23.1563 21.6199 23.3055 21.5272 23.4242C21.4345 23.5429 21.3006 23.6224 21.152 23.6469L21.055 23.6549L17.116 23.6539L22.063 33.5479L33.864 20.8369L31.94 15.0629C31.9123 14.9801 31.9031 14.8922 31.9129 14.8055C31.9227 14.7187 31.9513 14.6352 31.9967 14.5606C32.0421 14.4861 32.1032 14.4223 32.1758 14.3738C32.2484 14.3253 32.3307 14.2933 32.417 14.2799L32.509 14.2729H40.509L45.267 11.1009C45.3993 11.0126 45.5613 10.9805 45.7174 11.0116C45.8734 11.0427 46.0117 11.1346 46.1 11.2669ZM39.055 26.9269C37.4781 26.9269 35.9659 27.5533 34.8509 28.6683C33.7359 29.7833 33.1095 31.2955 33.1095 32.8724C33.1095 34.4492 33.7359 35.9615 34.8509 37.0765C35.9659 38.1915 37.4781 38.8179 39.055 38.8179C40.6317 38.8179 42.1438 38.1915 43.2587 37.0766C44.3736 35.9617 45 34.4496 45 32.8729C45 31.2962 44.3736 29.784 43.2587 28.6691C42.1438 27.5542 40.6317 26.9269 39.055 26.9269Z" fill="#101928"/>
</g>
</g>
<defs>
<clipPath id="clip0_2_323">
<rect width="56" height="56" fill="white"/>
</clipPath>
<clipPath id="clip1_2_323">
<rect width="56" height="56" fill="white"/>
</clipPath>
</defs>
</svg>
