<svg width="116" height="18" viewBox="0 0 116 18" fill="none" xmlns="http://www.w3.org/2000/svg">
<g clip-path="url(#clip0_2_60)">
<g clip-path="url(#clip1_2_60)">
<g clip-path="url(#clip2_2_60)">
<path d="M9.00415 0.617459L6.73774 5.21322L1.66663 5.95216C0.757394 6.08395 0.393109 7.20495 1.05208 7.84763L4.72084 11.4224L3.85308 16.472C3.69759 17.3849 4.65865 18.0683 5.46348 17.6419L10 15.2577L14.5365 17.6419C15.3414 18.0646 16.3032 17.3849 16.147 16.472L15.2792 11.4224L18.9472 7.84689C19.6069 7.20495 19.2426 6.08469 18.3327 5.95216L13.2623 5.21322L10.9966 0.617459C10.5894 -0.201442 9.4136 -0.211808 9.00415 0.617459Z" fill="#FFC830"/>
</g>
</g>
</g>
<g clip-path="url(#clip3_2_60)">
<g clip-path="url(#clip4_2_60)">
<g clip-path="url(#clip5_2_60)">
<path d="M33.0042 0.617459L30.7377 5.21322L25.6666 5.95216C24.7574 6.08395 24.3931 7.20495 25.0521 7.84763L28.7208 11.4224L27.8531 16.472C27.6976 17.3849 28.6586 18.0683 29.4635 17.6419L34 15.2577L38.5365 17.6419C39.3414 18.0646 40.3032 17.3849 40.147 16.472L39.2792 11.4224L42.9472 7.84689C43.6069 7.20495 43.2426 6.08469 42.3327 5.95216L37.2623 5.21322L34.9966 0.617459C34.5894 -0.201442 33.4136 -0.211808 33.0042 0.617459Z" fill="#FFC830"/>
</g>
</g>
</g>
<g clip-path="url(#clip6_2_60)">
<g clip-path="url(#clip7_2_60)">
<g clip-path="url(#clip8_2_60)">
<path d="M57.0042 0.617459L54.7377 5.21322L49.6666 5.95216C48.7574 6.08395 48.3931 7.20495 49.0521 7.84763L52.7208 11.4224L51.8531 16.472C51.6976 17.3849 52.6586 18.0683 53.4635 17.6419L58 15.2577L62.5365 17.6419C63.3414 18.0646 64.3032 17.3849 64.147 16.472L63.2792 11.4224L66.9472 7.84689C67.6069 7.20495 67.2426 6.08469 66.3327 5.95216L61.2623 5.21322L58.9966 0.617459C58.5894 -0.201442 57.4136 -0.211808 57.0042 0.617459Z" fill="#FFC830"/>
</g>
</g>
</g>
<g clip-path="url(#clip9_2_60)">
<g clip-path="url(#clip10_2_60)">
<g clip-path="url(#clip11_2_60)">
<path d="M81.0042 0.617459L78.7377 5.21322L73.6666 5.95216C72.7574 6.08395 72.3931 7.20495 73.0521 7.84763L76.7208 11.4224L75.8531 16.472C75.6976 17.3849 76.6586 18.0683 77.4635 17.6419L82 15.2577L86.5365 17.6419C87.3414 18.0646 88.3032 17.3849 88.147 16.472L87.2792 11.4224L90.9472 7.84689C91.6069 7.20495 91.2426 6.08469 90.3327 5.95216L85.2623 5.21322L82.9966 0.617459C82.5894 -0.201442 81.4136 -0.211808 81.0042 0.617459Z" fill="#FFC830"/>
</g>
</g>
</g>
<g clip-path="url(#clip12_2_60)">
<g clip-path="url(#clip13_2_60)">
<g clip-path="url(#clip14_2_60)">
<path d="M105.004 0.617459L102.738 5.21322L97.6666 5.95216C96.7574 6.08395 96.3931 7.20495 97.0521 7.84763L100.721 11.4224L99.8531 16.472C99.6976 17.3849 100.659 18.0683 101.463 17.6419L106 15.2577L110.537 17.6419C111.341 18.0646 112.303 17.3849 112.147 16.472L111.279 11.4224L114.947 7.84689C115.607 7.20495 115.243 6.08469 114.333 5.95216L109.262 5.21322L106.997 0.617459C106.589 -0.201442 105.414 -0.211808 105.004 0.617459Z" fill="#FFC830"/>
</g>
</g>
</g>
<defs>
<clipPath id="clip0_2_60">
<rect width="20" height="17.77" fill="white"/>
</clipPath>
<clipPath id="clip1_2_60">
<rect width="20" height="17.77" fill="white"/>
</clipPath>
<clipPath id="clip2_2_60">
<rect width="19.9912" height="17.77" fill="white" transform="translate(0.00439453)"/>
</clipPath>
<clipPath id="clip3_2_60">
<rect width="20" height="17.77" fill="white" transform="translate(24)"/>
</clipPath>
<clipPath id="clip4_2_60">
<rect width="20" height="17.77" fill="white" transform="translate(24)"/>
</clipPath>
<clipPath id="clip5_2_60">
<rect width="19.9912" height="17.77" fill="white" transform="translate(24.0044)"/>
</clipPath>
<clipPath id="clip6_2_60">
<rect width="20" height="17.77" fill="white" transform="translate(48)"/>
</clipPath>
<clipPath id="clip7_2_60">
<rect width="20" height="17.77" fill="white" transform="translate(48)"/>
</clipPath>
<clipPath id="clip8_2_60">
<rect width="19.9912" height="17.77" fill="white" transform="translate(48.0044)"/>
</clipPath>
<clipPath id="clip9_2_60">
<rect width="20" height="17.77" fill="white" transform="translate(72)"/>
</clipPath>
<clipPath id="clip10_2_60">
<rect width="20" height="17.77" fill="white" transform="translate(72)"/>
</clipPath>
<clipPath id="clip11_2_60">
<rect width="19.9912" height="17.77" fill="white" transform="translate(72.0044)"/>
</clipPath>
<clipPath id="clip12_2_60">
<rect width="20" height="17.77" fill="white" transform="translate(96)"/>
</clipPath>
<clipPath id="clip13_2_60">
<rect width="20" height="17.77" fill="white" transform="translate(96)"/>
</clipPath>
<clipPath id="clip14_2_60">
<rect width="19.9912" height="17.77" fill="white" transform="translate(96.0044)"/>
</clipPath>
</defs>
</svg>
