<svg width="54" height="54" viewBox="0 0 54 54" fill="none" xmlns="http://www.w3.org/2000/svg">
<g clip-path="url(#clip0_2_144)">
<g clip-path="url(#clip1_2_144)">
<path d="M27.4821 40.5C37.8671 40.5 46.2857 32.0813 46.2857 21.6964C46.2857 11.3115 37.8671 2.89282 27.4821 2.89282C17.0972 2.89282 8.67856 11.3115 8.67856 21.6964C8.67856 32.0813 17.0972 40.5 27.4821 40.5Z" fill="#FBD74C"/>
<path d="M43.3928 10.6072C43.6486 10.6072 43.8938 10.7088 44.0747 10.8896C44.2555 11.0704 44.3571 11.3157 44.3571 11.5715V50.1429C44.3571 50.3005 44.3184 50.4557 44.2445 50.5949C44.1706 50.7341 44.0636 50.8531 43.9331 50.9414C43.8025 51.0297 43.6523 51.0847 43.4956 51.1015C43.3389 51.1183 43.1804 51.0964 43.0341 51.0378L36.8752 48.5663L33.3218 50.9442C33.1983 51.0269 33.0574 51.08 32.9101 51.0992C32.7627 51.1184 32.6129 51.1033 32.4723 51.0551L32.3537 51.005L27.4821 48.5615L22.6105 51.005C22.4778 51.0715 22.3314 51.1065 22.1829 51.1072C22.0343 51.1078 21.8876 51.0742 21.7543 51.0088L21.6424 50.9442L18.088 48.5663L11.9301 51.0378C11.7926 51.093 11.6441 51.1158 11.4963 51.1044C11.3485 51.0929 11.2054 51.0476 11.078 50.9719C10.9505 50.8961 10.8423 50.792 10.7616 50.6676C10.681 50.5433 10.6301 50.402 10.6129 50.2547L10.6071 50.1429V11.5715C10.6071 11.3157 10.7087 11.0704 10.8895 10.8896C11.0704 10.7088 11.3157 10.6072 11.5714 10.6072H43.3928ZM42.4285 12.5357H12.5357V48.7158L17.8422 46.5876C17.9691 46.5367 18.1054 46.5133 18.2421 46.5191C18.3788 46.525 18.5126 46.5598 18.6348 46.6213L18.737 46.6811L22.248 49.0291L27.0501 46.6213C27.1648 46.5638 27.2898 46.5297 27.4178 46.5211C27.5458 46.5125 27.6742 46.5295 27.7955 46.5712L27.9141 46.6213L32.7153 49.0291L36.2272 46.6811C36.341 46.6051 36.4697 46.5542 36.6047 46.5317C36.7397 46.5093 36.8779 46.5158 37.0102 46.5509L37.1221 46.5876L42.4285 48.7167V12.5357ZM27.9643 40.0179C28.21 40.0182 28.4464 40.1123 28.6252 40.281C28.8039 40.4497 28.9114 40.6803 28.9258 40.9257C28.9402 41.171 28.8604 41.4126 28.7026 41.6011C28.5449 41.7896 28.3211 41.9107 28.0771 41.9397L27.9643 41.9465H18.3214C18.0756 41.9462 17.8392 41.8521 17.6605 41.6834C17.4818 41.5146 17.3742 41.284 17.3598 41.0387C17.3454 40.7933 17.4253 40.5517 17.583 40.3633C17.7408 40.1748 17.9645 40.0537 18.2086 40.0246L18.3214 40.0179H27.9643ZM36.6428 40.0179C36.8886 40.0182 37.125 40.1123 37.3037 40.281C37.4824 40.4497 37.59 40.6803 37.6044 40.9257C37.6188 41.171 37.539 41.4126 37.3812 41.6011C37.2235 41.7896 36.9997 41.9107 36.7557 41.9397L36.6428 41.9465H33.75C33.5042 41.9462 33.2678 41.8521 33.0891 41.6834C32.9104 41.5146 32.8028 41.284 32.7884 41.0387C32.774 40.7933 32.8538 40.5517 33.0116 40.3633C33.1693 40.1748 33.3931 40.0537 33.6372 40.0246L33.75 40.0179H36.6428ZM27.9643 33.2679C28.21 33.2682 28.4464 33.3623 28.6252 33.531C28.8039 33.6997 28.9114 33.9303 28.9258 34.1757C28.9402 34.421 28.8604 34.6626 28.7026 34.8511C28.5449 35.0396 28.3211 35.1607 28.0771 35.1897L27.9643 35.1965H18.3214C18.0756 35.1962 17.8392 35.1021 17.6605 34.9334C17.4818 34.7646 17.3742 34.534 17.3598 34.2887C17.3454 34.0433 17.4253 33.8017 17.583 33.6133C17.7408 33.4248 17.9645 33.3037 18.2086 33.2746L18.3214 33.2679H27.9643ZM36.6428 33.2679C36.8886 33.2682 37.125 33.3623 37.3037 33.531C37.4824 33.6997 37.59 33.9303 37.6044 34.1757C37.6188 34.421 37.539 34.6626 37.3812 34.8511C37.2235 35.0396 36.9997 35.1607 36.7557 35.1897L36.6428 35.1965H33.75C33.5042 35.1962 33.2678 35.1021 33.0891 34.9334C32.9104 34.7646 32.8028 34.534 32.7884 34.2887C32.774 34.0433 32.8538 33.8017 33.0116 33.6133C33.1693 33.4248 33.3931 33.3037 33.6372 33.2746L33.75 33.2679H36.6428ZM27.4821 15.4286C29.1445 15.4286 30.7387 16.089 31.9142 17.2644C33.0896 18.4399 33.75 20.0341 33.75 21.6965C33.75 23.3588 33.0896 24.9531 31.9142 26.1285C30.7387 27.304 29.1445 27.9643 27.4821 27.9643C25.8198 27.9643 24.2255 27.304 23.0501 26.1285C21.8746 24.9531 21.2143 23.3588 21.2143 21.6965C21.2143 20.0341 21.8746 18.4399 23.0501 17.2644C24.2255 16.089 25.8198 15.4286 27.4821 15.4286ZM27.4821 17.3572C26.3313 17.3572 25.2276 17.8144 24.4138 18.6281C23.6 19.4419 23.1428 20.5456 23.1428 21.6965C23.1428 22.8473 23.6 23.951 24.4138 24.7648C25.2276 25.5786 26.3313 26.0357 27.4821 26.0357C28.633 26.0357 29.7367 25.5786 30.5505 24.7648C31.3642 23.951 31.8214 22.8473 31.8214 21.6965C31.8214 20.5456 31.3642 19.4419 30.5505 18.6281C29.7367 17.8144 28.633 17.3572 27.4821 17.3572Z" fill="#101928"/>
</g>
</g>
<defs>
<clipPath id="clip0_2_144">
<rect width="54" height="54" fill="white"/>
</clipPath>
<clipPath id="clip1_2_144">
<rect width="54" height="54" fill="white"/>
</clipPath>
</defs>
</svg>
