<svg width="16" height="16" viewBox="0 0 16 16" fill="none" xmlns="http://www.w3.org/2000/svg">
<path d="M14.65 6.64932L11.8334 9.10932L12.6774 12.7727C12.7106 12.9158 12.7119 13.0644 12.6812 13.2081C12.6505 13.3518 12.5886 13.4869 12.4999 13.604C12.4111 13.721 12.2977 13.8171 12.1677 13.8855C12.0376 13.9538 11.8941 13.9927 11.7474 13.9993C11.5509 14.0078 11.3564 13.9582 11.188 13.8567L7.99603 11.9187L4.8107 13.8567C4.64233 13.9583 4.44773 14.008 4.25125 13.9995C4.05477 13.9911 3.86515 13.9248 3.70615 13.8091C3.54714 13.6934 3.42582 13.5333 3.35737 13.3489C3.28893 13.1646 3.2764 12.9641 3.32136 12.7727L4.16403 9.11333L1.3467 6.64932C1.19774 6.52073 1.09004 6.35104 1.03708 6.16152C0.984119 5.972 0.988253 5.77106 1.04896 5.58387C1.10967 5.39669 1.22426 5.23158 1.37838 5.10921C1.53249 4.98685 1.71929 4.91268 1.91536 4.89599L5.62936 4.57332L7.07936 1.11332C7.15524 0.932097 7.28299 0.777339 7.44656 0.668497C7.61013 0.559656 7.80222 0.501587 7.9987 0.501587C8.19517 0.501587 8.38726 0.559656 8.55083 0.668497C8.7144 0.777339 8.84215 0.932097 8.91803 1.11332L10.3714 4.57332L14.0847 4.89532C14.2315 4.90751 14.3737 4.952 14.5013 5.02562C14.6289 5.09924 14.7386 5.20016 14.8225 5.32115C14.9065 5.44215 14.9627 5.58022 14.987 5.72547C15.0114 5.87072 15.0033 6.01956 14.9634 6.16132C14.9103 6.35097 14.8025 6.52073 14.6534 6.64932H14.65Z" fill="#0D1619"/>
</svg>
