<svg width="56" height="56" viewBox="0 0 56 56" fill="none" xmlns="http://www.w3.org/2000/svg">
<g clip-path="url(#clip0_2_311)">
<g clip-path="url(#clip1_2_311)">
<path fill-rule="evenodd" clip-rule="evenodd" d="M18.847 34.2C18.9967 34.2013 19.1404 34.2586 19.2501 34.3605C19.3597 34.4624 19.4273 34.6016 19.4396 34.7508C19.4518 34.8999 19.4079 35.0483 19.3164 35.1668C19.2249 35.2852 19.0924 35.3652 18.945 35.391L18.847 35.399H10.921C10.4744 35.394 10.0434 35.5628 9.71904 35.8699C9.39473 36.177 9.20257 36.5982 9.18322 37.0444C9.16386 37.4906 9.31883 37.9268 9.61533 38.2608C9.91184 38.5948 10.3266 38.8003 10.772 38.834L10.921 38.84H45.281C45.669 38.8402 46.0457 38.7092 46.3499 38.4683C46.6541 38.2273 46.8679 37.8906 46.9565 37.5128C47.0451 37.135 47.0034 36.7384 46.8381 36.3873C46.6728 36.0362 46.3936 35.7514 46.046 35.579C45.9755 35.5438 45.9126 35.4951 45.8609 35.4356C45.8092 35.3761 45.7697 35.307 45.7448 35.2322C45.7198 35.1575 45.7098 35.0785 45.7153 34.9999C45.7208 34.9213 45.7418 34.8445 45.777 34.774C45.8122 34.7035 45.8609 34.6406 45.9204 34.5889C45.9799 34.5372 46.049 34.4978 46.1238 34.4728C46.1985 34.4478 46.2775 34.4378 46.3561 34.4433C46.4347 34.4488 46.5115 34.4698 46.582 34.505C47.1586 34.7915 47.6243 35.2606 47.9067 35.8393C48.1891 36.4179 48.2723 37.0737 48.1434 37.7045C48.0145 38.3354 47.6807 38.9059 47.194 39.3274C46.7072 39.7489 46.0948 39.9976 45.452 40.035L45.28 40.04H43.274V50.15C43.2726 50.2997 43.2154 50.4434 43.1135 50.5531C43.0116 50.6627 42.8724 50.7303 42.7232 50.7426C42.574 50.7549 42.4257 50.7109 42.3072 50.6194C42.1888 50.5279 42.1088 50.3954 42.083 50.248L42.075 50.15L42.074 45.395H14.126V50.15C14.1261 50.3007 14.0695 50.4459 13.9674 50.5567C13.8654 50.6676 13.7253 50.736 13.5751 50.7483C13.425 50.7607 13.2757 50.7161 13.1569 50.6234C13.0381 50.5307 12.9585 50.3967 12.934 50.248L12.926 50.15V40.04H10.921C10.1579 40.0454 9.42303 39.7518 8.87367 39.2222C8.32431 38.6925 8.00413 37.9689 7.98165 37.2061C7.95917 36.4433 8.23618 35.7021 8.75339 35.141C9.2706 34.5799 9.98691 34.2436 10.749 34.204L10.921 34.199L18.847 34.2ZM42.074 40.04H14.126V44.195H42.074V40.04ZM40.522 17.273C41.2231 17.273 41.8977 17.5404 42.4084 18.0208C42.9191 18.5011 43.2272 19.1582 43.27 19.858L43.275 20.026L43.274 30.119H43.756C44.3955 30.113 45.012 30.3574 45.4737 30.8C45.9354 31.2425 46.2056 31.8482 46.2266 32.4874C46.2477 33.1266 46.0178 33.7486 45.5862 34.2206C45.1546 34.6926 44.5555 34.977 43.917 35.013L43.757 35.018H31.834C31.6834 35.0178 31.5384 34.9611 31.4277 34.8589C31.317 34.7568 31.2488 34.6168 31.2366 34.4667C31.2244 34.3166 31.2691 34.1674 31.3618 34.0487C31.4545 33.93 31.5884 33.8505 31.737 33.826L31.834 33.818H43.755C44.0732 33.8148 44.3782 33.6903 44.6078 33.47C44.8375 33.2496 44.9744 32.95 44.9907 32.6322C45.007 32.3144 44.9015 32.0023 44.6957 31.7596C44.4899 31.5169 44.1992 31.3618 43.883 31.326L43.755 31.32H36.595C35.9023 31.3199 35.2209 31.1444 34.6143 30.8099C34.0077 30.4754 33.4957 29.9928 33.126 29.407C33.0385 29.2684 32.921 29.1511 32.7822 29.0639C32.6434 28.9767 32.4868 28.9217 32.324 28.903L32.2 28.896H22.422C22.211 28.896 22.002 28.922 21.797 28.973L21.594 29.033L21.468 29.076C20.771 29.312 20.216 29.806 19.963 30.428C19.8157 30.7891 19.7564 31.18 19.7899 31.5685C19.8234 31.9571 19.9487 32.3321 20.1555 32.6626C20.3624 32.9932 20.6448 33.2699 20.9796 33.4699C21.3144 33.6699 21.6919 33.7875 22.081 33.813L22.242 33.818H27.754C27.9047 33.8179 28.0499 33.8745 28.1607 33.9766C28.2716 34.0786 28.34 34.2187 28.3523 34.3688C28.3647 34.519 28.3201 34.6683 28.2274 34.7871C28.1347 34.9059 28.0007 34.9855 27.852 35.01L27.754 35.018H22.242C21.6417 35.018 21.0506 34.8703 20.5208 34.5881C19.991 34.3058 19.5387 33.8976 19.2038 33.3994C18.8689 32.9012 18.6616 32.3283 18.6003 31.7311C18.5389 31.134 18.6254 30.5309 18.852 29.975C19.215 29.083 19.958 28.383 20.882 28.013L21.084 27.939L21.209 27.896C21.522 27.79 21.846 27.726 22.175 27.704L22.422 27.696H32.2C32.927 27.696 33.608 28.04 34.039 28.617L34.141 28.767C34.3848 29.153 34.7163 29.4761 35.1085 29.71C35.5006 29.9439 35.9424 30.082 36.398 30.113L36.596 30.12L42.073 30.119V20.026C42.073 19.216 41.453 18.551 40.663 18.48L40.521 18.473H37.766C37.224 18.473 36.776 18.884 36.719 19.412L36.713 19.526V20.133C36.7131 20.2837 36.6565 20.4289 36.5544 20.5397C36.4523 20.6506 36.3123 20.719 36.1621 20.7313C36.012 20.7437 35.8627 20.6991 35.7439 20.6064C35.6251 20.5137 35.5455 20.3797 35.521 20.231L35.513 20.133V19.526C35.513 18.334 36.44 17.358 37.612 17.279L37.766 17.273H40.522ZM28.365 30.757C29.471 30.757 30.377 31.615 30.454 32.701L30.459 32.851V34.418C30.4588 34.5686 30.402 34.7136 30.2999 34.8243C30.1978 34.9349 30.0577 35.0032 29.9076 35.0154C29.7576 35.0276 29.6084 34.9829 29.4897 34.8902C29.371 34.7975 29.2915 34.6636 29.267 34.515L29.259 34.418V32.85C29.259 32.6323 29.1796 32.4221 29.0356 32.2587C28.8916 32.0954 28.693 31.9903 28.477 31.963L28.365 31.956H21.597C21.4464 31.9558 21.3014 31.8991 21.1907 31.7969C21.08 31.6948 21.0118 31.5548 20.9996 31.4047C20.9874 31.2546 21.0321 31.1054 21.1248 30.9867C21.2175 30.868 21.3514 30.7885 21.5 30.764L21.597 30.756L28.365 30.757ZM17.981 30.623C18.0916 31.2161 18.0672 31.8264 17.9097 32.4088C17.7521 32.9912 17.4655 33.5306 17.071 33.987C17.0195 34.0467 16.9568 34.0956 16.8864 34.1311C16.816 34.1665 16.7393 34.1878 16.6607 34.1936C16.5019 34.2053 16.345 34.1535 16.2245 34.0495C16.1039 33.9455 16.0296 33.7979 16.0179 33.6392C16.0062 33.4804 16.058 33.3235 16.162 33.203C16.5142 32.7945 16.7422 32.2936 16.8189 31.7597C16.8957 31.2257 16.818 30.681 16.595 30.1898C16.3721 29.6986 16.0132 29.2814 15.5608 28.9876C15.1084 28.6938 14.5814 28.5356 14.042 28.5317C13.5026 28.5279 12.9733 28.6784 12.5167 28.9657C12.0602 29.253 11.6953 29.6649 11.4654 30.1528C11.2354 30.6408 11.1499 31.1844 11.2189 31.7194C11.2879 32.2544 11.5087 32.7584 11.855 33.172C11.9057 33.2323 11.9441 33.302 11.968 33.3771C11.9918 33.4522 12.0006 33.5313 11.9938 33.6098C11.9871 33.6883 11.965 33.7647 11.9287 33.8347C11.8925 33.9046 11.8428 33.9667 11.7825 34.0175C11.7222 34.0683 11.6525 34.1066 11.5774 34.1305C11.5023 34.1543 11.4232 34.1631 11.3447 34.1564C11.2662 34.1496 11.1898 34.1275 11.1198 34.0912C11.0499 34.055 10.9877 34.0053 10.937 33.945C10.5404 33.4731 10.2574 32.9164 10.1099 32.3178C9.96241 31.7193 9.95428 31.0949 10.0862 30.4927C10.218 29.8905 10.4864 29.3267 10.8706 28.8446C11.2547 28.3625 11.7445 27.975 12.302 27.712C12.8595 27.4491 13.47 27.3176 14.0864 27.3278C14.7027 27.3379 15.3085 27.4895 15.8571 27.7707C16.4057 28.0519 16.8823 28.4554 17.2504 28.9499C17.6184 29.4444 17.8681 30.0168 17.98 30.623H17.981ZM36.147 25.177C36.2891 25.177 36.4267 25.2274 36.5351 25.3194C36.6435 25.4113 36.7158 25.5388 36.739 25.679L36.747 25.777V28.297C36.7466 28.4475 36.6896 28.5924 36.5874 28.7028C36.4852 28.8133 36.3452 28.8813 36.1952 28.8934C36.0451 28.9055 35.896 28.8608 35.7775 28.7681C35.6589 28.6754 35.5795 28.5415 35.555 28.393L35.547 28.296V25.776C35.547 25.6169 35.6102 25.4643 35.7227 25.3517C35.8352 25.2392 35.9879 25.177 36.147 25.177ZM39.521 20.078C39.5758 20.2093 39.5821 20.3558 39.5389 20.4913C39.4957 20.6269 39.4057 20.7427 39.285 20.818L39.198 20.863L30.939 24.307C30.7678 24.3678 30.6256 24.4905 30.5405 24.651C30.4553 24.8115 30.4335 24.998 30.4792 25.1739C30.5249 25.3497 30.6349 25.502 30.7874 25.6007C30.9399 25.6994 31.1239 25.7373 31.303 25.707L31.4 25.681L39.659 22.238C39.8239 22.1789 39.9618 22.062 40.0471 21.9091C40.1324 21.7561 40.1594 21.5773 40.123 21.406L40.096 21.312C40.0694 21.2378 40.0577 21.1591 40.0615 21.0804C40.0653 21.0016 40.0846 20.9244 40.1183 20.8532C40.1519 20.7819 40.1993 20.718 40.2577 20.665C40.3161 20.612 40.3843 20.5711 40.4585 20.5445C40.5327 20.5179 40.6114 20.5062 40.6901 20.51C40.7688 20.5138 40.846 20.5331 40.9173 20.5668C40.9886 20.6005 41.0525 20.6478 41.1055 20.7062C41.1584 20.7646 41.1994 20.8328 41.226 20.907C41.567 21.859 41.112 22.904 40.228 23.302L31.833 26.8C31.3771 26.9634 30.8763 26.949 30.4305 26.7596C29.9847 26.5702 29.6268 26.2197 29.428 25.778L29.372 25.638C29.031 24.685 29.486 23.64 30.37 23.243L38.736 19.755C38.8087 19.7246 38.8868 19.7089 38.9656 19.7087C39.0444 19.7085 39.1225 19.7238 39.1954 19.7538C39.2683 19.7838 39.3346 19.8279 39.3905 19.8835C39.4463 19.9391 39.4907 20.0052 39.521 20.078ZM39.285 9C40.3319 9 41.336 9.4159 42.0763 10.1562C42.8166 10.8965 43.2325 11.9006 43.2325 12.9475C43.2325 13.9944 42.8166 14.9985 42.0763 15.7388C41.336 16.4791 40.3319 16.895 39.285 16.895C38.238 16.895 37.234 16.4791 36.4937 15.7388C35.7534 14.9985 35.3375 13.9944 35.3375 12.9475C35.3375 11.9006 35.7534 10.8965 36.4937 10.1562C37.234 9.4159 38.238 9 39.285 9ZM39.285 10.2C38.9242 10.2 38.5669 10.2711 38.2336 10.4091C37.9002 10.5472 37.5973 10.7496 37.3422 11.0047C37.0871 11.2599 36.8847 11.5627 36.7466 11.8961C36.6085 12.2294 36.5375 12.5867 36.5375 12.9475C36.5375 13.3083 36.6085 13.6656 36.7466 13.9989C36.8847 14.3323 37.0871 14.6351 37.3422 14.8903C37.5973 15.1454 37.9002 15.3478 38.2336 15.4859C38.5669 15.6239 38.9242 15.695 39.285 15.695C40.0137 15.695 40.7125 15.4055 41.2278 14.8903C41.743 14.375 42.0325 13.6762 42.0325 12.9475C42.0325 12.2188 41.743 11.52 41.2278 11.0047C40.7125 10.4895 40.0137 10.2 39.285 10.2Z" fill="#101928"/>
</g>
</g>
<defs>
<clipPath id="clip0_2_311">
<rect width="56" height="56" fill="white"/>
</clipPath>
<clipPath id="clip1_2_311">
<rect width="56" height="56" fill="white"/>
</clipPath>
</defs>
</svg>
