<svg width="48" height="24" viewBox="0 0 48 24" fill="none" xmlns="http://www.w3.org/2000/svg">
<path d="M20.026 8.163C19.932 8.221 17.708 9.456 17.708 12.193C17.813 15.314 20.515 16.409 20.561 16.409C20.515 16.467 20.153 17.9 19.082 19.402C18.232 20.696 17.29 22 15.856 22C14.493 22 14.004 21.138 12.431 21.138C10.743 21.138 10.265 22 8.97201 22C7.53901 22 6.52601 20.626 5.62901 19.344C4.46501 17.667 3.47501 15.034 3.44001 12.507C3.41701 11.168 3.67301 9.852 4.32501 8.733C5.24501 7.173 6.88701 6.113 8.68101 6.078C10.055 6.031 11.278 7.021 12.117 7.021C12.921 7.021 14.423 6.078 16.123 6.078C16.857 6.078 18.814 6.299 20.026 8.163ZM12 5.81C11.755 4.587 12.43 3.364 13.06 2.584C13.864 1.64 15.133 1 16.227 1C16.2593 1.59895 16.1731 2.19838 15.9734 2.76396C15.7736 3.32954 15.4643 3.85016 15.063 4.296C14.354 5.24 13.13 5.95 12 5.81Z" fill="#0D1619"/>
<path d="M36.003 2.39991C30.7 2.39991 26.4 6.69791 26.4 11.9999C26.4 17.3019 30.7 21.5999 36.003 21.5999C44.011 21.5999 45.815 14.1659 45.064 10.3999H36V13.5999H42.19C41.8359 14.9728 41.0358 16.1891 39.9154 17.0579C38.795 17.9267 37.4178 18.3988 36 18.3999C34.3026 18.3999 32.6748 17.7256 31.4745 16.5254C30.2743 15.3252 29.6 13.6973 29.6 11.9999C29.6 10.3025 30.2743 8.67466 31.4745 7.47443C32.6748 6.2742 34.3026 5.59991 36 5.59991C37.607 5.59991 39.071 6.19691 40.195 7.17491L42.469 4.90291C40.7024 3.28951 38.3955 2.39649 36.003 2.39991Z" fill="#0D1619"/>
</svg>
