<svg width="17" height="21" viewBox="0 0 17 21" fill="none" xmlns="http://www.w3.org/2000/svg">
<path fill-rule="evenodd" clip-rule="evenodd" d="M7.95394 0.225987C8.09883 0.0812802 8.29523 0 8.5 0C8.70477 0 8.90117 0.0812802 9.04606 0.225987L13.1034 4.28229C13.2399 4.42877 13.3142 4.62252 13.3107 4.82271C13.3071 5.0229 13.226 5.2139 13.0845 5.35548C12.9429 5.49705 12.7519 5.57815 12.5517 5.58168C12.3515 5.58521 12.1578 5.51091 12.0113 5.37441L9.27273 2.63896V11.5902C9.27273 11.7952 9.19132 11.9917 9.0464 12.1366C8.90149 12.2815 8.70494 12.363 8.5 12.363C8.29506 12.363 8.09851 12.2815 7.9536 12.1366C7.80869 11.9917 7.72727 11.7952 7.72727 11.5902V2.6369L4.98976 5.37647C4.84327 5.51297 4.64953 5.58727 4.44934 5.58374C4.24915 5.58021 4.05815 5.49911 3.91657 5.35754C3.77499 5.21596 3.6939 5.02496 3.69036 4.82477C3.68683 4.62458 3.76114 4.43083 3.89764 4.28435L7.95394 0.225987ZM0.453333 8.17993C0.742884 7.89001 1.13571 7.72695 1.54545 7.72659H3.86364C4.06858 7.72659 4.26512 7.80801 4.41004 7.95292C4.55495 8.09783 4.63636 8.29438 4.63636 8.49932C4.63636 8.70426 4.55495 8.90081 4.41004 9.04572C4.26512 9.19064 4.06858 9.27205 3.86364 9.27205H1.54545V19.3175H15.4545V9.27205H13.1364C12.9314 9.27205 12.7349 9.19064 12.59 9.04572C12.445 8.90081 12.3636 8.70426 12.3636 8.49932C12.3636 8.29438 12.445 8.09783 12.59 7.95292C12.7349 7.80801 12.9314 7.72659 13.1364 7.72659H15.4545C15.8644 7.72659 16.2575 7.88942 16.5473 8.17925C16.8372 8.46907 17 8.86217 17 9.27205V19.3175C17 19.7274 16.8372 20.1205 16.5473 20.4103C16.2575 20.7001 15.8644 20.863 15.4545 20.863H1.54545C1.13557 20.863 0.742482 20.7001 0.452653 20.4103C0.162824 20.1205 0 19.7274 0 19.3175V9.27205C0 8.86199 0.162788 8.46841 0.453333 8.17993Z" fill="#0D1619"/>
</svg>
