<svg width="68" height="20" viewBox="0 0 68 20" fill="none" xmlns="http://www.w3.org/2000/svg">
<g clip-path="url(#clip0_2_446)">
<path d="M42.8057 1.74475H46.0456V8.4745C47.1255 6.89592 49.3685 6.39742 51.1961 7.14517C53.0237 7.89292 53.6052 9.22225 53.6883 9.38842C53.8544 9.80383 54.0206 10.2193 54.1036 10.6347C54.6021 13.6257 53.6052 16.6167 54.519 19.5246H51.3622C50.5315 17.4475 51.0299 15.1212 51.0299 12.961C51.0299 12.3794 51.0299 11.7148 50.6976 11.1332C50.2823 10.3854 49.4515 9.80383 48.6208 9.80383C47.707 9.80383 46.8763 10.3023 46.4609 11.0501C46.1286 11.7148 46.1286 12.5456 46.1286 13.2933V19.5246H42.8888L42.8057 1.74475ZM29.9294 13.0441C30.0125 9.4715 27.7695 6.81283 24.2805 6.81283C21.9544 6.81283 19.9607 7.976 18.8807 9.97C17.7177 12.1302 17.8008 15.2043 19.213 17.2813C21.2898 20.1062 25.5265 20.7708 29.5971 18.8599L28.6002 16.2843C25.1943 17.7798 21.539 17.3644 21.2898 14.2903H29.9294V13.0441ZM21.3729 11.7978C21.6221 11.1332 21.9544 10.6347 22.4529 10.2193C23.4497 9.4715 25.1943 9.38842 26.1081 10.1362C26.5234 10.4685 26.8557 11.0501 27.1049 11.7148H21.3729V11.7978ZM10.9057 11.5486C10.9057 11.5486 10.9057 9.63767 9.32733 9.63767H5.75519V19.6908H2.51535V9.63767H0.0231628V6.89592H2.51535V4.73575C2.51535 2.82483 4.25988 0 8.08124 0C11.9026 0 13.3979 3.24025 13.3979 3.24025L10.9057 4.985C10.9057 4.985 10.2411 2.90792 8.16431 2.90792C7.25051 2.90792 5.83827 3.65567 5.83827 5.15117V6.81283H10.9057C13.1487 6.81283 13.7302 8.4745 13.7302 8.4745C14.5609 6.4805 17.5515 6.72975 18.1331 6.81283V9.38842C16.0562 9.22225 14.1456 10.3854 14.1456 12.7948V19.4415H10.9057V11.5486ZM40.6458 13.4595C39.6489 12.4625 37.0737 12.1302 35.4122 11.7978C34.5815 11.6317 33.9169 11.4655 33.9169 10.6347C33.9169 9.63767 34.9138 9.38842 35.9107 9.38842C36.9075 9.38842 37.9044 9.80383 38.4859 10.6347L40.9781 9.30533C39.5659 6.81283 35.8276 6.31433 33.4185 7.31133C32.6708 7.64367 32.0893 8.14217 31.6739 8.72375C30.7601 9.97 30.8432 12.1302 31.9232 13.1272C32.5047 13.7088 33.5015 14.1242 34.7476 14.3734L37.0737 14.7888C37.9044 14.955 38.6521 15.1212 38.6521 16.0351C38.6521 17.1152 37.4891 17.3644 36.4922 17.3644C33.8338 17.3644 33.3354 14.8719 33.3354 14.8719L30.2617 15.7858C30.4279 16.6167 31.5078 19.94 36.4091 19.94C39.1505 19.94 41.5596 18.8599 41.6427 15.952C41.5596 14.8719 41.2273 14.0411 40.6458 13.4595ZM67.4784 17.2813C66.8969 17.2813 66.3984 16.949 66.3984 16.1182C66.3984 15.7028 66.3154 14.2903 66.3154 13.958C66.3154 11.7978 66.3984 9.72075 64.9031 8.22525C63.2417 6.56358 59.4203 6.39742 57.4265 7.72675C56.6789 8.14217 56.0143 8.72375 55.5159 9.4715L57.4265 11.4655C58.1742 10.2193 59.2542 9.63767 60.5003 9.63767C61.6633 9.55458 62.6601 10.1362 63.0755 11.2993C60.5002 11.964 57.1773 12.2133 55.7651 14.8719C55.1005 16.1182 55.2667 17.6968 56.2635 18.7768C57.0112 19.6077 58.2573 19.8569 59.4203 19.8569C61.2479 19.8569 62.9924 19.4415 64.0724 17.7798C64.6539 19.1923 65.9 19.8569 67.3953 19.8569C67.6445 19.8569 67.8937 19.7738 68.0599 19.6908V17.1983C67.8937 17.2813 67.7276 17.2813 67.4784 17.2813ZM63.0755 14.7058C63.1586 16.5336 61.6633 17.5306 60.0018 17.5306C59.088 17.5306 58.5065 17.1152 58.5065 16.2013C58.5065 15.2043 59.3372 14.8719 60.251 14.6227L63.0755 13.7918V14.7058Z" fill="#101928"/>
</g>
<defs>
<clipPath id="clip0_2_446">
<rect width="68" height="19.94" fill="white"/>
</clipPath>
</defs>
</svg>
